<?xml version="1.0" encoding="utf-8"?>
<!-- Generator: Adobe Illustrator 26.0.2, SVG Export Plug-In . SVG Version: 6.00 Build 0)  -->
<svg version="1.1" id="Layer_1" xmlns="http://www.w3.org/2000/svg" xmlns:xlink="http://www.w3.org/1999/xlink" x="0px" y="0px"
	 viewBox="0 0 200.81 200.81" style="enable-background:new 0 0 200.81 200.81;" xml:space="preserve">
<style type="text/css">
	.st0{fill:#1AD6FF;}
	.st1{fill:#FFFFFF;}
	.st2{fill:#2FD6FD;}
	.st3{fill:none;stroke:#2FD6FD;stroke-width:7;stroke-miterlimit:10;}
	.st4{fill:none;stroke:#FFFFFF;stroke-width:7;stroke-miterlimit:10;}
	.st5{fill:#28396E;stroke:#FFFFFF;stroke-width:7;stroke-miterlimit:10;}
	.st6{fill:#091D5D;}
</style>
<path class="st0" d="M182.47,126.12l-56.34,56.34c-14.2,14.2-37.23,14.2-51.44,0l-56.34-56.34c-14.2-14.2-14.2-37.23,0-51.44
	l56.34-56.34c14.2-14.2,37.23-14.2,51.44,0l56.34,56.34C196.67,88.89,196.67,111.92,182.47,126.12z"/>
<g>
	<path class="st1" d="M39.39,96.16c3.07-1.66,5.5-3.33,8.17-4.37c27.28-10.65,54.56-21.3,81.93-31.73c8.96-3.42,11.89-0.87,9.93,8.5
		c-4.58,21.81-9.29,43.58-14.17,65.32c-2.15,9.6-4.64,10.45-12.55,4.86c-6.25-4.42-12.4-8.99-19.12-13.87
		c-4.63,3.72-9.09,7.3-15.73,12.63c0.47-12.41-1.58-22.22,7.9-30.23c12.08-10.2,23.47-21.21,33.67-33.77
		c-13.76,8.58-27.53,17.14-41.26,25.76C64.81,107.63,54.39,107.03,39.39,96.16z"/>
</g>
</svg>
