<?xml version="1.0" encoding="utf-8"?>
<!-- Generator: Adobe Illustrator 26.0.2, SVG Export Plug-In . SVG Version: 6.00 Build 0)  -->
<svg version="1.1" id="Layer_1" xmlns="http://www.w3.org/2000/svg" xmlns:xlink="http://www.w3.org/1999/xlink" x="0px" y="0px"
	 viewBox="0 0 200.81 200.81" style="enable-background:new 0 0 200.81 200.81;" xml:space="preserve">
<style type="text/css">
	.st0{fill:#1AD6FF;}
	.st1{fill:#FFFFFF;}
	.st2{fill:#2FD6FD;}
	.st3{fill:none;stroke:#2FD6FD;stroke-width:7;stroke-miterlimit:10;}
	.st4{fill:none;stroke:#FFFFFF;stroke-width:7;stroke-miterlimit:10;}
	.st5{fill:#28396E;stroke:#FFFFFF;stroke-width:7;stroke-miterlimit:10;}
	.st6{fill:#091D5D;}
</style>
<g>
	<path class="st1" d="M1.54,99.09c1.11-1.73,2.72-2.16,4.7-2.15c10.91,0.06,21.82,0.03,32.73,0.03c0.75,0,1.51,0,2.52,0
		c-1.88-4.91-0.97-9.09,3.1-13.01c-2.53,0-4.52,0.02-6.51,0c-2.57-0.03-4.07-1.24-4.06-3.25c0.01-2.01,1.53-3.23,4.09-3.24
		c3.55-0.02,7.11,0.07,10.66-0.06c0.87-0.03,1.93-0.53,2.54-1.17c2.49-2.61,4.83-5.36,7.61-8.49c-1.14,0-1.85,0-2.56,0
		c-14.34,0-28.67,0-43.01,0c-0.51,0-1.02,0.01-1.52,0c-2.36-0.08-3.85-1.4-3.79-3.35c0.06-1.89,1.45-3.13,3.78-3.14
		c9.64-0.03,19.29-0.02,28.93-0.02c7.42,0,14.85,0.04,22.27-0.05c0.93-0.01,2.1-0.51,2.73-1.19c3.44-3.71,6.75-7.54,10.48-11.75
		c-1.16,0-1.83,0-2.49,0c-7.3,0-14.59,0-21.89-0.01c-0.76,0-1.54,0.01-2.27-0.14c-1.56-0.32-2.42-1.37-2.5-2.93
		c-0.08-1.56,0.64-2.73,2.16-3.19c0.77-0.23,1.63-0.24,2.44-0.24c9.33-0.02,18.65-0.06,27.98,0.04c1.77,0.02,2.9-0.56,4.04-1.86
		c7.03-8.01,14.13-15.96,21.21-23.92c3.13-3.51,6.78-4.41,10.33-2.57c3.82,1.98,5.96,6.57,4.82,10.8c-1.4,5.2-3,10.34-4.51,15.51
		c-0.17,0.59-0.31,1.19-0.51,1.99c0.93,0,1.69,0,2.44,0c14.15,0,28.29-0.03,42.44,0.01c8.25,0.02,14.56,4.74,16.47,12.29
		c0.38,1.52,0.53,3.13,0.56,4.7c0.07,4.44,0.03,8.88,0.03,13.32c0,0.68,0,1.35,0,2.22c3.13,0,6.04-0.01,8.94,0
		c6.57,0.03,10.51,3.98,10.52,10.57c0.01,10.28,0.01,20.55,0,30.83c-0.01,6.46-3.97,10.47-10.4,10.5c-2.91,0.02-5.82,0-8.95,0
		c-0.04,0.77-0.1,1.43-0.11,2.1c-0.01,4.38,0,8.75-0.01,13.13c-0.02,10.38-6.9,17.29-17.31,17.3c-18.52,0.03-37.05,0.16-55.57-0.1
		c-4.41-0.06-7.29,1.14-10.01,4.66c-5.58,7.22-11.67,14.05-17.56,21.03c-2.95,3.49-6.59,4.52-10.12,2.87
		c-3.84-1.8-6.15-6.23-5.24-10.41c1.16-5.32,2.48-10.61,3.72-15.91c0.14-0.61,0.26-1.23,0.44-2.12c-0.83,0-1.51,0-2.18,0
		c-6.03,0-12.05,0.01-18.08-0.01c-0.75,0-1.54-0.03-2.26-0.23c-1.54-0.44-2.31-1.6-2.25-3.14c0.06-1.63,0.95-2.74,2.63-3.02
		c0.74-0.12,1.52-0.1,2.28-0.11c7.1-0.01,14.2,0,21.47,0c1.02-4.3,2.03-8.52,3.11-13.03c-0.97,0-1.7,0-2.44,0
		c-19.16,0-38.32,0-57.47,0c-0.57,0-1.14,0.01-1.71-0.01c-2.22-0.09-3.51-1.22-3.57-3.11c-0.06-1.97,1.28-3.28,3.54-3.37
		c1.52-0.06,3.04-0.01,4.57-0.01c18.9,0,37.81-0.01,56.71,0.03c1.44,0,2.13-0.32,2.39-1.87c0.43-2.55,1.16-5.05,1.83-7.84
		c-0.83,0-1.5,0-2.17,0c-7.68,0-15.35,0-23.03,0c-0.57,0-1.15,0.03-1.71-0.03c-1.96-0.2-3.24-1.57-3.19-3.35
		c0.05-1.81,1.35-3.08,3.39-3.1c5.71-0.04,11.42-0.02,17.13-0.02c1.31,0,2.61,0,4.47,0c-0.85-0.67-1.24-1.03-1.68-1.32
		c-5.51-3.62-11-7.27-16.57-10.8c-0.89-0.57-2.11-0.85-3.18-0.86c-13.7-0.06-27.41-0.06-41.11-0.01c-1.98,0.01-3.59-0.42-4.7-2.15
		C1.54,100.61,1.54,99.85,1.54,99.09z M103.66,152.07c0.89,0.06,1.44,0.14,1.99,0.14c18.08,0.01,36.16,0.02,54.24-0.01
		c6.62-0.01,10.58-4.07,10.59-10.76c0.01-27.47,0.01-54.94,0-82.41c0-6.79-3.96-10.77-10.76-10.78
		c-14.97-0.02-29.94,0.01-44.92-0.04c-1.43-0.01-1.93,0.5-2.31,1.81c-2.5,8.7-5.1,17.38-7.66,26.06c-0.84,2.85-0.45,3.85,2.12,5.55
		c8.62,5.7,17.25,11.37,25.86,17.09c5.97,3.96,6.92,10.37,2.35,15.83c-7.29,8.71-14.61,17.39-21.91,26.08
		C110.12,144.36,107,148.09,103.66,152.07z M114.04,21.65c-0.51-0.69-1-1.88-1.86-2.3c-0.53-0.26-1.66,0.61-2.47,1.06
		c-0.37,0.21-0.61,0.64-0.9,0.97C88.72,44,68.63,66.62,48.54,89.24c-2.3,2.59-2.02,4.69,0.86,6.58c8.69,5.7,17.39,11.4,26.08,17.1
		c4.33,2.84,5.88,6.71,4.68,11.8c-3.03,12.82-6.09,25.63-9.14,38.45c-1.14,4.81-2.27,9.61-3.43,14.42
		c-0.37,1.56,0.09,2.85,1.44,3.58c1.35,0.73,2.04-0.47,2.77-1.34c19.34-23.01,38.69-46.02,58.02-69.04c2.52-3,2.22-4.77-1.08-6.96
		c-8.57-5.66-17.14-11.31-25.7-16.98c-4.62-3.06-6.08-7-4.53-12.29c4.92-16.7,9.86-33.4,14.78-50.1
		C113.53,23.68,113.72,22.88,114.04,21.65z M177.1,80.79c0,13.09,0,25.92,0,38.88c3.35,0,6.57,0.06,9.79-0.02
		c1.8-0.05,3.03-1.35,3.04-3.25c0.04-10.78,0.04-21.55,0-32.33c-0.01-1.91-1.23-3.21-3.03-3.26
		C183.67,80.73,180.45,80.79,177.1,80.79z"/>
	<path class="st2" d="M27.54,116.51c2.09,0,4.19-0.04,6.28,0.01c2.02,0.05,3.37,1.3,3.45,3.07c0.08,1.81-1.32,3.34-3.37,3.38
		c-4.25,0.08-8.5,0.08-12.75,0c-2.1-0.04-3.38-1.48-3.3-3.39c0.07-1.84,1.33-2.96,3.42-3.06c0.13-0.01,0.25-0.01,0.38-0.01
		C23.6,116.51,25.57,116.51,27.54,116.51C27.54,116.51,27.54,116.51,27.54,116.51z"/>
	<path class="st2" d="M25.9,152.25c1.65,0,3.3-0.08,4.94,0.02c1.93,0.11,3.1,1.36,3.12,3.14c0.02,1.77-1.12,3.17-3.03,3.24
		c-3.35,0.12-6.71,0.12-10.06,0c-1.91-0.07-3.05-1.47-3.02-3.24c0.02-1.78,1.19-3.03,3.13-3.14
		C22.6,152.17,24.26,152.25,25.9,152.25z"/>
	<path class="st2" d="M32.35,48.23c-1.58,0-3.17,0.06-4.75-0.02c-2.05-0.1-3.27-1.36-3.27-3.2c0-1.84,1.21-3.16,3.26-3.23
		c3.16-0.1,6.33-0.1,9.5-0.01c2.15,0.06,3.41,1.42,3.36,3.33c-0.05,1.84-1.28,3.03-3.36,3.12C35.51,48.29,33.93,48.23,32.35,48.23
		C32.35,48.23,32.35,48.23,32.35,48.23z"/>
	<path class="st2" d="M21.09,83.92c-1.2,0-2.41,0.07-3.61-0.02c-1.65-0.13-2.83-1.37-2.95-2.95c-0.11-1.54,0.92-3.17,2.53-3.29
		c2.64-0.2,5.32-0.24,7.94,0.02c1.69,0.16,2.54,1.55,2.44,3.32c-0.09,1.61-1.24,2.74-2.94,2.93c-0.13,0.01-0.25,0.02-0.38,0.02
		c-1.01,0-2.03,0-3.04,0C21.09,83.94,21.09,83.93,21.09,83.92z"/>
</g>
<g>
	<path class="st2" d="M131.59,96.54c-8.61-5.71-17.24-11.39-25.86-17.09c-2.57-1.7-2.96-2.7-2.12-5.55
		c2.22-7.53,4.46-15.05,6.65-22.59c0.15-4.03,1.66-8.18,3.62-11.98c0.17-0.69,0.3-1.24,0.45-1.77c1.51-5.17,3.1-10.31,4.51-15.51
		c1.14-4.23-1-8.82-4.82-10.8c-3.55-1.84-7.2-0.94-10.33,2.57c-6.24,7.01-12.48,14.01-18.68,21.05c-0.04,0.07-0.09,0.14-0.15,0.2
		c-0.34,0.38-0.69,0.76-1.04,1.14c-0.45,0.51-0.9,1.01-1.34,1.52c-0.25,0.29-0.5,0.53-0.76,0.75c-2.33,2.49-4.69,4.96-6.88,7.57
		h0.17c-3.73,4.21-7.04,8.04-10.48,11.75c-0.15,0.16-0.34,0.32-0.54,0.46c-1.29,1.6-2.55,3.23-3.96,4.72
		c-0.88,0.93-1.89,1.74-2.86,2.58h0.54c-2.78,3.13-5.12,5.88-7.61,8.49c-0.18,0.19-0.4,0.36-0.64,0.51
		c-3.11,4.26-7.13,8.13-8.89,13.12c-2.79,7.91,5.96,11.63,10.91,15.8c0.1,0.08,0.18,0.17,0.25,0.27c4.72,3.03,9.4,6.13,14.09,9.21
		c3.69,1.97,7.41,4.2,6.9,8.98c-0.05,0.47-0.28,0.82-0.58,1.06c-0.5,1.95-0.97,3.79-1.29,5.65c-0.07,0.41-0.17,0.72-0.3,0.98
		c-0.39,2.88-1.2,5.7-1.91,8.51c-0.04,0.16-0.1,0.29-0.18,0.41c-0.71,2.97-1.39,5.83-2.07,8.69c-0.01,0.03,0,0.06-0.01,0.09
		c-0.78,3.48-1.46,6.98-2.1,10.48c-0.08,0.46-0.32,0.75-0.62,0.92c-1.24,5.28-2.55,10.54-3.7,15.83c-0.91,4.18,1.4,8.62,5.24,10.41
		c3.53,1.65,7.17,0.63,10.12-2.87c5.89-6.98,11.97-13.81,17.56-21.03c0.97-1.26,1.96-2.21,3.04-2.93c1.45-1.9,2.66-3.99,4.12-5.89
		c1.8-2.34,3.92-4.4,5.93-6.56c2.06-2.46,4.08-4.87,6.09-7.26c7.3-8.69,14.62-17.37,21.91-26.08
		C138.51,106.92,137.56,100.5,131.59,96.54z M128.62,108.61c-19.34,23.02-38.68,46.03-58.02,69.04c-0.73,0.87-1.42,2.07-2.77,1.34
		c-1.35-0.73-1.82-2.02-1.44-3.58c1.15-4.8,2.29-9.61,3.43-14.42c3.05-12.82,6.1-25.63,9.14-38.45c1.2-5.08-0.35-8.95-4.68-11.8
		c-8.69-5.7-17.39-11.4-26.08-17.1c-2.89-1.89-3.16-4-0.86-6.58C67.41,64.44,87.5,41.82,107.59,19.2c0.29-0.33,0.54-0.76,0.9-0.97
		c0.81-0.45,1.94-1.32,2.47-1.06c0.86,0.42,1.34,1.61,1.86,2.3c-0.32,1.23-0.5,2.03-0.74,2.82c-4.92,16.7-9.86,33.4-14.78,50.1
		c-1.56,5.29-0.09,9.24,4.53,12.29c8.56,5.67,17.13,11.32,25.7,16.98C130.84,103.84,131.14,105.62,128.62,108.61z"/>
</g>
</svg>
