<?xml version="1.0" encoding="utf-8"?>
<!-- Generator: Adobe Illustrator 26.0.2, SVG Export Plug-In . SVG Version: 6.00 Build 0)  -->
<svg version="1.1" id="Layer_1" xmlns="http://www.w3.org/2000/svg" xmlns:xlink="http://www.w3.org/1999/xlink" x="0px" y="0px"
	 viewBox="0 0 200.5 200.5" style="enable-background:new 0 0 200.5 200.5;" xml:space="preserve">
<style type="text/css">
	.st0{fill:#1AD6FF;}
	.st1{fill:#FFFFFF;}
	.st2{fill:#2FD6FD;}
	.st3{fill:none;stroke:#2FD6FD;stroke-width:7;stroke-miterlimit:10;}
	.st4{fill:none;stroke:#FFFFFF;stroke-width:7;stroke-miterlimit:10;}
	.st5{fill:#28396E;stroke:#FFFFFF;stroke-width:7;stroke-miterlimit:10;}
	.st6{fill:#091D5D;}
</style>
<g>
	<path class="st1" d="M95.96,191.25c-3.45-0.47-6.92-0.81-10.34-1.42c-20.98-3.73-38.53-13.66-52.61-29.6
		c-12.85-14.54-20.34-31.57-22.19-50.86c-2.29-23.81,3.79-45.44,18.4-64.43c13.53-17.59,31.22-29,52.98-33.53
		c27.18-5.67,52.11-0.11,74.24,16.67c17.79,13.48,29.01,31.39,33.76,53.23c0.84,3.86,1.16,7.83,1.73,11.75
		c0.09,0.63,0.22,1.26,0.33,1.89c0,3.55,0,7.11,0,10.66c-0.15,1.28-0.29,2.56-0.44,3.84c-2.18,19.58-9.65,36.85-22.85,51.49
		c-14.01,15.55-31.36,25.25-52.01,28.91c-3.42,0.61-6.89,0.95-10.34,1.42C103.06,191.25,99.51,191.25,95.96,191.25z M101.37,15.35
		c-46.71-0.08-84.87,37.99-84.99,84.79c-0.13,46.69,37.92,84.88,84.73,85.05c46.73,0.17,85.04-38.05,85.08-84.88
		C186.23,53.58,148.15,15.43,101.37,15.35z"/>
	<path class="st2" d="M99.07,159.81c-14.61-0.6-28.24-6.95-37.44-21.26c-5.99-9.32-7.28-19.58-5.19-30.39
		c2.57-13.31,8.72-25,16.17-36.1c7.25-10.79,15.74-20.56,25.04-29.62c2.77-2.69,4.19-2.71,6.95,0.01
		c14.09,13.89,26.49,29.05,35.04,47.06c3.85,8.1,6.57,16.57,7.03,25.58c0.87,16.95-8.93,32.72-24.5,39.94
		C115.48,158.13,108.49,159.76,99.07,159.81z M101.15,48.79C89.73,60.56,79.57,72.82,71.8,86.92c-3.81,6.93-6.83,14.17-8.38,21.97
		c-2.42,12.19,0.09,23.04,8.9,32.04c12.17,12.44,32.02,15.55,47.46,7.42c12.04-6.33,19.27-16.11,19.88-29.97
		c0.35-8.06-1.95-15.7-5.12-23.07c-6.16-14.27-15.4-26.47-25.55-38.06C106.51,54.43,103.89,51.74,101.15,48.79z"/>
	<path class="st2" d="M99.77,145.77c-12.98-1.18-23.23-6.52-28.48-19.1c-1.05-2.53-1.35-5.42-1.7-8.19c-0.3-2.4,1.12-4.06,3.18-4.26
		c2-0.2,3.64,1.29,3.73,3.71c0.47,11.58,10.34,18.89,20.22,20.45c1.28,0.2,2.58,0.29,3.88,0.38c2.62,0.18,4.07,1.53,3.95,3.71
		c-0.11,2.07-1.66,3.3-4.16,3.3C100.18,145.77,99.98,145.77,99.77,145.77z"/>
</g>
</svg>
