<?xml version="1.0" encoding="utf-8"?>
<!-- Generator: Adobe Illustrator 26.0.2, SVG Export Plug-In . SVG Version: 6.00 Build 0)  -->
<svg version="1.1" id="Layer_1" xmlns="http://www.w3.org/2000/svg" xmlns:xlink="http://www.w3.org/1999/xlink" x="0px" y="0px"
	 viewBox="0 0 200.81 200.81" style="enable-background:new 0 0 200.81 200.81;" xml:space="preserve">
<style type="text/css">
	.st0{fill:#1AD6FF;}
	.st1{fill:#FFFFFF;}
	.st2{fill:#2FD6FD;}
	.st3{fill:none;stroke:#2FD6FD;stroke-width:7;stroke-miterlimit:10;}
	.st4{fill:none;stroke:#FFFFFF;stroke-width:7;stroke-miterlimit:10;}
	.st5{fill:#28396E;stroke:#FFFFFF;stroke-width:7;stroke-miterlimit:10;}
	.st6{fill:#091D5D;}
</style>
<path class="st3" d="M119.17,115.16l-37.45,37.45c-8.22,8.22-21.55,8.22-29.78,0l-37.45-37.45c-8.22-8.22-8.22-21.55,0-29.78
	l37.45-37.45c8.22-8.22,21.55-8.22,29.78,0l37.45,37.45C127.39,93.61,127.39,106.94,119.17,115.16z"/>
<path class="st4" d="M186.32,115.16l-37.45,37.45c-8.22,8.22-21.55,8.22-29.78,0l-37.45-37.45c-8.22-8.22-8.22-21.55,0-29.78
	l37.45-37.45c8.22-8.22,21.55-8.22,29.78,0l37.45,37.45C194.54,93.61,194.54,106.94,186.32,115.16z"/>
</svg>
