<?xml version="1.0" encoding="utf-8"?>
<!-- Generator: Adobe Illustrator 26.0.2, SVG Export Plug-In . SVG Version: 6.00 Build 0)  -->
<svg version="1.1" id="Layer_1" xmlns="http://www.w3.org/2000/svg" xmlns:xlink="http://www.w3.org/1999/xlink" x="0px" y="0px"
	 viewBox="0 0 200.81 200.81" style="enable-background:new 0 0 200.81 200.81;" xml:space="preserve">
<style type="text/css">
	.st0{fill:#1AD6FF;}
	.st1{fill:#FFFFFF;}
	.st2{fill:#2FD6FD;}
	.st3{fill:none;stroke:#2FD6FD;stroke-width:7;stroke-miterlimit:10;}
	.st4{fill:none;stroke:#FFFFFF;stroke-width:7;stroke-miterlimit:10;}
	.st5{fill:#28396E;stroke:#FFFFFF;stroke-width:7;stroke-miterlimit:10;}
	.st6{fill:#091D5D;}
</style>
<g id="_x30_TghUk.tif">
	<g>
		<path class="st1" d="M61,26.36c6.72,6.73,13.44,13.46,20,20.02c1.56-1.54,3.22-3.18,4.66-4.6c-6.63-6.64-13.35-13.36-20.08-20.1
			C64.12,23.16,62.55,24.77,61,26.36z M75.08,68.32c0-2.43,0-4.67,0-7c-9.61,0-19.12,0-28.71,0c0,2.39,0,4.67,0,7
			C55.99,68.32,65.46,68.32,75.08,68.32z M161.77,61.36c-9.65,0-19.15,0-28.71,0c0,2.38,0,4.61,0,6.93c9.61,0,19.12,0,28.71,0
			C161.77,65.96,161.77,63.73,161.77,61.36z M126.73,46.38c6.76-6.77,13.52-13.53,20.11-20.12c-1.33-1.42-2.87-3.05-4.3-4.57
			c-6.76,6.78-13.49,13.51-20.08,20.11C123.89,43.33,125.46,45.01,126.73,46.38z"/>
		<path class="st1" d="M107.87,6.96c-0.06,0.72-0.17,1.45-0.17,2.17c-0.01,8.13-0.01,16.25-0.01,24.38c0,0.72,0,1.44,0,2.28
			c-2.42,0-4.65,0-7.16,0c0-9.6,0-19.22,0-28.83C102.97,6.96,105.42,6.96,107.87,6.96z"/>
		<path class="st2" d="M118.52,133.33c3.03-2.74,5.63-5.46,8.6-7.69c9.3-7,22.25-7.42,32.09-1.26c3.03,1.9,3.56,5.47,1.19,8.18
			c-0.4,0.46-0.84,0.89-1.28,1.32c-15.57,15.59-31.15,31.17-46.73,46.75c-6.78,6.78-14.71,11.62-24.19,13.37
			c-18.8,3.48-34.43-2.26-46.49-17.09c-6.93-8.52-9.92-18.55-9.89-29.5c0.02-7.35,0.05-14.69-0.01-22.04
			c-0.05-6.14,2.58-10.66,7.86-13.73c10.63-6.16,21.24-12.35,31.88-18.51c5.29-3.07,12.19-2.19,16.65,2.07
			c0.34,0.33,0.69,0.64,1.29,1.18c0.04-0.91,0.1-1.54,0.1-2.18c0.01-9.43,0-18.86,0.01-28.28c0-4.61,1.32-8.71,4.89-11.81
			c4.53-3.93,9.74-4.86,15.21-2.53c5.48,2.33,8.34,6.77,8.79,12.72c0.06,0.73,0.04,1.47,0.04,2.2c0,21.55,0,43.1,0,64.65
			C118.52,131.81,118.52,132.46,118.52,133.33z M96.85,116.79c-0.69-0.78-1.09-1.21-1.47-1.67c-3.48-4.26-6.97-8.53-10.44-12.8
			c-3.51-4.32-6.36-4.88-11.14-2.1c-10.05,5.83-20.06,11.72-30.14,17.49c-3.2,1.83-4.7,4.36-4.64,8.06
			c0.11,7.22,0.04,14.45,0.03,21.67c-0.01,5.25,0.85,10.32,2.72,15.25c5.39,14.23,19.83,24.57,34.96,25.07
			c11.86,0.39,21.9-3.68,30.26-12.02c14.99-14.96,29.97-29.92,44.95-44.89c0.43-0.43,0.84-0.87,1.33-1.38
			c-0.41-0.22-0.71-0.41-1.04-0.55c-7.82-3.38-17.07-1.52-23.55,4.78c-2.98,2.9-5.88,5.89-8.83,8.82c-1.76,1.74-2.82,1.88-4.88,0.71
			c-2.91-1.65-3.69-4.35-3.69-7.46c0.01-18.18,0-36.36,0-54.54c0-5.2,0.1-10.41-0.06-15.61c-0.05-1.64-0.47-3.44-1.28-4.84
			c-1.56-2.7-4.92-3.73-7.85-2.85c-3.17,0.96-5.17,3.54-5.21,6.97c-0.06,5.82-0.02,11.63-0.02,17.45
			C96.85,93.66,96.85,104.99,96.85,116.79z"/>
		<path class="st1" d="M61,26.36c1.55-1.58,3.12-3.19,4.57-4.67c6.73,6.73,13.45,13.46,20.08,20.1c-1.44,1.42-3.1,3.06-4.66,4.6
			C74.44,39.82,67.72,33.09,61,26.36z"/>
		<path class="st1" d="M75.08,68.32c-9.63,0-19.1,0-28.71,0c0-2.34,0-4.62,0-7c9.59,0,19.1,0,28.71,0
			C75.08,63.65,75.08,65.89,75.08,68.32z"/>
		<path class="st1" d="M161.77,61.36c0,2.37,0,4.6,0,6.93c-9.6,0-19.1,0-28.71,0c0-2.32,0-4.55,0-6.93
			C142.62,61.36,152.12,61.36,161.77,61.36z"/>
		<path class="st1" d="M126.73,46.38c-1.28-1.37-2.85-3.05-4.27-4.58c6.59-6.6,13.31-13.34,20.08-20.11
			c1.43,1.52,2.97,3.15,4.3,4.57C140.25,32.85,133.5,39.61,126.73,46.38z"/>
	</g>
</g>
</svg>
