<?xml version="1.0" encoding="utf-8"?>
<!-- Generator: Adobe Illustrator 26.0.2, SVG Export Plug-In . SVG Version: 6.00 Build 0)  -->
<svg version="1.1" id="Layer_1" xmlns="http://www.w3.org/2000/svg" xmlns:xlink="http://www.w3.org/1999/xlink" x="0px" y="0px"
	 viewBox="0 0 200.81 200.81" style="enable-background:new 0 0 200.81 200.81;" xml:space="preserve">
<style type="text/css">
	.st0{fill:#1AD6FF;}
	.st1{fill:#FFFFFF;}
	.st2{fill:#2FD6FD;}
	.st3{fill:none;stroke:#2FD6FD;stroke-width:7;stroke-miterlimit:10;}
	.st4{fill:none;stroke:#FFFFFF;stroke-width:7;stroke-miterlimit:10;}
	.st5{fill:#28396E;stroke:#FFFFFF;stroke-width:7;stroke-miterlimit:10;}
	.st6{fill:#091D5D;}
</style>
<g>
	<path class="st2" d="M83.73,197.68c-1.63-0.47-3.3-0.83-4.88-1.43c-4.98-1.9-16.49-13.43-18.41-18.38
		c-2.17-5.59-1.89-11.28,0.04-16.77c5.96-16.93,17.45-28.24,34.83-33.18c5.03-1.43,10.17-1.31,15.1,0.79
		c4.46,1.9,15.76,13.22,17.62,17.69c2.33,5.6,2.17,11.37,0.23,16.94c-6.09,17.53-17.96,29.03-36.08,33.79
		c-0.79,0.21-1.58,0.37-2.37,0.56C87.79,197.68,85.76,197.68,83.73,197.68z M110.4,135.6c0.03-0.14,0.06-0.28,0.08-0.42
		c-0.95-0.48-1.86-1.05-2.85-1.41c-3.83-1.43-7.77-1.29-11.59-0.18c-13.15,3.82-22.32,12.37-28.32,24.46
		c-2.37,4.78-3.71,9.89-2.61,15.28c0.37,1.81,1.27,3.51,1.92,5.26c0.16-0.07,0.33-0.14,0.49-0.21c0.27-1.93,0.37-3.89,0.83-5.77
		c3.45-14.22,12.27-24.32,24.55-31.72c1.96-1.18,3.55-0.88,4.48,0.66c0.95,1.58,0.35,3.14-1.73,4.33
		c-6.28,3.58-11.45,8.39-15.56,14.3c-4.1,5.88-6.91,12.24-6.66,19.62c0.21,6.32,4,10.95,10.23,11.81c2.7,0.37,5.61,0.24,8.27-0.35
		c9.22-2.02,16.44-7.39,22.47-14.43c5.22-6.09,8.86-12.93,9.51-21.12c0.55-6.92-3.16-12.58-9.5-13.82
		c-2.31-0.45-4.78-0.21-7.17-0.18c-1.93,0.02-3.24-0.89-3.39-2.55c-0.16-1.71,0.9-2.9,2.81-3.15
		C107.91,135.85,109.16,135.74,110.4,135.6z"/>
	<path class="st1" d="M144.46,126.25c-8.56-0.22-16-3.53-22.71-8.6c-9.35-7.07-16.25-15.93-19.16-27.51c-1-3.98-1.21-8-0.26-12.05
		c0.78-3.29,2.29-6.16,4.67-8.56c2.32-2.34,4.77-4.57,6.97-7.02c5.85-6.51,13.15-7.96,21.31-6.19c11.98,2.6,21.03,9.67,28.34,19.19
		c4.62,6.03,7.79,12.74,8.59,20.4c0.7,6.67-0.9,12.55-5.88,17.32c-2.34,2.23-4.64,4.51-6.85,6.86
		C155.38,124.41,150.36,126.35,144.46,126.25z M130.71,61.4c-9.62-0.04-14.77,5-14.55,13.56c0.07,2.62,0.58,5.31,1.39,7.8
		c2.92,8.98,8.67,15.95,16.1,21.58c5.44,4.13,11.46,6.92,18.37,7.56c7.02,0.65,12.87-2.97,14.1-9.33c0.54-2.78,0.51-5.86-0.07-8.64
		c-2.22-10.63-8.61-18.59-17.05-25.03C143.3,64.56,136.97,61.7,130.71,61.4z M153.47,117.75c-11.92-0.68-21.24-6.06-29.19-14.02
		c-7.99-7.99-13.38-17.35-14.17-29c-0.69,1-1.27,1.97-1.66,3c-1.48,3.9-1.21,7.87-0.11,11.77c3.1,11.02,10.06,19.17,19.45,25.36
		c5.71,3.76,11.93,6.15,18.96,5.54C149.07,120.2,151.27,119.54,153.47,117.75z"/>
	<path class="st2" d="M63.19,73.41c-5.8,0.02-10.78-1.89-14.82-6.16c-2-2.12-4.03-4.22-6.19-6.18c-6.28-5.7-7.81-12.82-6.16-20.8
		c2.51-12.16,9.64-21.31,19.24-28.72c5.86-4.52,12.4-7.62,19.83-8.54c6.93-0.86,13.08,0.68,18.03,5.93
		c2.04,2.17,4.12,4.31,6.33,6.31c6.05,5.5,7.6,12.41,6.14,20.1c-2.38,12.48-9.62,21.87-19.5,29.4c-6.41,4.89-13.55,8.15-21.76,8.6
		C63.95,73.37,63.57,73.39,63.19,73.41z M97.67,21.7c-0.36,2.31-0.54,4.27-0.99,6.17c-0.36,1.49-1.57,2.15-3.07,1.91
		c-1.5-0.24-2.35-1.22-2.34-2.77c0.01-0.88,0.17-1.76,0.3-2.64c1.09-7.53-2.28-13.63-8.76-15.23C80.53,8.57,78,8.44,75.66,8.75
		c-9.28,1.23-16.66,6.13-23,12.72c-6.07,6.31-10.42,13.55-11.42,22.46c-1.08,9.59,5.44,16.1,15.01,15.06
		c5.14-0.56,9.84-2.33,14.22-5.01c6.38-3.9,11.58-9.02,15.63-15.31c1.52-2.36,2.96-2.97,4.59-1.96c1.69,1.04,1.76,2.68,0.17,5.11
		c-0.8,1.22-1.6,2.44-2.51,3.58c-7.47,9.4-16.57,16.35-28.58,18.85c-1.67,0.35-3.39,0.48-5.43,0.75c4.14,2.87,8.39,3.11,12.71,2.3
		c9.59-1.79,17.09-7.15,23.4-14.3c5.34-6.07,9.15-12.93,9.84-21.18C100.57,28.27,99.96,24.91,97.67,21.7z"/>
	<path class="st1" d="M91.68,182.01c-0.36-0.06-1.08-0.08-1.72-0.31c-1.08-0.39-1.96-0.35-2.96,0.38c-1.1,0.79-2.54,0.59-3.21-0.52
		c-0.54-0.88-0.86-2.41-0.44-3.23c0.55-1.09,0.54-1.9,0.28-2.97c-0.79-3.2,0.12-6.02,2.22-8.47c1.23-1.44,2.94-1.67,4.2-0.66
		c1.27,1.02,1.35,2.65,0.24,4.23c-0.4,0.57-1,1.19-1,1.79c0,1.06,0.07,2.45,0.72,3.09c0.64,0.64,2.11,0.9,3.06,0.68
		c2.62-0.6,4.07-3.46,3.44-6.32c-0.47-2.16-1.17-4.29-1.47-6.47c-0.98-7.16,5.95-13.22,12.96-11.48c0.57,0.14,1.35,0.02,1.86-0.28
		c1.32-0.79,2.56-0.84,3.66,0.21c1.17,1.11,1.16,2.39,0.37,3.8c-0.31,0.56-0.4,1.4-0.25,2.04c0.76,3.4,0.1,6.42-2.23,9.03
		c-1.25,1.4-2.99,1.58-4.21,0.51c-1.22-1.06-1.31-2.55-0.23-4.08c0.29-0.41,0.82-0.83,0.82-1.24c0-1.25,0.17-2.72-0.42-3.68
		c-0.81-1.34-2.4-1.19-3.78-0.55c-2.01,0.94-3.27,3.27-2.85,5.52c0.39,2.11,1.09,4.17,1.47,6.28
		C103.35,175.67,98.21,182.02,91.68,182.01z"/>
	<path class="st2" d="M156.66,93.58c-0.06,0.47-0.06,1.19-0.28,1.84c-0.35,1.02-0.4,1.82,0.34,2.79c0.87,1.15,0.55,2.45-0.47,3.44
		c-0.96,0.93-2.22,1.2-3.3,0.38c-0.95-0.72-1.71-0.62-2.77-0.37c-3.24,0.77-6.16-0.03-8.66-2.24c-1.41-1.24-1.6-2.97-0.55-4.21
		c1.06-1.25,2.53-1.35,4.07-0.27c2.33,1.63,4.23,1.67,5.36,0.11c1.2-1.66,0.45-3.97-1.74-5.52c-1.68-1.2-3.46-0.9-5.29-0.49
		c-2.15,0.49-4.31,1.09-6.5,1.28c-5.62,0.49-12.64-5.84-10.39-13.1c0.16-0.53-0.09-1.3-0.38-1.83c-0.74-1.33-0.76-2.56,0.33-3.65
		c1.09-1.09,2.3-1.04,3.66-0.36c0.63,0.31,1.51,0.46,2.18,0.29c3.36-0.81,6.28,0,8.88,2.16c1.44,1.2,1.68,2.94,0.69,4.21
		c-1,1.27-2.67,1.36-4.23,0.27c-0.57-0.39-1.19-0.99-1.78-1c-1.06-0.01-2.44,0.04-3.09,0.67c-0.65,0.63-0.93,2.1-0.72,3.06
		c0.6,2.68,3.5,4.1,6.5,3.44c2.28-0.5,4.54-1.27,6.85-1.48C151.2,82.46,156.74,87.65,156.66,93.58z"/>
	<path class="st1" d="M73.12,18.4c0.62,0.1,1.26,0.15,1.87,0.31c1.1,0.29,2.05,0.56,3.15-0.33c1.04-0.84,2.32-0.46,3.26,0.5
		c0.95,0.97,1.21,2.2,0.41,3.29c-0.69,0.95-0.66,1.74-0.38,2.78c0.86,3.19-0.03,6.02-2.08,8.51c-1.26,1.53-3.06,1.81-4.34,0.76
		c-1.26-1.03-1.3-2.62-0.2-4.24c0.46-0.67,0.93-1.39,1.12-2.16c0.55-2.21-1.36-4.05-3.59-3.56c-2.06,0.45-3.99,2.66-3.85,4.83
		c0.11,1.68,0.58,3.36,1.02,4.99c1.21,4.4,0.78,8.43-2.56,11.82c-2.65,2.69-5.8,3.69-9.55,2.91c-0.74-0.15-1.67,0-2.37,0.33
		c-1.31,0.62-2.48,0.61-3.5-0.38c-1.09-1.06-1.13-2.28-0.42-3.65c0.32-0.63,0.48-1.51,0.33-2.19c-0.73-3.34-0.05-6.29,2.14-8.89
		c1.22-1.44,2.94-1.7,4.2-0.72c1.33,1.04,1.44,2.6,0.33,4.21c-0.42,0.62-1.03,1.29-1.05,1.96c-0.04,0.99,0.06,2.34,0.67,2.91
		c0.69,0.64,2.08,0.91,3.06,0.74c2.1-0.37,3.78-2.74,3.58-4.97c-0.15-1.62-0.63-3.22-1.05-4.81c-1.48-5.54-0.17-10.08,4.14-12.97
		c1.62-1.09,3.64-1.58,5.48-2.35C73,18.16,73.06,18.28,73.12,18.4z"/>
</g>
</svg>
