<svg xmlns="http://www.w3.org/2000/svg" viewBox="0 0 32 32" id="eos"><path d="M15.616.544c0 .018-.027.032-.06.032s-.087.036-.12.08c-.033.044-.078.08-.1.08s-.04.015-.04.033c0 .018-.036.069-.08.113s-.08.096-.08.115c0 .019-.025.058-.056.087a.76.76 0 00-.158.227c-.012.026-.055.077-.096.113s-.074.08-.074.099c0 .019-.05.086-.112.149s-.112.145-.112.181c0 .036-.015.066-.034.066-.044 0-.126.081-.126.126 0 .019-.014.034-.032.034s-.032.029-.032.064c0 .036-.021.064-.048.064s-.048.022-.048.048-.014.048-.032.048c-.018 0-.032.027-.032.06s-.036.087-.08.12c-.044.033-.08.07-.08.083s-.036.062-.08.109c-.044.047-.08.102-.08.122s-.036.063-.08.096-.08.087-.08.12-.014.06-.032.06-.032.024-.032.054c0 .042.009.046.038.016.095-.095.079-.023-.029.126-.065.091-.123.15-.129.131s-.037-.026-.07-.018c-.065.017-.153.158-.12.191.012.012.021.001.021-.024 0-.054.118-.135.141-.098.018.03-.54.782-.595.801-.023.008-.03-.018-.02-.072.022-.113.006-.106-.057.028-.029.062-.066.112-.082.112s-.028.016-.028.035c0 .019.022.027.048.017.066-.025.06.023-.01.087-.073.066-.114.068-.09.005.01-.026.004-.048-.013-.048s-.031.029-.031.064-.014.064-.032.064-.032.022-.032.048-.022.048-.048.048c-.027 0-.048.029-.048.066 0 .036-.05.114-.112.172s-.112.12-.112.138c0 .018-.05.087-.112.154s-.112.148-.112.18-.022.058-.048.058-.048.015-.048.033c0 .018-.036.072-.08.12s-.08.101-.08.119-.036.06-.08.093c-.044.033-.08.087-.08.12s-.014.06-.032.06c-.018 0-.032.015-.032.034 0 .044-.081.126-.126.126-.019 0-.034.03-.034.066s-.05.114-.112.172c-.062.058-.112.136-.112.174s-.015.068-.034.068c-.05 0-.107.066-.159.184-.025.057-.064.104-.086.104s-.04.022-.04.048-.014.048-.032.048c-.018 0-.032.022-.032.05s-.036.083-.08.124-.08.089-.08.107c0 .018-.022.041-.048.051s-.048.042-.048.07-.05.101-.112.16c-.062.06-.112.131-.112.157s-.014.049-.032.049c-.018 0-.032.022-.032.048s-.022.048-.048.048c-.027 0-.048.029-.048.066 0 .069-.069.158-.122.158-.017 0-.065.072-.106.159s-.087.16-.102.16c-.05.001-.118.092-.118.158 0 .036-.015.066-.034.066-.043 0-.126.081-.126.122 0 .017-.022.039-.048.049s-.048.041-.048.07c0 .028-.053.101-.117.161s-.111.117-.103.124c.008.008.061-.03.118-.083.231-.216.159-.056-.163.358a1.177 1.177 0 00-.149.242c-.05.114-.098.121-.098.013 0-.066.016-.098.048-.098.026 0 .048-.015.048-.033 0-.022-.023-.021-.068.003-.059.031-.066.058-.053.195.012.125.006.155-.028.142-.031-.012-.043.012-.043.081 0 .054-.022.119-.048.145s-.048.104-.048.172c0 .068-.014.133-.032.144s-.032.083-.032.16-.014.149-.032.16-.032.098-.032.194c0 .133-.011.174-.048.174-.062 0-.07.339-.008.36.03.01.023.063-.028.217-.071.215-.14.286-.14.145 0-.052.018-.083.048-.083.035 0 .047-.033.043-.12-.004-.109-.006-.111-.019-.024-.008.053-.034.108-.059.122-.03.017-.045.083-.045.2 0 .096-.014.174-.032.174s-.032.063-.032.14c0 .086-.019.156-.048.18s-.048.094-.048.18c0 .077-.014.14-.032.14s-.032.072-.032.16c0 .088-.014.16-.032.16s-.032.065-.032.145c0 .099-.015.151-.048.163s-.048.064-.048.159c0 .077-.014.141-.032.141s-.032.013-.032.029.029.021.064.012c.068-.018.078.015.044.143-.023.086-.065.094-.086.016-.008-.031-.016-.004-.018.061-.002.071-.022.124-.052.135-.033.013-.048.064-.048.163 0 .08-.014.145-.032.145s-.032.07-.032.157c0 .105-.015.162-.045.174-.026.01-.052.083-.063.171-.038.324-.06.443-.088.473-.016.017-.029.098-.029.181 0 .104-.015.156-.048.169s-.048.064-.048.163c0 .08-.014.145-.032.145s-.032.07-.032.157c0 .11-.014.162-.048.175-.035.013-.048.068-.048.195 0 .097-.014.177-.032.177s-.032.072-.032.16c0 .121-.012.16-.048.16s-.048.039-.048.16c0 .088-.014.16-.032.16s-.032.063-.032.141c0 .101-.015.146-.053.161-.044.017-.049.053-.033.229.013.14.009.202-.014.188-.018-.011-.025-.041-.016-.065s.003-.045-.014-.045-.031.078-.031.174-.014.183-.032.194c-.018.011-.032.091-.032.178 0 .119-.012.158-.048.158s-.048.039-.048.16c0 .088-.014.16-.032.16s-.032.063-.032.141c0 .095-.015.146-.048.159s-.048.064-.048.163c0 .08-.014.145-.032.145s-.032.013-.032.029.029.021.064.012c.053-.014.064-.001.064.075-.001.135-.047.196-.091.12-.033-.057-.035-.057-.036-.002a.185.185 0 01-.049.106c-.03.03-.048.108-.048.206 0 .087-.014.158-.032.158s-.032.072-.032.16c0 .088-.014.16-.032.16s-.032.065-.032.145c0 .099-.015.151-.048.163-.035.014-.048.069-.048.207 0 .104-.014.189-.032.189s-.032.065-.032.144c0 .107-.012.144-.048.144s-.048.039-.048.16c0 .088-.014.16-.032.16s-.032.013-.032.029.029.021.064.012c.076-.02.089.058.019.116-.034.029-.049.028-.062-.004-.009-.023-.018.004-.019.059-.002.058-.023.108-.051.119-.033.013-.048.064-.048.162 0 .079-.014.152-.032.163s-.032.083-.032.16-.014.149-.032.16-.032.089-.032.174c0 .108-.014.16-.048.173s-.048.064-.048.163c0 .08-.014.145-.032.145s-.032.072-.032.16c0 .121-.012.16-.048.16-.037 0-.048.043-.048.192 0 .107-.014.192-.032.192-.019 0-.032.139-.032.352s.013.352.032.352c.018 0 .032.036.032.08s.015.08.034.08c.044 0 .126.081.126.126 0 .019.032.034.072.033.068-.001.069-.004.014-.045-.037-.028-.045-.052-.024-.065.019-.012.034-.009.034.005s.032.04.072.058.077.064.082.104c.006.04.024.072.04.072s.03.022.03.048c0 .03.03.048.08.048.044 0 .08.014.08.032s.036.032.08.032c.044 0 .08.015.08.034 0 .056.087.126.158.126.036 0 .066.015.066.034 0 .054.093.132.136.115.031-.013.031-.017 0-.019-.068-.004-.044-.067.026-.067.1 0 .197.063.177.114-.01.025-.004.046.014.046s.031.016.031.036c0 .049.099.121.168.122.031.001.056.023.056.049s.022.048.048.048c.061 0 .184.068.217.12.014.022.048.04.076.04s.076.029.107.064l.056.064.018-.068c.017-.066.019-.067.116-.01.1.059.14.163.05.129-.026-.01-.048-.004-.048.013s.033.031.072.031c.04 0 .099.036.132.08s.087.08.12.08.06.014.06.032c0 .018.036.032.08.032s.08.016.08.036c0 .049.099.121.168.122.031.001.056.015.056.033s.021.032.047.032c.03 0 .04-.019.027-.051-.016-.042-.009-.045.041-.018a.804.804 0 00.119.051c.081.025.036.082-.068.086-.066.003-.071.007-.022.019.035.008.078.028.094.044s.056.029.088.029.058.022.058.048c0 .03.03.048.08.048.044 0 .08.014.08.032s.022.032.048.032c.026 0 .048.022.048.048s.028.048.064.048c.035 0 .064.014.064.032s.022.032.048.032c.026 0 .048.014.048.031s.036.04.08.052.08.033.08.049.015.029.034.029c.02 0 .025-.028.013-.068-.016-.049-.01-.064.022-.053.025.009.04.05.034.1-.007.065.005.085.053.085.034 0 .07.022.08.048s.048.048.083.048c.036 0 .065.014.065.032s.015.032.034.032c.019 0 .054.018.079.04.114.102.144.12.205.12.036 0 .065.014.065.03s.05.054.112.084c.062.029.112.066.112.082s.015.028.033.028c.023 0 .023-.019 0-.062-.029-.054-.024-.06.035-.049.095.018.114.045.059.08-.032.02-.034.03-.007.03.022 0 .04.022.04.048s.022.048.048.048c.026 0 .048.014.048.032s.036.032.08.032c.05 0 .08.018.08.048 0 .027.028.048.064.048s.064.014.064.032.02.032.045.032c.025 0 .053.022.063.048s.044.048.076.048.079.029.104.064c.051.071.1.085.088.025-.004-.022.024-.044.064-.05s.072.003.072.02.029.038.064.047c.095.025.08.097-.016.079-.044-.008-.08-.003-.08.012s.036.028.08.028.08.014.08.032c0 .018.036.032.08.032s.08.015.08.034c0 .056.087.126.158.126.038 0 .066.021.066.048s.022.048.048.048.048.014.048.032c0 .018.029.032.064.032s.064.014.064.032c0 .018.02.032.044.032s.062.022.084.048c.022.026.07.047.108.046.067-.002.067-.003-.004-.037-.069-.033-.099-.089-.047-.089s.167.101.167.146c0 .025.014.046.032.046s.032.019.032.042c0 .023.05.062.112.086s.112.063.112.086c0 .023.035.042.08.042s.08.014.08.032.036.032.08.032.08.015.08.034c0 .083.099.133.222.114.091-.015.128-.008.141.027.012.032.002.04-.032.027-.036-.014-.046-.002-.038.042.006.034.043.065.083.071s.072.024.072.04.036.03.08.03c.044 0 .08.016.08.036 0 .049.099.121.168.122.031.001.056.014.056.031 0 .077.272.16.298.09.011-.029.03-.025.074.016.057.054.057.056-.004.059-.035.001-.045.01-.023.019s.04.037.04.061c0 .027.032.045.08.045.044 0 .08.014.08.032s.022.032.048.032c.026 0 .048.022.048.048s.029.048.065.048c.036 0 .101.036.145.08s.101.08.127.08c.026 0 .047.014.047.032s.033.032.072.032c.04 0 .099.036.132.08s.087.08.12.08.06.014.06.032c0 .018.036.032.08.032.05 0 .08.018.08.048 0 .04.06.048.352.048s.352-.008.352-.048c0-.03.03-.048.08-.048.044 0 .08-.014.08-.032s.029-.032.064-.032c.036 0 .064-.021.064-.048s.022-.048.048-.048.048-.014.048-.032c0-.018.036-.032.08-.032s.08-.014.08-.032c0-.018.018-.032.04-.032s.079-.036.127-.08c.047-.044.116-.08.152-.08s.067-.022.069-.048c.002-.026.008-.062.012-.08s.01-.044.012-.059c.007-.044.159-.101.22-.081.042.014.046.011.013-.013-.041-.029.102-.167.173-.167.013 0 .071-.036.129-.08s.119-.08.136-.08.038-.018.046-.04c.008-.022.026-.03.039-.017s.007.045-.016.072c-.034.041-.03.049.027.049.039 0 .068-.02.068-.048 0-.03.03-.048.08-.048.044 0 .08-.014.08-.032s.029-.032.064-.032c.036 0 .064-.021.064-.048s.022-.048.048-.048.048-.014.048-.032c0-.018.03-.032.066-.032.071 0 .158-.069.158-.126 0-.019.036-.034.08-.034s.08-.014.08-.032c0-.018.029-.032.065-.032s.073-.021.083-.047.067-.065.127-.086c.06-.022.109-.058.109-.081s.03-.042.066-.042c.071 0 .158-.069.158-.126 0-.019.036-.034.08-.034s.08-.014.08-.032c0-.018.031-.032.068-.032s.102-.036.142-.08c.041-.044.093-.08.116-.081.057-.001.154-.078.154-.122 0-.02.036-.036.08-.036s.08-.014.08-.032c0-.018.029-.032.065-.032s.072-.019.081-.043c.009-.023.066-.062.127-.086s.111-.055.111-.069.021-.026.047-.026.083-.036.127-.08.109-.08.145-.08c.037 0 .065-.021.065-.048s.014-.048.032-.048.032-.015.032-.034c0-.036.078-.126.11-.126.01 0-.005.036-.033.08s-.042.08-.03.08c.034 0 .113-.088.113-.126 0-.019.025-.035.056-.037.051-.002.051-.004-.002-.025s-.05-.028.024-.067c.045-.024.082-.056.082-.071s.023-.027.05-.027a.167.167 0 00.1-.05c.08-.08.087-.027.011.08-.084.118-.053.129.05.017.043-.046.066-.101.056-.13-.013-.033.004-.056.049-.067.038-.01.068-.03.068-.046s.02-.028.044-.028.062-.021.084-.048c.047-.057.101-.034.076.033-.01.026-.002.047.017.047s.035-.014.035-.032.022-.032.05-.032c.027 0 .083-.036.124-.08s.105-.08.142-.08c.038 0 .068-.014.068-.032s.021-.032.047-.032.083-.036.127-.08.109-.08.145-.08c.037 0 .065-.021.065-.048s.022-.048.048-.048.048-.014.048-.032c0-.018.029-.032.064-.032s.064-.021.064-.048c0-.03.03-.048.08-.048.044 0 .08-.014.08-.032s.022-.032.049-.032c.027 0 .057-.022.067-.048s.046-.048.079-.048.061-.014.061-.032.029-.032.064-.032.064-.014.064-.032.022-.032.048-.032a.049.049 0 00.048-.048c0-.03.03-.048.08-.048.044 0 .08-.014.08-.032s.029-.032.064-.032c.036 0 .064-.021.064-.048s.022-.048.048-.048.048-.014.048-.032c0-.018.036-.032.08-.032s.08-.015.08-.034c0-.056.087-.126.158-.126.036 0 .066-.014.066-.032s.029-.032.065-.032c.036 0 .072-.019.081-.043s.066-.062.127-.086c.061-.024.111-.062.111-.085s.035-.042.08-.042c.044 0 .08-.014.08-.032s.02-.032.045-.032c.04 0 .089-.07.097-.136.002-.013.017-.023.035-.021s.028.016.024.032.008.029.027.029c.021 0 .028-.03.017-.072-.014-.056.003-.084.075-.126.113-.065.152-.008.051.076-.037.031-.049.056-.026.057s.04-.013.04-.031.022-.032.048-.032c.026 0 .048-.022.048-.048s.016-.048.036-.048c.025 0 .024-.015-.004-.048-.032-.039-.029-.052.02-.069a.877.877 0 00.166-.1c.111-.082.173-.077.102.008-.056.067-.02.096.042.034.027-.027.079-.05.116-.05s.066-.018.066-.04c0-.022.047-.061.104-.086.139-.061.344-.271.344-.353 0-.037.021-.065.048-.065.04 0 .048-.061.048-.353 0-.284-.009-.357-.048-.371-.034-.013-.048-.067-.048-.191 0-.095-.014-.173-.032-.173s-.032-.072-.032-.16c0-.088-.014-.16-.032-.16s-.032-.065-.032-.145c0-.099-.015-.151-.048-.163s-.048-.064-.048-.159c0-.077-.014-.141-.032-.141s-.032-.072-.032-.16c0-.121-.012-.16-.048-.16-.037 0-.048-.043-.048-.192 0-.107-.014-.192-.032-.192s-.032-.072-.032-.16c0-.121-.012-.16-.048-.16s-.048-.039-.048-.16c0-.088-.014-.16-.032-.16s-.032-.071-.032-.158c0-.087-.014-.167-.032-.178s-.032-.082-.032-.158c0-.084-.019-.154-.048-.178s-.048-.094-.048-.18c0-.077-.014-.14-.032-.14s-.032-.072-.032-.16c0-.121-.012-.16-.048-.16s-.048-.039-.048-.16c0-.088-.014-.16-.032-.16s-.032-.08-.032-.177c0-.128-.013-.182-.048-.195-.032-.012-.048-.063-.048-.157 0-.076-.014-.148-.032-.158s-.032-.084-.032-.162-.014-.142-.032-.142-.032-.065-.032-.145c0-.099-.015-.151-.048-.163-.03-.012-.048-.061-.048-.135 0-.088-.008-.105-.032-.069-.028.043-.035.043-.063 0-.041-.063-.041-.16 0-.16.051 0 .038-.244-.016-.288-.03-.025-.048-.096-.048-.194 0-.085-.014-.163-.032-.174s-.032-.084-.032-.162c0-.105-.013-.142-.048-.142-.034 0-.048-.035-.049-.12-.001-.105-.006-.112-.037-.057-.036.062-.036.062-.059 0-.026-.072.024-.151.077-.122.021.012.02.003-.004-.023-.022-.024-.04-.104-.04-.179s-.014-.145-.032-.156c-.018-.011-.032-.083-.032-.16 0-.082-.02-.16-.048-.188s-.048-.107-.048-.194c0-.08-.014-.146-.032-.146s-.032-.065-.032-.145c0-.099-.015-.151-.048-.163s-.048-.064-.048-.159c0-.077-.014-.141-.032-.141s-.032-.072-.032-.16c0-.121-.012-.16-.048-.16-.037 0-.048-.043-.048-.192 0-.107-.014-.192-.032-.192s-.032-.072-.032-.16c0-.121-.012-.16-.048-.16s-.048-.039-.048-.16c0-.088-.013-.16-.029-.16s-.037-.068-.047-.152c-.027-.233-.075-.509-.08-.464-.002.022-.024.04-.047.04-.058 0-.133-.235-.098-.31.021-.045.03-.026.038.078.006.075.021.136.033.136s.017-.072.011-.16c-.006-.088-.024-.16-.04-.16s-.029-.072-.029-.16c0-.121-.012-.16-.048-.16s-.048-.039-.048-.16c0-.088-.014-.16-.032-.16s-.032-.08-.032-.177c0-.128-.013-.182-.048-.195-.032-.012-.048-.063-.048-.157 0-.076-.014-.148-.032-.158s-.032-.084-.032-.162-.014-.142-.032-.142-.032-.065-.032-.145c0-.099-.015-.151-.048-.163-.028-.011-.048-.058-.048-.113 0-.061-.013-.087-.036-.072-.041.025-.091-.041-.092-.122-.001-.064.082-.076.106-.016.01.024.017.017.019-.016.001-.031-.012-.056-.029-.056s-.032-.051-.032-.113c0-.071-.018-.12-.048-.131-.035-.014-.048-.069-.048-.207 0-.104-.014-.189-.032-.189s-.032-.065-.032-.144c0-.107-.012-.144-.048-.144-.03 0-.049-.032-.051-.088-.001-.048-.01-.07-.019-.048-.026.065-.067.046-.117-.054-.04-.08-.04-.096-.002-.111.025-.009.044.002.044.026s.022.052.048.062c.026.01.048.004.048-.013s-.014-.031-.032-.031-.032-.02-.032-.043c0-.024-.036-.082-.08-.13s-.08-.094-.08-.103c0-.03-.091-.108-.126-.108-.019 0-.034-.03-.034-.066 0-.071-.069-.158-.126-.158-.019 0-.034-.029-.034-.064 0-.064-.062-.156-.168-.252-.031-.028-.056-.07-.056-.094 0-.048-.076-.135-.118-.135-.015 0-.047-.047-.072-.104-.048-.11-.204-.28-.258-.28-.018 0-.032-.036-.032-.08s-.014-.08-.032-.08c-.018 0-.032-.022-.032-.048s-.014-.048-.032-.048c-.018 0-.032-.024-.032-.053 0-.056-.17-.235-.224-.235-.018 0-.032-.036-.032-.08s-.014-.08-.032-.08c-.018 0-.032-.022-.032-.048s-.018-.048-.04-.048c-.022 0-.061-.047-.085-.104-.054-.125-.187-.257-.231-.229-.018.011-.007.038.026.064.032.024.041.044.02.045-.067.002-.138-.13-.104-.194.04-.075.039-.125-.004-.125-.056 0-.126-.087-.126-.158 0-.038-.021-.066-.048-.066s-.048-.018-.048-.041c0-.022-.029-.062-.064-.087s-.064-.07-.064-.099c0-.029-.036-.08-.08-.113s-.08-.085-.08-.115-.012-.062-.027-.071-.021.019-.012.062c.021.108-.066.105-.116-.003-.039-.086-.022-.156.03-.124.016.01.03.009.03-.002 0-.031-.088-.112-.122-.112-.017 0-.049-.047-.072-.104s-.075-.136-.116-.174c-.041-.039-.074-.093-.074-.12s-.014-.05-.032-.05-.032-.022-.032-.048-.022-.048-.048-.048-.048-.025-.049-.056c-.001-.06-.071-.168-.108-.168-.012 0 .003.043.034.095.069.118.034.165-.054.071-.045-.048-.058-.093-.044-.149.02-.08-.041-.178-.112-.178-.019 0-.034-.036-.034-.08s-.014-.08-.032-.08c-.018 0-.032-.015-.032-.034s-.018-.054-.04-.079c-.087-.097-.12-.141-.12-.16 0-.031-.088-.111-.123-.111-.017 0-.039-.018-.048-.04s-.017-.013-.019.02c-.002.052-.012.048-.07-.025-.044-.056-.059-.104-.043-.14.023-.052.025-.052.037.001.007.031.035.056.061.056.029 0 .005-.044-.066-.117-.062-.064-.114-.137-.114-.162 0-.053-.077-.137-.126-.137-.019 0-.034-.022-.034-.048s-.014-.048-.032-.048c-.018 0-.032-.027-.032-.06s-.036-.087-.08-.12c-.044-.033-.08-.093-.08-.132 0-.048-.019-.072-.056-.072-.045 0-.047.006-.011.029.028.018.036.05.022.088-.021.054-.031.05-.105-.035-.049-.056-.067-.099-.046-.107.045-.015.048-.135.004-.135-.018 0-.032-.018-.032-.04s-.058-.105-.128-.184-.127-.162-.128-.184-.015-.04-.032-.04-.032-.022-.032-.048c0-.026-.022-.048-.048-.048s-.048-.014-.048-.031-.021-.023-.047-.013c-.056.022-.127-.043-.16-.146-.027-.084.005-.074.142.042.099.084.035-.013-.087-.131-.04-.039-.072-.093-.072-.12s-.014-.05-.032-.05-.032-.022-.032-.048-.015-.048-.034-.048c-.051 0-.126-.084-.126-.143 0-.028-.022-.06-.048-.07s-.048-.031-.048-.047c0-.064-.142-.189-.195-.172-.035.011-.074-.009-.106-.056-.03-.043-.038-.078-.019-.084.05-.017.038-.124-.016-.145a.08.08 0 01-.048-.07c0-.058-.074-.143-.126-.143-.019 0-.034-.03-.034-.066 0-.071-.069-.158-.126-.158-.019 0-.034-.015-.034-.032 0-.043-.159-.205-.246-.251s-.746-.05-.746-.005zm.787.072c.051.004.042.088-.009.088-.024 0-.052-.021-.061-.046S16.295.62 16.27.629s-.045 0-.045-.022c0-.026.025-.032.072-.017.04.012.088.023.107.025zm.653.802c0 .026.022.055.048.065s.048.011.048.001-.022-.039-.048-.065c-.042-.042-.048-.042-.048-.001zm-3.579 1.801c-.024.027-.037.055-.029.063s.04-.015.072-.05c.032-.035.045-.064.029-.063s-.048.023-.072.05zm-.261.456c0 .021-.015.037-.034.037-.043 0-.139.094-.117.115.009.009.057-.019.108-.063s.081-.09.068-.103c-.013-.013-.024-.007-.024.013zm-.247.261c-.009.035-.029.064-.045.064s-.028.014-.028.031c0 .064.09-.006.104-.081.018-.093-.007-.105-.031-.014zm3.89.028c.038.033.069.084.069.113s.022.062.048.072c.026.01.048.038.048.063s.014.045.032.045.032.029.032.064.014.064.032.064.028-.018.024-.04c-.014-.072.08-.042.146.047.074.099.052.156-.029.075-.029-.029-.06-.046-.069-.037-.021.021.074.115.117.115.019 0 .034.036.034.08s.012.08.027.08.046.036.069.08.062.08.085.08c.023 0 .043.03.043.066 0 .071.069.158.126.158.019 0 .034.029.034.064s.014.064.032.064c.018 0 .032.029.032.064s.015.064.034.064c.044 0 .126.081.126.126 0 .019.014.034.032.034s.032.029.032.064c0 .036.021.064.048.064s.048.022.048.048.014.048.032.048c.018 0 .032.027.032.06s.036.087.08.12c.044.033.08.078.08.1s.022.04.048.04c.026 0 .048.014.048.031s.02.023.044.014c.024-.009.074.022.112.069.086.109.088.17.004.093-.098-.089-.114-.032-.019.07.046.049.083.101.083.116s.05.078.112.141c.062.063.112.142.112.174s.015.059.034.059c.052 0 .126.084.126.143 0 .029.05.104.112.167s.112.133.112.154c0 .021.036.066.08.099s.08.077.08.097c0 .02.022.045.048.055s.048.041.048.07c0 .058.074.143.126.143.019 0 .035.025.035.056.001.079.095.203.095.126 0-.072.041-.068.112.01.05.055.051.064.008.064-.028 0-.058-.018-.066-.04s-.017-.008-.019.032c-.002.044.016.072.045.072.027 0 .048.029.048.066 0 .071.069.158.126.158.019 0 .034.022.034.048s.014.048.032.048c.018 0 .032.029.032.064s.021.064.048.064c.026 0 .048.018.048.041s.029.062.064.087.064.072.064.104.022.066.048.076.048.038.048.063c0 .024.014.045.032.045s.032.029.032.064.013.064.029.064c.032 0 .009-.124-.033-.179-.015-.019-.018-.044-.006-.056.036-.036.135.161.117.231-.017.066.051.164.115.164.019 0 .034.036.034.08s.014.08.032.08c.018 0 .032.015.032.033s.036.072.08.12c.044.048.08.098.08.113 0 .038.085.118.126.118.019 0 .034.017.034.037s.009.028.021.017c.011-.011.002-.043-.021-.07s-.034-.057-.024-.066c.009-.009.047.021.083.067.074.094.061.182-.021.152-.029-.011.001.032.067.096.119.114.149.194.088.231-.018.011-.032.068-.032.126 0 .065-.019.114-.048.125s-.048.06-.048.131c0 .062-.014.113-.032.113s-.032.049-.032.109-.016.115-.035.121c-.033.011-.077.165-.115.41-.01.062-.038.124-.062.138s-.044.068-.044.12-.014.094-.032.094c-.018 0-.032.057-.032.126s-.014.135-.032.146c-.018.011-.032.075-.032.142 0 .08-.017.129-.048.141s-.048.06-.048.131c0 .062-.014.113-.032.113s-.032.049-.032.109c0 .067-.018.116-.048.127-.033.013-.048.064-.048.163 0 .08-.014.145-.032.145s-.032.05-.032.112c0 .078-.014.112-.048.112s-.048.033-.048.109c0 .064-.019.116-.045.126-.063.024-.179-.084-.179-.166 0-.038-.014-.068-.032-.068s-.032-.029-.032-.065c0-.036-.022-.073-.048-.083s-.048-.044-.048-.075c0-.069-.169-.245-.186-.194-.009.026-.024.026-.057-.001-.066-.055-.055-.103.019-.084.035.009.064.004.064-.012s-.014-.029-.032-.029-.032-.029-.032-.065c0-.036-.019-.072-.043-.081s-.062-.066-.086-.127c-.024-.061-.062-.111-.085-.111s-.042-.035-.042-.08c0-.044-.014-.08-.032-.08s-.032-.022-.032-.048c0-.026-.014-.048-.032-.048s-.032-.029-.032-.064c0-.036-.021-.064-.048-.064s-.049-.018-.051-.04c-.002-.031-.006-.03-.019.001s-.027.033-.062.004c-.066-.055-.055-.103.019-.084.035.009.064.004.064-.012s-.014-.029-.032-.029-.032-.036-.032-.08c0-.05-.018-.08-.048-.08-.026 0-.048-.022-.048-.048s-.014-.048-.032-.048c-.018 0-.032-.029-.032-.064s-.021-.064-.048-.064c-.03 0-.048-.03-.048-.08 0-.044-.014-.08-.032-.08s-.032-.022-.032-.048c0-.026-.014-.048-.032-.048s-.032-.026-.032-.057c0-.063-.111-.173-.143-.142-.022.022-.177-.146-.177-.19 0-.015.014-.027.032-.027s.032-.029.032-.064-.014-.064-.032-.064-.032-.029-.032-.065c0-.036-.022-.073-.048-.083s-.048-.046-.048-.079-.014-.061-.032-.061-.032-.022-.032-.048c0-.026-.014-.048-.032-.048s-.032-.029-.032-.065c0-.036-.022-.073-.048-.083s-.048-.045-.048-.077-.014-.068-.032-.078-.032-.048-.032-.082-.012-.062-.026-.062-.02.043-.012.096c.019.129-.07.099-.119-.04-.045-.128-.043-.136.014-.089.039.033.048.03.048-.012 0-.029-.014-.052-.032-.052s-.032-.036-.032-.08c0-.05-.018-.08-.048-.08-.027 0-.048-.028-.048-.064s-.014-.064-.032-.064-.032-.022-.032-.048c0-.026-.014-.048-.032-.048s-.032-.029-.032-.065c0-.036-.022-.073-.048-.083s-.048-.053-.048-.095-.014-.077-.032-.077-.032-.018-.032-.04c0-.022-.036-.079-.08-.127s-.08-.116-.08-.152c0-.036-.015-.065-.034-.065-.056 0-.126-.087-.126-.158 0-.038-.021-.066-.048-.066-.03 0-.048-.03-.048-.08 0-.044-.014-.08-.032-.08s-.032-.025-.033-.056c-.001-.069-.073-.168-.122-.168-.02 0-.037-.018-.037-.04 0-.031-.007-.03-.027.002s-.036.03-.072-.013c-.035-.042-.036-.058-.005-.068.059-.02.052-.2-.008-.2-.042 0-.048-.231-.048-1.888 0-1.038.005-1.888.011-1.888s.042.027.08.06zm-1.723 1.844c0 1.227-.011 1.872-.032 1.872-.018 0-.032.036-.032.08s-.014.08-.032.08c-.018 0-.032.025-.032.055s-.038.088-.085.128c-.064.055-.072.073-.032.073.029 0 .053-.014.053-.032s.021-.032.047-.032c.038 0 .035.02-.016.104a1.06 1.06 0 00-.082.158c-.033.095-.118.104-.101.011.008-.044.003-.08-.012-.08-.038 0-.035.184.004.197.046.016-.158.315-.214.315-.029 0-.04.019-.03.047.01.026.004.056-.013.066s-.031-.004-.031-.031c0-.087-.05-.054-.096.062-.024.062-.056.112-.07.112s-.026.036-.026.08c0 .05-.018.08-.048.08-.029 0-.048.029-.048.072 0 .04-.036.099-.08.132s-.08.087-.08.12-.014.06-.032.06c-.018 0-.032.036-.032.08 0 .05-.018.08-.048.08-.027 0-.048.029-.048.065s-.029.096-.064.134-.064.095-.064.127-.022.058-.048.058-.048.019-.048.042c0 .074-.079.214-.12.214-.022 0-.04.029-.04.064s-.014.064-.032.064c-.018 0-.032.03-.032.066s-.036.099-.08.14-.08.105-.08.142c0 .038-.014.068-.032.068s-.032.029-.032.064c0 .036-.021.064-.048.064-.03 0-.048.03-.048.08 0 .044-.014.08-.032.08s-.032.022-.032.048a.049.049 0 01-.048.048c-.03 0-.048.03-.048.08 0 .044-.014.08-.032.08s-.032.022-.032.05c0 .027-.038.085-.084.128-.073.068-.081.095-.064.205.012.073.007.135-.012.146s-.034-.006-.036-.038c-.003-.054-.005-.054-.018-.002-.008.031-.029.056-.047.056-.041 0-.136.094-.116.114.008.008.034-.007.056-.034.041-.049.144-.07.122-.025-.076.155-.104.2-.127.2-.015 0-.027.02-.027.045s-.022.053-.048.063c-.032.012-.048-.001-.048-.041 0-.033.022-.068.048-.078s.047-.037.045-.059c-.002-.032-.006-.032-.019-.001-.009.022-.037.04-.061.04s-.045.031-.045.068-.031.095-.069.128c-.057.049-.06.06-.016.06.029 0 .053-.014.053-.032s.024-.032.053-.032c.047 0 .048.006.005.056a.448.448 0 00-.068.112c-.028.08-.085.069-.09-.016-.003-.054-.007-.058-.018-.016-.008.031-.028.056-.044.056s-.03.014-.03.031.022.023.048.013.048-.002.048.017c0 .02-.022.035-.048.035s-.048.014-.048.032c0 .018-.022.032-.048.032s-.048.026-.048.058-.029.089-.064.127-.064.098-.064.134c0 .037-.021.065-.048.065-.03 0-.048.03-.048.08 0 .044-.014.08-.032.08s-.032.015-.032.033c0 .032-.025.068-.121.174-.055.061-.134.026-.138-.059-.001-.038-.01-.051-.019-.029-.025.062-.075.047-.075-.023 0-.043.015-.057.048-.045.026.01.048.002.048-.017s-.014-.035-.032-.035-.032-.05-.032-.112c0-.078-.014-.112-.048-.112-.036 0-.048-.039-.048-.16 0-.088-.014-.16-.032-.16s-.032-.05-.032-.112-.014-.112-.032-.112-.032-.051-.032-.113c0-.071-.018-.12-.048-.131-.026-.01-.048-.049-.048-.087 0-.051-.007-.058-.028-.024-.015.024-.044.034-.064.022-.044-.027-.047-.178-.004-.178.053 0 .039-.256-.016-.276-.03-.011-.048-.06-.048-.127 0-.06-.014-.109-.032-.109s-.032-.05-.032-.112c0-.078-.014-.112-.048-.112-.032 0-.048-.032-.048-.092 0-.065-.019-.097-.064-.109-.084-.022-.083-.087.001-.087.054 0 .058-.008.024-.045-.026-.029-.054-.034-.078-.015-.053.043-.08-.052-.043-.15.047-.123.038-.269-.017-.29-.03-.011-.048-.06-.048-.127 0-.06-.014-.109-.032-.109-.064 0-.03-.146.048-.205.044-.033.08-.087.08-.12s.014-.06.032-.06c.018 0 .032-.015.032-.034s.021-.055.046-.08c.025-.025.061-.046.08-.046s.034-.03.034-.066.05-.114.112-.172c.062-.058.112-.136.112-.174s.015-.068.034-.068c.044 0 .126-.081.126-.126 0-.019.014-.034.032-.034s.032-.029.032-.064c0-.036.021-.064.048-.064s.048-.022.048-.048.018-.049.04-.051c.03-.002.029-.007-.002-.019-.023-.009-.061.008-.083.039s-.049.043-.059.027c-.024-.04.302-.491.356-.492.028 0 .038.022.027.063-.024.093.019.078.065-.023.054-.116.051-.21-.003-.112-.022.04-.051.063-.063.05-.033-.033.152-.3.209-.3.037 0 .03.12-.008.139-.018.009-.014.013.008.008s.045-.039.051-.078c.006-.038.024-.07.04-.07s.03-.024.03-.054c0-.042-.009-.046-.038-.016-.021.021-.051.038-.067.038-.06 0 .174-.25.253-.27.092-.023.172-.09.172-.144 0-.019.013-.034.03-.034s.04-.032.053-.072c.013-.04.05-.095.082-.124s.059-.082.059-.12.015-.068.034-.068c.043 0 .126-.081.126-.122 0-.017.022-.039.048-.049s.048-.044.048-.076.036-.084.08-.117.08-.084.08-.113c0-.029.029-.073.064-.099s.064-.065.064-.087c0-.023.022-.041.048-.041s.048-.025.049-.056c.001-.069.073-.168.122-.168.02 0 .036-.022.036-.048s.014-.048.032-.048c.018 0 .032-.021.032-.046s.05-.099.112-.164.112-.146.112-.178.022-.06.048-.06c.026 0 .048-.022.048-.048s.014-.048.032-.048c.018 0 .032-.029.032-.064s.021-.064.048-.064c.026 0 .048-.018.048-.04s.036-.067.08-.1c.044-.033.08-.087.08-.12s.014-.06.032-.06c.018 0 .032-.018.032-.04s.036-.067.08-.1c.044-.033.08-.079.08-.103s.05-.095.112-.158.112-.143.112-.177.015-.061.034-.061c.048 0 .126-.083.126-.135 0-.024.025-.066.056-.094.106-.096.168-.189.168-.252 0-.035.021-.064.048-.064s.048-.014.048-.032.014-.032.032-.032c.021 0 .032.645.032 1.872zm2.795-.548c.028.042.042.084.032.094-.032.032-.139-.056-.139-.114 0-.079.048-.07.107.02zm1.326 1.813c.022.035.029.063.015.062-.039-.002-.12-.076-.128-.118-.011-.057.066-.018.113.056zm-6.828.486c-.076.089-.153.151-.169.136-.023-.023.14-.203.185-.205.033-.001.029.016-.016.07zm9.235.135c0 .043.015.087.033.098s.023.035.012.053c-.012.019-.048-.01-.083-.065-.06-.094-.056-.165.009-.165.017 0 .03.035.03.078zm-9.488.21c-.032.035-.048.064-.035.064.034 0 .125-.096.108-.114-.008-.008-.041.014-.073.05zm2.419.648c-.001.031-.017.056-.035.056s-.032.018-.032.039c0 .025.018.021.052-.013.028-.028.044-.071.035-.095-.012-.03-.018-.025-.02.013zm-2.979.056c-.019.035-.025.064-.013.064s.001.024-.023.053c-.038.046-.037.051.004.038.026-.009.053-.047.058-.085s.024-.07.04-.07.03-.014.03-.032c0-.055-.06-.035-.096.032zm10.786.111c.034-.021.041.027.009.06-.031.031-.141-.077-.117-.115.011-.018.032-.01.049.021.016.029.043.044.06.034zm-4.962.126c0 .025.024.054.053.065.04.015.044.03.017.057-.039.039-.175-.094-.146-.142.025-.041.075-.027.075.02zm-8.317.369c-.023.014-.037.041-.03.06.008.022.033.018.07-.009.064-.047.028-.092-.039-.05zM16 9.68c0 .05.018.08.048.08.026 0 .048.022.048.048s.014.048.032.048c.018 0 .032.036.032.08s.014.08.032.08c.018 0 .032.025.033.056s.036.09.08.131c.044.041.079.103.079.136s.022.061.048.061c.029 0 .048.029.048.072 0 .04.036.099.08.132s.08.087.08.12.014.06.032.06c.018 0 .032.036.032.08s.014.08.032.08c.018 0 .032.025.033.056s.036.09.08.131c.044.041.079.103.079.136s.022.061.048.061c.027 0 .048.029.048.065s.036.104.08.152c.044.048.08.104.08.127s.014.04.032.04c.018 0 .032.036.032.08 0 .05.018.08.048.08.026 0 .048.018.048.04 0 .027.011.024.032-.008.027-.041.041-.036.095.032.07.089.08.128.032.128-.018 0-.032.043-.032.096 0 .064.016.096.048.096.03 0 .048.03.048.08 0 .044.014.08.032.08s.032.022.032.048c0 .026.022.048.048.048s.048.028.048.064c0 .035.014.064.032.064s.032.036.032.08c0 .05.018.08.048.08.026 0 .048.014.048.032s.028.032.063.032c.082 0 .148.114.081.14-.028.011-.047 0-.047-.025 0-.024-.022-.052-.048-.062s-.048-.004-.048.013.014.031.032.031.032.022.032.048c0 .026.014.048.032.048s.032.029.032.064c0 .036.021.064.048.064s.048.019.048.042c0 .074.079.214.12.214.022 0 .04.036.04.08s.014.08.032.08c.018 0 .032.029.032.064s.018.064.04.064c.041 0 .12.141.12.214 0 .023.014.042.032.042s.032.027.032.06.036.087.08.12.08.093.08.132c0 .043.019.072.048.072.03 0 .048.03.048.08 0 .044.014.08.032.08s.032.029.032.064c0 .036.021.064.048.064s.048.022.048.048.014.048.032.048c.018 0 .032.036.032.08s.014.08.032.08c.018 0 .032.025.033.056s.036.09.08.131c.044.041.079.103.079.136s.022.061.048.061c.027 0 .048.029.048.066 0 .071.069.158.126.158.019 0 .034.036.034.08s.014.08.032.08c.018 0 .032.072.032.16s-.014.16-.032.16c-.018 0-.032.013-.032.029s.029.021.064.012c.074-.019.086.05.027.16-.036.068-.038.068-.062.006-.021-.054-.025-.051-.027.025-.001.056-.02.088-.05.088-.034 0-.048.034-.048.112 0 .062-.014.112-.032.112s-.032.051-.032.113c0 .071-.018.12-.048.131s-.048.062-.048.141c0 .068-.014.132-.032.142s-.032.077-.032.146c0 .091-.013.126-.048.126-.034 0-.048.034-.048.112 0 .062-.014.112-.032.112s-.032.05-.032.112-.015.112-.034.112c-.022 0-.031.086-.024.245.008.185 0 .248-.034.26s-.041-.015-.031-.117c.007-.073.001-.132-.012-.132s-.025.065-.025.144-.014.144-.032.144c-.018 0-.032.013-.032.029s.029.021.064.012c.068-.018.08.011.035.083-.015.024-.044.034-.064.022s-.036-.002-.036.024c0 .026-.022.055-.048.065-.03.012-.048.06-.048.131 0 .062-.014.113-.032.113s-.032.056-.032.124c0 .071-.02.141-.048.164-.026.022-.048.088-.048.148s-.014.108-.032.108c-.018 0-.032.05-.032.112s-.014.112-.032.112c-.018 0-.032.056-.032.125 0 .081-.017.131-.048.143-.03.011-.048.06-.048.13 0 .061-.014.12-.032.131s-.032.068-.032.126c0 .065-.019.114-.048.125-.056.021-.068.264-.014.282.019.006.024.037.012.069s-.042.05-.066.04c-.024-.009-.044.003-.044.027s-.016.05-.035.056c-.019.006-.043.08-.052.163s-.03.151-.045.151-.028.05-.028.112-.014.112-.032.112c-.018 0-.032.049-.032.109 0 .067-.018.116-.048.127-.033.013-.048.064-.048.163 0 .08-.014.145-.032.145s-.032.049-.032.109c0 .067-.018.116-.048.127s-.048.06-.048.131c0 .062-.014.113-.032.113s-.032.049-.032.109c0 .067-.018.116-.048.127-.028.011-.048.058-.048.114 0 .052-.014.104-.032.115s-.032.034-.032.052c0 .018.022.011.048-.016s.048-.092.048-.146c0-.066.016-.098.048-.098.03 0 .048-.03.048-.08 0-.044.016-.08.036-.08.022 0 .027.027.013.072-.012.04-.03.108-.039.152-.033.159-.119.322-.161.306-.027-.01-.041.012-.041.063 0 .043-.014.079-.032.079s-.032.049-.032.109c0 .067-.018.116-.048.127s-.048.06-.048.131c0 .062-.014.113-.032.113s-.032.029-.032.064c0 .063-.021.064-1.216.064s-1.216-.001-1.216-.064c0-.035-.014-.064-.032-.064s-.032-.051-.032-.113c0-.071-.018-.12-.048-.131s-.048-.06-.048-.127c0-.06-.014-.109-.032-.109s-.032-.064-.032-.142c0-.086-.017-.153-.043-.168a.166.166 0 01-.062-.074c-.014-.036-.019-.033-.021.012-.001.033.023.079.053.101s.044.053.03.067c-.04.04-.148-.121-.149-.221 0-.062.016-.089.055-.091.033-.001.04-.009.016-.019-.022-.009-.04-.065-.04-.125 0-.076-.015-.109-.048-.109-.035 0-.048-.036-.048-.128 0-.07-.014-.128-.032-.128s-.032-.05-.032-.112-.014-.112-.032-.112-.032-.065-.032-.145c0-.099-.015-.151-.048-.163-.03-.011-.048-.06-.048-.127 0-.06-.014-.109-.032-.109s-.032-.05-.032-.112c0-.078-.014-.112-.048-.112-.035 0-.048-.036-.048-.128 0-.07-.014-.128-.032-.128s-.032-.065-.032-.144c0-.107-.012-.144-.048-.144-.03 0-.049-.033-.052-.088l-.004-.088-.021.096c-.023.104-.055.08-.08-.062-.014-.076-.007-.087.046-.073.034.009.062.003.062-.013s-.014-.029-.032-.029-.032-.05-.032-.112-.014-.112-.032-.112-.032-.05-.032-.112c0-.078-.014-.112-.048-.112-.036 0-.048-.039-.048-.16 0-.088-.014-.16-.032-.16s-.032-.05-.032-.112c0-.078-.014-.112-.048-.112-.03 0-.049-.033-.052-.088l-.004-.088-.02.094-.02.094-.038-.084c-.038-.084.012-.184.065-.131.012.012.021.004.021-.016s-.014-.037-.032-.037-.032-.049-.032-.108-.022-.126-.048-.148-.048-.088-.048-.146c0-.058-.014-.115-.032-.126s-.032-.069-.032-.13-.014-.11-.032-.11-.032-.054-.033-.12c-.001-.119-.002-.119-.045-.041l-.044.079-.051-.123c-.06-.144-.065-.211-.016-.211.02 0 .028.028.019.064s-.004.064.012.064c.04 0 .037-.215-.003-.24-.018-.011-.032-.069-.032-.13 0-.076-.015-.11-.048-.11s-.048-.034-.048-.112c0-.062-.014-.112-.032-.112s-.032-.058-.032-.129c0-.085-.016-.135-.048-.147-.026-.01-.048-.047-.048-.083 0-.051-.009-.057-.044-.028s-.049.025-.064-.015c-.04-.104-.023-.15.049-.132.051.013.059.009.032-.019-.02-.02-.037-.084-.037-.142s-.014-.106-.032-.106c-.018 0-.032-.05-.032-.112 0-.078-.014-.112-.048-.112-.035 0-.048-.035-.048-.126 0-.069-.014-.135-.032-.146s-.032-.104-.032-.207c0-.113-.015-.192-.037-.2-.033-.011.039-.164.102-.217.01-.009.028-.041.04-.072s.036-.056.054-.056c.05 0 .039.128-.013.148-.025.01-.038.038-.029.063s-.006.054-.034.065c-.028.011-.051.042-.051.069 0 .037.017.03.064-.024.035-.041.064-.093.064-.117s.014-.043.032-.043.032-.036.032-.08c0-.044.018-.081.04-.083s.004-.013-.04-.025l-.08-.022.072-.062c.04-.034.072-.073.072-.086 0-.044.107-.15.134-.134.014.009.026.001.026-.018s.022-.034.048-.034c.03 0 .048-.03.048-.08 0-.044.014-.08.032-.08s.032-.027.032-.06.036-.087.08-.12.08-.093.08-.132c0-.04.014-.072.032-.072s.032-.015.032-.034c0-.019.036-.081.08-.139s.08-.129.08-.158.022-.053.048-.053c.03 0 .048-.03.048-.08 0-.044.014-.08.032-.08s.032-.022.032-.048c0-.026.013-.048.03-.048.034 0 .13-.181.13-.245 0-.024.014-.043.032-.043s.032-.036.032-.08c0-.05.018-.08.048-.08.026 0 .048-.022.048-.048s.014-.048.032-.048c.018 0 .032-.029.032-.064s.014-.064.03-.064c.017 0 .056-.054.086-.12s.075-.132.097-.146c.023-.014.042-.054.042-.088s.014-.062.032-.062c.018 0 .032-.029.032-.064s.014-.064.032-.064c.018 0 .032-.02.032-.045s.022-.053.048-.063c.026-.01.048-.048.048-.083s.014-.065.032-.065.032-.036.032-.08c0-.044.015-.08.034-.08.043 0 .139-.093.118-.114-.008-.008-.061.027-.116.078-.12.112-.12.11-.03-.075.066-.136.122-.187.122-.112 0 .022.021.022.064-.001.035-.019.064-.056.064-.083s.036-.084.08-.128.08-.101.08-.127.014-.047.032-.047.032-.036.032-.08c0-.044.014-.08.032-.08s.032-.014.032-.031-.022-.023-.048-.013-.048.002-.048-.017c0-.02.022-.035.048-.035s.048-.014.048-.032c0-.018.016-.032.036-.032.049 0 .121-.099.122-.168.001-.031.023-.056.049-.056.03 0 .048-.03.048-.08 0-.044.014-.08.032-.08s.032-.036.032-.08c0-.044.015-.08.034-.08.056 0 .126-.087.126-.158 0-.036.014-.066.032-.066s.032-.025.033-.056c0-.031.036-.09.08-.131s.079-.101.079-.133.022-.066.048-.076.048-.048.048-.083c0-.036.014-.065.032-.065s.032-.022.032-.048c0-.026.014-.048.031-.048s.04-.036.052-.08.033-.08.049-.08.029.036.029.08zm.259.281c-.041.041-.083.009-.052-.04.012-.019.036-.026.054-.014.022.013.021.031-.002.054zm.081.135c-.028.074-.082.03-.061-.05.012-.044.028-.055.049-.034.018.018.023.055.012.084zm2.276.704c.008.044.021.08.028.08s.012-.036.012-.08-.012-.08-.028-.08c-.015 0-.021.036-.012.08zm-1.706.213c.065.131.064.134-.026.074-.052-.034-.071-.07-.06-.113.022-.083.027-.08.087.038zm4.21.316c0 .06-.041.126-.067.109-.052-.032-.034-.174.019-.154.026.01.048.03.048.044zm-6.24.06c0 .033-.022.069-.05.08s-.041.035-.029.053c.026.041-.074.158-.134.158s-.054-.027.031-.141a.798.798 0 00.095-.155c.028-.075.087-.072.087.005zm6.152.179c-.015.079-.072.145-.072.084a.28.28 0 00-.018-.079c-.011-.03.004-.054.04-.063.032-.008.06-.017.062-.019s-.003.033-.012.077zm-1.864.176c0 .068-.047.086-.08.032-.023-.038.007-.096.05-.096.017 0 .03.029.03.064zm-4.512.032c0 .036-.021.064-.048.064-.049 0-.066-.068-.027-.107.041-.041.075-.021.075.043zm9.017.366c-.016.108-.081.091-.094-.024-.012-.099-.007-.106.045-.073.032.02.054.064.049.098zM9.789 13.298l.013.094.023-.08.023-.08.038.093c.026.064.027.104.004.126-.043.043-.044.276-.001.276.018 0 .032.051.032.113 0 .071.018.12.048.131s.048.06.048.127c0 .06.014.109.032.109s.032.064.032.142c0 .086.017.153.043.168a.166.166 0 01.062.074c.012.032.019.024.021-.024.002-.044-.016-.072-.045-.072a.049.049 0 01-.048-.048c0-.079.077-.054.12.039.058.126.051.233-.016.236-.033.001-.04.009-.016.019.022.009.04.065.04.125 0 .076.015.109.048.109.035 0 .048.036.048.128 0 .07.014.128.032.128s.032.05.032.112.014.112.032.112.032.036.032.08c0 .044-.014.08-.032.08s-.032.015-.032.033c0 .018.038.008.084-.022.083-.055.084-.054.061.019-.054.171-.155.304-.18.239-.021-.054-.024-.054-.026-.005-.001.031-.018.056-.037.056-.036 0-.126.078-.126.11 0 .01.036-.005.081-.034.115-.075.134-.033.041.091-.043.058-.088.13-.099.161s-.036.056-.054.056c-.054 0-.038-.101.023-.147.051-.038.05-.04-.016-.024-.049.012-.072.042-.072.094 0 .042-.011.076-.024.076s-.043.03-.066.067c-.023.037-.028.058-.01.047s.041-.005.052.013c.017.028-.029.047-.058.025-.027-.021-.118.107-.118.166 0 .036-.014.066-.032.066s-.032.036-.032.08c0 .044-.016.08-.036.08-.048 0-.121.098-.122.165-.001.029-.023.061-.049.071s-.048.048-.048.083c0 .036-.014.065-.032.065s-.032.025-.033.056c0 .031-.036.09-.08.131s-.079.103-.079.136c0 .033-.014.061-.032.061s-.057.058-.088.128c-.03.07-.066.128-.08.128s-.024.027-.024.061c0 .033-.022.069-.048.079s-.048.048-.048.083c0 .036-.014.065-.032.065s-.032.02-.032.045c0 .025-.022.053-.048.063s-.048.048-.048.083c0 .036-.014.065-.032.065s-.032.027-.032.061c0 .033-.022.069-.048.079s-.048.048-.048.083c0 .036-.014.065-.032.065s-.032.022-.032.048c0 .026-.014.048-.032.048s-.032.036-.032.08c0 .045-.019.08-.042.08s-.062.05-.085.111c-.049.125-.129.177-.129.084 0-.033.022-.068.048-.078.035-.013.048-.068.048-.195 0-.097.014-.177.032-.177s.032-.064.032-.142c0-.078.014-.151.032-.162s.032-.084.032-.162c0-.105.013-.142.048-.142s.048-.039.048-.16c0-.088.014-.16.032-.16s.032-.013.032-.029-.029-.021-.064-.012c-.067.017-.083-.032-.045-.132.026-.067.068-.064.086.005.008.031.016.011.018-.045.002-.057.024-.109.052-.119.035-.013.048-.068.048-.195 0-.097.014-.177.032-.177s.032-.072.032-.16c0-.121.012-.16.048-.16s.048-.037.048-.142c0-.078.014-.151.032-.162s.032-.084.032-.162.014-.142.032-.142.03-.074.028-.168c-.002-.092-.011-.136-.018-.096s-.029.072-.047.072c-.019 0-.023-.024-.01-.056a.719.719 0 00.037-.136c.032-.188.045-.224.078-.224.021 0 .03.055.023.144-.006.079 0 .144.013.144s.024-.072.024-.16.014-.16.032-.16c.018 0 .032-.085.032-.192 0-.149.011-.192.048-.192.035 0 .048-.037.048-.142 0-.078.014-.151.032-.162s.032-.078.032-.148c0-.071.021-.15.048-.176.03-.03.048-.108.048-.206 0-.087.014-.158.032-.158s.032-.057.032-.126.014-.135.032-.146c.05-.031.037-.08-.016-.06-.037.014-.048-.007-.048-.095 0-.138.054-.185.073-.062.007.049.016.005.018-.097.003-.123.016-.179.039-.165.019.012.026.041.017.066s-.003.045.014.045.031-.073.031-.163c0-.18.07-.212.093-.043zm12.455-.01l.004.104.043-.192.038.108c.042.118.025.178-.044.152-.025-.009-.045-.003-.045.014s.014.031.032.031.032.07.032.156c0 .1.017.17.048.196.029.024.048.094.048.178 0 .076.014.147.032.158s.032.084.032.163c0 .098.015.149.048.162.027.01.05.062.052.119l.004.101.023-.096c.018-.076.028-.085.047-.042.033.076.008.204-.038.194-.022-.004-.039.006-.039.024s.014.032.032.032c.018 0 .032.065.032.144s.014.144.032.144c.018 0 .032.072.032.16 0 .121.012.16.048.16s.048.038.048.146c0 .132.006.144.064.126.047-.015.064-.006.064.034 0 .038-.019.049-.064.037-.035-.009-.064-.004-.064.012s.014.029.032.029.032.065.032.145c0 .099.015.151.048.163s.048.065.048.175c0 .086.014.157.032.157s.032.063.032.14c0 .086.019.156.048.18.026.022.049.085.051.14s.01.081.019.059c.013-.032.027-.033.062-.004.051.043.061.157.013.157-.018 0-.032.072-.032.16s.014.16.032.16c.018 0 .032.065.032.145 0 .099.015.151.048.163s.048.065.048.175c0 .086.014.157.032.157s.032.08.032.177c0 .128.013.182.048.195.033.013.048.064.048.159 0 .077.014.141.032.141s.032.072.032.16c0 .121.012.16.048.16s.047.034.043.136c-.003.096-.009.11-.018.048-.007-.048-.027-.088-.043-.088s-.03-.022-.03-.048-.014-.048-.032-.048c-.018 0-.032-.029-.032-.064s-.021-.064-.048-.064c-.03 0-.048-.03-.048-.08 0-.044-.014-.08-.032-.08s-.032-.036-.032-.08c0-.044-.012-.08-.028-.08s-.021.036-.012.08c.021.108-.066.107-.115-.002-.048-.106-.047-.121.011-.099.029.011.048 0 .048-.029 0-.026-.014-.047-.032-.047s-.032-.029-.032-.064c0-.036-.021-.064-.048-.064-.03 0-.048-.03-.048-.08 0-.044-.014-.08-.032-.08s-.032-.022-.032-.048c0-.026-.014-.048-.032-.048s-.032-.029-.032-.065c0-.036-.022-.073-.048-.083s-.048-.046-.048-.079-.014-.061-.032-.061-.032-.02-.032-.044c0-.07-.095-.137-.126-.088-.018.029-.04.017-.078-.041-.067-.102-.068-.135-.003-.069.057.057.11.066.11.018 0-.018-.014-.032-.032-.032s-.032-.027-.032-.06-.036-.087-.08-.12-.08-.093-.08-.132c0-.04-.014-.072-.032-.072s-.032-.029-.032-.065c0-.036-.022-.073-.048-.083s-.048-.046-.048-.079-.014-.061-.032-.061-.032-.022-.032-.048c0-.026-.022-.048-.048-.048s-.048-.014-.048-.031-.018-.024-.041-.015c-.047.018-.15-.143-.128-.202.026-.073.081-.041.066.038-.015.076.056.142.1.094.011-.012.001-.028-.021-.035s-.04-.042-.04-.077c0-.034-.019-.07-.043-.079s-.062-.066-.086-.127c-.024-.061-.062-.111-.085-.111s-.042-.033-.042-.073c0-.04-.029-.094-.064-.119s-.064-.079-.064-.119c0-.044-.019-.073-.048-.073-.026 0-.048-.014-.048-.032s-.021-.032-.046-.032a.092.092 0 01-.069-.037c-.016-.025-.001-.031.046-.019.038.01.069.005.069-.011s-.014-.029-.032-.029-.032-.036-.032-.08c0-.05-.018-.08-.048-.08s-.048-.03-.048-.08.018-.08.048-.08c.034 0 .048-.034.048-.112 0-.062.014-.112.032-.112s.032-.056.032-.125c0-.081.017-.131.048-.143.028-.011.048-.059.048-.115 0-.053.014-.097.032-.097s.032-.057.032-.126.014-.135.032-.146.032-.077.032-.146c0-.091.013-.126.048-.126.034 0 .048-.034.048-.112 0-.062.014-.112.032-.112s.032-.013.032-.029-.028-.022-.062-.013c-.053.014-.06.003-.046-.073.025-.137.056-.165.082-.077.015.05.018.03.007-.055-.022-.166.034-.299.068-.163.012.047.012.101.001.12s-.006.034.013.034.034-.05.034-.11c0-.061.014-.119.032-.13s.032-.084.032-.162c0-.175.094-.211.1-.038zm-14.212.243c-.001.075-.051.147-.075.107-.036-.058-.009-.193.035-.176.023.009.041.04.041.068zm12.377.074c.014.072-.102.202-.153.171-.033-.021-.031-.034.012-.066.03-.022.052-.052.049-.067s-.003-.047-.001-.07c.005-.056.081-.03.093.032zm-1.769.348c.028.053.041.111.031.128-.029.047-.079.004-.058-.05.01-.026-.005-.055-.033-.066s-.051-.04-.051-.064c0-.077.06-.049.112.052zm5.584.557c0 .061-.013.118-.03.128-.041.025-.075-.096-.05-.175.032-.102.08-.074.08.046zm-5.014.4c.035.059.043.101.023.114-.048.03-.096-.011-.076-.064.01-.026-.005-.055-.033-.066-.061-.024-.068-.077-.01-.077.023 0 .066.042.096.094zm-6.475.13c-.026.016-.047.055-.047.086s-.018.054-.04.049-.04.008-.04.027c0 .052.071.018.11-.053a.313.313 0 01.065-.084c.048-.035.005-.058-.048-.025zm8.769.672c0 .073-.08.087-.106.019-.02-.052.004-.083.064-.083.023 0 .043.029.043.064zm-9.196.081c-.01.026-.033.047-.051.047-.047 0-.041-.12.007-.137s.069.025.044.09zm-4.837-.05c.027.044-.017.196-.051.175-.038-.024-.037-.206.002-.206.017 0 .039.014.049.031zm17.073.119c0 .139-.004.146-.047.088-.063-.083-.064-.238-.001-.238.036 0 .048.038.048.15zm-4.838.036c-.016.131-.09.126-.09-.006 0-.09.01-.11.05-.095.031.012.046.05.04.1zm3.247.124c-.024.062-.073-.007-.072-.102 0-.062.002-.062.045-.005.025.032.037.08.027.107zM7.008 17.774c0 .144-.052.174-.073.042-.017-.111-.006-.152.043-.152.017 0 .03.05.03.11zm4.16.13c0 .078.014.112.048.112.03 0 .049.033.052.088l.004.088.02-.094.02-.094.037.081c.04.088.009.177-.049.142-.02-.013-.036-.001-.036.028s.014.05.032.05.032.051.032.113c0 .071.018.12.048.131s.048.06.048.125c0 .059.014.116.032.126s.032.069.032.13.014.11.032.11.032.055.032.123c0 .128.1.268.143.199.012-.019-.002-.034-.03-.034-.067 0-.095-.077-.054-.15.029-.051.039-.044.083.061.067.16.068.272.002.217-.04-.033-.048-.029-.048.026 0 .036.014.075.032.086s.032.069.032.13c0 .076.015.11.048.11.035 0 .048.036.048.128 0 .07.014.128.032.128s.032.049.032.108.022.126.048.148.05.07.052.108c.004.065.005.065.018-.004.025-.13.103-.044.105.116 0 .029-.023.038-.068.026-.051-.013-.059-.009-.032.019.02.02.037.084.037.142s.014.106.032.106c.018 0 .032.05.032.112 0 .078.014.112.048.112s.048.034.048.11c0 .061.014.119.032.13s.032.077.032.147c0 .084.016.133.048.146.026.01.05.049.052.087.003.049.01.041.025-.027l.021-.096.046.11c.035.083.036.113.007.123-.057.019-.049.261.01.284.03.011.048.06.048.127 0 .06.014.109.032.109s.032.065.032.145c0 .099.015.151.048.163.026.01.048.046.048.079s.02.061.045.061c.025 0 .053.022.064.05.011.028.006.041-.013.03s-.032.019-.032.068c0 .084.002.086.048.026.044-.056.046-.042.028.153-.017.182-.012.218.032.235.037.014.052.06.052.161 0 .077.014.141.032.141s.032.036.032.08v.08h-5.28v-.08c0-.044.014-.08.032-.08s.032-.022.032-.05c0-.027.036-.083.08-.124s.08-.086.08-.101c0-.015-.017-.009-.038.012-.067.067-.123.047-.092-.034.017-.046.049-.069.087-.063.04.006.047.001.021-.017-.03-.021-.03-.044.004-.105.187-.345.248-.427.278-.378.014.022.018.052.009.066s-.001.026.018.026.034-.027.034-.061c0-.033.036-.095.079-.136s.08-.101.08-.131c0-.031.015-.056.033-.056s.032-.036.032-.08c0-.044.014-.08.032-.08s.032-.036.032-.08c0-.044.015-.08.034-.08.056 0 .126-.087.126-.158 0-.038.021-.066.048-.066s.048-.024.048-.053.036-.1.08-.158c.044-.058.08-.12.08-.139s.014-.034.032-.034.032-.036.032-.08c0-.044.014-.08.032-.08s.032-.022.032-.048c0-.026.022-.048.048-.048s.048-.028.048-.064c0-.035.014-.064.032-.064s.032-.036.032-.08c0-.05.018-.08.048-.08s.048-.03.048-.08c0-.044.014-.08.032-.08s.032-.02.032-.045c0-.025.022-.053.048-.063s.048-.04.048-.067c0-.027.014-.049.032-.049s.032-.036.032-.08c0-.044.014-.08.032-.08s.032-.022.032-.048c0-.026.022-.048.048-.048.03 0 .048-.03.048-.08 0-.044.014-.08.032-.08s.032-.021.032-.046c0-.026.036-.085.08-.133s.08-.113.08-.146c0-.033.022-.059.048-.059.06 0 .067-.18.008-.201-.029-.01-.025-.031.016-.077.031-.035.056-.08.056-.101s.013-.038.028-.038c.016 0 .036-.029.045-.064s.032-.064.052-.064c.054 0 .041.128-.015.149-.027.011-.042.039-.033.064s-.004.053-.03.063a.078.078 0 00-.047.068c0 .037.017.03.064-.024.035-.041.064-.093.064-.117s.016-.043.036-.043c.025 0 .03-.046.017-.144-.011-.079-.009-.144.004-.144s.051-.058.085-.128.077-.126.096-.124c.11.013.147-.008.147-.084 0-.044.014-.08.032-.08s.032-.015.032-.033c0-.031.025-.068.12-.173.022-.025.04-.074.04-.111s.014-.066.032-.066.032-.027.032-.06.036-.087.08-.12.08-.093.08-.132c0-.043.019-.072.048-.072.03 0 .048-.03.048-.08 0-.044.014-.08.032-.08s.032.05.032.112zm9.722-.069c.056-.015.07-.005.07.05 0 .059-.009.064-.064.035-.043-.023-.064-.024-.064-.001 0 .018.014.033.032.033s.032.027.032.06.036.087.08.12.08.093.08.132c0 .043.019.072.048.072.03 0 .048.03.048.08 0 .044.014.08.032.08s.032.027.032.06.036.087.08.12.08.093.08.132c0 .04.014.072.032.072s.032.029.032.065c0 .036.021.073.047.083s.065.067.086.127c.022.06.058.109.081.109s.042.03.042.066c0 .071.069.158.126.158.019 0 .034.036.034.08s.014.08.032.08c.018 0 .032.036.032.08s.014.08.031.08.023-.022.013-.048c-.034-.089.07-.05.128.048.056.095.056.097-.017.126-.041.016-.056.031-.034.032s.04.024.04.05c0 .026.014.048.032.048s.032.029.032.064c0 .036.021.064.048.064.03 0 .048.03.048.08 0 .044.014.08.032.08s.032.022.032.049c0 .027.022.057.048.067s.048.046.048.079.014.061.032.061.032.029.032.064c0 .036.021.064.048.064s.049.018.05.04c.001.022.013.011.027-.024.023-.058.029-.055.078.038.068.132.07.192.005.137-.039-.033-.048-.03-.048.012 0 .029.014.052.032.052s.032.029.032.065c0 .036.022.073.048.083s.048.046.048.079.014.061.032.061.032.022.032.048c0 .026.022.048.048.048.03 0 .048.03.048.08 0 .044.014.08.032.08s.032.028.032.063.029.078.064.097c.043.023.064.024.064.001 0-.067.067-.03.099.055.038.099.031.124-.027.11-.022-.005-.04.006-.04.024s.014.033.032.033.032.029.032.065c0 .036.019.072.043.081s.062.066.086.127c.024.061.062.111.085.111s.042.035.042.08c0 .044.014.08.032.08s.032.023.032.051c0 .071.161.235.213.215.025-.01.056.018.075.069.046.122.041.13-.029.045-.035-.043-.073-.063-.088-.047s-.009.035.013.043.04.038.041.068c0 .029.036.087.08.129s.079.103.079.136c0 .033.022.061.048.061.03 0 .048.03.048.08 0 .044.014.08.032.08s.032.021.032.047.036.083.08.127c.224.224.39.211-2.576.211h-2.656v-.08c0-.05.018-.08.048-.08.036 0 .048-.037.048-.144 0-.079.014-.144.032-.144s.032-.058.032-.128c0-.092.013-.128.048-.128.034 0 .048-.034.048-.112 0-.062.014-.112.032-.112s.032-.013.032-.029-.029-.021-.064-.012c-.076.02-.081-.022-.019-.162.025-.055.053-.127.064-.159s.034-.049.051-.038c.05.031.038.144-.016.144-.029 0-.047.028-.045.072.002.048.009.056.021.024.01-.026.038-.06.062-.074s.043-.079.043-.15c0-.068.014-.133.032-.144s.032-.069.032-.13.014-.11.032-.11.032-.058.032-.128c0-.092.013-.128.048-.128.034 0 .048-.034.048-.112 0-.062.014-.112.032-.112s.032-.051.032-.114.022-.136.048-.162.048-.097.048-.158c0-.06.014-.11.032-.11s.032-.049.032-.109c0-.067.018-.116.048-.127.028-.011.048-.058.048-.114 0-.052.014-.104.032-.115s.032-.037.032-.058c0-.025-.01-.023-.028.006-.032.05-.099.022-.099-.042 0-.114.135-.349.168-.291.025.045.017.069-.037.11-.038.029-.06.062-.048.075.041.041.141-.114.141-.22 0-.058.014-.114.032-.125s.032-.069.032-.13.014-.11.032-.11.032-.051.032-.114.022-.136.048-.162.048-.097.048-.158c0-.06.014-.11.032-.11s.032-.05.032-.112c0-.078.014-.112.048-.112s.048-.034.048-.11c0-.061.014-.119.032-.13s.032-.077.032-.147c0-.084.016-.133.048-.146.027-.01.048-.058.048-.109 0-.05.014-.1.032-.11s.032-.042.032-.07c0-.036-.019-.026-.064.031-.035.045-.064.104-.064.132s-.014.051-.032.051c-.047 0-.039-.082.012-.124.024-.02.037-.07.029-.112-.017-.088.048-.144.093-.08.021.031.027.012.018-.063-.009-.07.002-.113.03-.123.024-.009.043-.045.043-.081 0-.049.01-.056.042-.03.023.019.073.026.112.016zm-12.314.051c0 .059-.053.119-.081.092-.022-.022.023-.154.053-.154.016 0 .028.028.028.062zm14.954.502c.013.086.007.098-.045.084-.041-.011-.061-.044-.061-.103 0-.17.079-.156.106.018zm-2.012.465c.063.127.063.155-.001.155-.034 0-.045-.017-.032-.05.011-.028-.002-.072-.029-.098-.054-.054-.063-.107-.018-.107.016 0 .052.045.08.101zm-11.127.159c-.031.017-.047.047-.035.066s-.006.056-.039.082c-.056.044-.057.046-.002.027.032-.011.065-.02.072-.02s.013-.028.013-.061c0-.034.018-.068.04-.076s.033-.022.024-.032c-.009-.01-.042-.004-.073.014zm-2.046.418c-.02.059-.089.069-.089.013 0-.028.023-.051.051-.051s.045.017.038.038zm15.495.226c.001.11-.067.114-.117.007-.03-.065-.028-.09.013-.13.061-.061.103-.012.104.123zm-15.633.006c-.065.122-.111.121-.111-.001 0-.053.024-.088.072-.106.1-.038.107-.02.039.107zm17.259.024c-.015.102-.09.113-.09.013 0-.054.018-.083.05-.083s.047.023.04.07zm-19.001.328c-.033.086-.097.087-.097.002 0-.04.098-.12.121-.098.005.005-.006.048-.024.096zm11.823.466c0 .041-.018.081-.04.088-.026.009-.04-.021-.04-.088s.014-.097.04-.088c.022.007.04.047.04.088zm1.568.193c-.016.049-.032.06-.056.036s-.022-.049.008-.084c.053-.064.077-.041.048.048zm5.84.111c0 .024-.014.053-.032.064s-.032-.016-.032-.064.014-.075.032-.064c.018.011.032.04.032.064zm.088.2c.02.059-.078.049-.1-.01-.013-.035-.003-.047.034-.04.029.006.059.028.067.05zm-11.678.722c-.015.102-.08.099-.096-.004-.011-.078-.004-.09.046-.077.038.01.056.039.05.081zm-8.032.027c.005.044-.013.099-.04.121-.043.036-.05.025-.05-.093 0-.149.072-.171.09-.028zm19.942.329c0 .061-.013.118-.03.128-.041.025-.075-.096-.05-.175.032-.102.08-.074.08.046zm-17.728.537c-.038.035-.076.057-.085.048-.026-.026.093-.149.124-.129.016.01-.002.046-.04.082zm-.216.368c-.022.008-.04.048-.04.089s-.022.082-.049.09c-.034.011-.032.014.008.01.031-.003.062-.034.068-.069s.028-.074.047-.086c.044-.028.019-.054-.035-.035zm18.263.449c-.001.141-.004.147-.048.09-.063-.083-.062-.242.001-.242.036 0 .048.038.047.152zm-20.762.42a1.724 1.724 0 00-.044.178c-.013.088-.071.081-.084-.011-.007-.046.009-.088.04-.106.028-.016.051-.069.051-.118s.01-.1.023-.112c.042-.042.049.05.013.168zm18.817-.092c.028.075.027.075-.037.017-.071-.064-.087-.126-.028-.106.02.007.05.047.065.089zm-15.597.119c-.048.007-.134.007-.192 0s-.018-.013.087-.013c.106 0 .153.006.105.013zm1.535 0c-.048.007-.128.007-.176 0s-.009-.013.088-.013.136.006.088.013zm1.569 0c-.048.007-.134.007-.192 0s-.018-.013.087-.013c.106 0 .153.006.105.013zm3.103 0c-.048.007-.128.007-.176 0s-.009-.013.088-.013.136.006.088.013zm1.569 0c-.048.007-.134.007-.192 0s-.018-.013.087-.013c.106 0 .153.006.105.013zm3.103 0c-.048.007-.128.007-.176 0s-.009-.013.088-.013.136.006.088.013zm1.569 0c-.048.007-.134.007-.192 0s-.018-.013.087-.013c.106 0 .153.006.105.013zm1.568 0c-.048.007-.134.007-.192 0s-.018-.013.087-.013c.106 0 .153.006.105.013zm1.487 0c-.04.008-.104.008-.144 0s-.007-.014.072-.014.112.006.072.014zm2.264.987c0 .079-.044.104-.08.046-.028-.045.014-.165.05-.142.016.01.03.054.03.096zm-20.853.51c.026.026.056.048.065.048s.009-.022-.001-.048c-.01-.026-.04-.048-.065-.048-.041 0-.041.006.001.048zm20.373-.016c0 .018-.014.032-.032.032s-.032.022-.032.048c0 .027-.028.048-.064.048s-.064-.016-.064-.035c0-.019.029-.043.064-.052s.064-.029.064-.045c0-.016.014-.028.032-.028s.032.014.032.032zm-12.576.177c0 .071.018.12.048.131s.048.06.048.127c0 .06.014.109.032.109s.032.049.032.108.022.126.048.148.048.075.048.118.013.07.028.06.046.004.068.03c.033.04.028.048-.03.048s-.062.008-.028.045c.026.029.054.034.078.015.053-.043.08.052.043.15-.045.118-.038.262.013.292.041.024.057.087.105.404.01.067.038.13.063.139s.045.041.045.07c0 .042.006.044.028.008.037-.058.099-.017.099.066 0 .05-.015.062-.064.049-.035-.009-.064-.004-.064.012s.014.029.032.029.032.05.032.112c0 .078.014.112.048.112.035 0 .048.035.048.126 0 .069.014.135.032.146s.032.077.032.146c0 .069.013.126.029.126s.034.058.041.128c.008.089 0 .128-.029.128-.022 0-.041-.022-.041-.048s-.022-.048-.048-.048c-.026 0-.048-.014-.048-.032s-.029-.032-.064-.032-.064-.014-.064-.032-.058-.057-.128-.088c-.07-.03-.128-.066-.128-.08s-.036-.024-.08-.024c-.044 0-.08-.015-.08-.034 0-.038-.079-.126-.113-.126-.012 0 .002.037.032.083.069.106.046.129-.06.06-.089-.058-.108-.109-.043-.113.032-.002.032-.006 0-.019-.022-.009-.04-.037-.04-.061s-.027-.045-.061-.045-.095-.036-.136-.079c-.041-.044-.101-.08-.131-.08s-.056-.015-.056-.033c0-.018-.033-.032-.072-.032s-.099-.036-.132-.08c-.033-.044-.087-.08-.12-.08s-.06-.014-.06-.032c0-.018-.023-.032-.052-.032-.043 0-.045.008-.011.049.058.07.024.086-.059.029-.08-.056-.097-.159-.022-.13.026.01.048.004.048-.013s-.028-.031-.062-.031-.071-.014-.082-.032c-.011-.018-.041-.032-.067-.032s-.081-.036-.122-.08-.105-.08-.142-.08c-.038 0-.068-.014-.068-.032s-.018-.032-.04-.032c-.022 0-.08-.037-.128-.081-.065-.06-.088-.069-.088-.032 0 .027-.021.049-.046.049-.062 0-.093-.054-.042-.074.022-.009-.001-.014-.052-.011-.053.003-.099-.014-.108-.038-.011-.031.003-.037.053-.022.04.013.068.008.068-.013 0-.019-.033-.034-.072-.034s-.099-.036-.132-.08c-.033-.044-.087-.08-.12-.08s-.06-.014-.06-.032a.032.032 0 00-.033-.032c-.031 0-.068-.025-.173-.12-.025-.022-.074-.04-.111-.04s-.066-.016-.066-.036c0-.023-.035-.029-.098-.016-.104.021-.26-.054-.25-.12.01-.062-.042-.148-.088-.148-.024 0-.045-.014-.045-.032s-.036-.032-.08-.032c-.05 0-.08-.018-.08-.048 0-.027-.028-.048-.064-.048s-.064-.014-.064-.032-.022-.032-.048-.032c-.026 0-.048-.014-.048-.032s-.036-.032-.08-.032c-.044 0-.08-.015-.08-.034 0-.036-.078-.126-.11-.126-.01 0 .005.036.033.08.058.088.029.1-.097.043-.079-.036-.111-.091-.052-.091.016 0 .021-.029.012-.064s-.044-.064-.078-.064-.1-.036-.148-.08-.104-.08-.127-.08-.04-.014-.04-.032c0-.018-.02-.032-.044-.032s-.086-.022-.136-.048c-.082-.043.141-.048 2.14-.048h2.232v.113zm3.176-.092c-.022.009-.04.065-.04.125 0 .076-.015.109-.048.109-.035 0-.048.037-.048.142 0 .078-.014.151-.032.162s-.032.069-.032.13c0 .076-.015.11-.048.11s-.048.034-.048.112c0 .062-.014.112-.032.112s-.032.051-.032.114-.022.136-.048.162-.048.089-.048.14c0 .05-.014.101-.032.112-.056.035-.034.075.032.057.049-.013.064-.001.064.049 0 .083-.062.124-.099.066-.021-.032-.028-.025-.028.03 0 .041.014.065.032.054.037-.023.027.075-.015.142-.024.038-.033.035-.053-.016-.017-.044-.025-.022-.026.074-.001.077-.018.136-.038.136s-.027-.022-.017-.048c.01-.026.004-.048-.013-.048s-.031.05-.031.112-.014.112-.032.112-.032-.042-.032-.094-.011-.101-.025-.109c-.014-.008-.019.044-.012.117.011.116.006.127-.036.092-.06-.05-.092-.16-.052-.184s.037-.27-.003-.27c-.018 0-.032-.058-.032-.128 0-.092-.013-.128-.048-.128s-.048-.035-.048-.126c0-.069-.014-.135-.032-.146s-.032-.077-.032-.146c0-.091-.013-.126-.048-.126-.027 0-.05-.031-.052-.072l-.004-.072-.014.072c-.03.158-.074.025-.054-.166.014-.135.009-.209-.015-.224-.02-.012-.036-.071-.036-.13s-.022-.129-.048-.156c-.026-.026-.048-.091-.048-.144s-.018-.103-.04-.112c-.022-.009.298-.016.712-.016s.734.007.712.016zm6.112.002c-.051.01-.072.036-.072.092 0 .043-.014.078-.031.078s-.023-.022-.013-.048c.01-.026.002-.048-.017-.048s-.035.013-.035.03-.032.034-.072.04c-.041.006-.074.035-.077.067-.004.04-.001.042.01.008.018-.058.062-.063.093-.012.012.02-.004.056-.036.08-.079.058-.111.054-.111-.011 0-.042-.009-.046-.038-.016-.021.021-.064.038-.096.038s-.058.012-.058.028c0 .015.036.021.08.012.093-.018.084.068-.011.1a.558.558 0 00-.204.131c-.012.017-.033.02-.046.008s-.007-.041.014-.062a.138.138 0 00.038-.082c0-.035-.009-.034-.048.004-.026.026-.048.063-.048.082s-.025.035-.056.037c-.049.002-.049.005.005.026.055.022.051.031-.042.097-.109.077-.168.07-.1-.013.033-.04.031-.049-.011-.049-.029 0-.052.014-.052.032s-.029.032-.065.032c-.036 0-.073.022-.083.048s-.041.048-.068.048-.097.036-.154.08c-.058.044-.12.08-.139.08s-.034.014-.034.032-.027.032-.06.032-.087.036-.12.08-.093.08-.132.08c-.04 0-.072.011-.072.025s-.05.052-.112.085c-.062.033-.112.072-.112.087s-.029.027-.065.027c-.036 0-.073.022-.083.048s-.038.048-.063.048c-.024 0-.045.014-.045.032s-.029.032-.064.032c-.036 0-.064.021-.064.048 0 .03-.03.048-.08.048-.044 0-.08.014-.08.032s-.02.032-.045.032c-.025 0-.053.022-.063.048s-.048.048-.083.048c-.036 0-.065.014-.065.032s-.029.032-.064.032-.064.014-.064.032-.022.032-.048.032a.049.049 0 00-.048.048c0 .03-.03.048-.08.048-.044 0-.08.014-.08.032s-.018.032-.04.032c-.022 0-.079.036-.127.08s-.116.08-.152.08c-.036 0-.065.015-.065.034 0 .056-.087.126-.158.126-.036 0-.066.014-.066.032s-.028.032-.062.032-.071.014-.082.032.001.024.027.014.056-.002.068.016c.02.033-.02.047-.102.037-.023-.003-.032.015-.021.044.01.027.004.049-.015.049s-.074.038-.123.083c-.049.046-.144.105-.21.132s-.12.059-.12.073c0 .014-.025.033-.056.044a.556.556 0 00-.204.129c-.024.033-.092-.002-.092-.048 0-.018.014-.023.032-.012s.032.005.032-.014-.022-.034-.048-.034-.048.022-.048.048c0 .027-.029.048-.066.048-.071 0-.158.069-.158.126 0 .019-.026.034-.058.034-.07 0-.059-.223.014-.266.024-.014.044-.074.044-.134s.014-.117.032-.128c.018-.011.032-.077.032-.146 0-.091.013-.126.048-.126.034 0 .048-.034.048-.112 0-.062.014-.112.032-.112s.032-.05.032-.112.014-.112.032-.112.032-.013.032-.029-.029-.021-.064-.012c-.078.02-.085-.048-.018-.194a.873.873 0 00.056-.162c.02-.123.099-.099.085.025-.007.064-.002.116.012.116s.026-.065.026-.144c0-.079.014-.144.032-.144s.032-.058.032-.128c0-.092.013-.128.048-.128s.048-.037.048-.144c0-.079.014-.144.032-.144s.032-.058.032-.128c0-.092.013-.128.048-.128.034 0 .048-.034.048-.112 0-.062.014-.112.032-.112s.032-.05.032-.112.014-.112.032-.112.032-.058.032-.128v-.128l2.232.004c1.228.002 2.2.011 2.16.018zm2.828.249c-.01.026-.004.048.013.048s.031-.013.031-.03.032-.036.072-.044c.064-.012.063-.014-.013-.018-.049-.002-.092.016-.103.044zm-18.973.165c-.023.037.03.128.059.1.011-.011.007-.045-.01-.075s-.039-.041-.049-.025zm4.028.568c.019.049.173.091.173.047 0-.015-.029-.028-.064-.028s-.064-.014-.064-.032c0-.018-.014-.032-.031-.032s-.023.02-.014.045zm4.902.089c-.02.059-.089.069-.089.013 0-.028.023-.051.051-.051s.045.017.038.038zm6.363 1.419c-.011.028-.033.043-.05.033s-.039-.004-.05.014c-.011.018.01.033.047.033.063 0 .124-.079.089-.115-.009-.009-.025.007-.036.035zm-3.468.127c-.022.025-.04.06-.04.079s-.017.033-.037.033c-.02 0-.027.01-.015.022s.064-.024.116-.08c.051-.056.076-.102.055-.101s-.056.022-.078.047zm-.321.24c-.022.035-.031.064-.021.064s.056-.029.101-.064c.071-.056.073-.064.021-.064-.033 0-.079.029-.101.064zm-3.518.58c-.065.065-.146-.005-.084-.073.05-.056.058-.056.085-.009.018.032.018.064-.001.082zm-1.225 1.084c0 .018-.022.032-.048.032s-.048-.014-.048-.032c0-.018.022-.032.048-.032s.048.014.048.032zm4.368.544c-.032.035-.048.064-.035.064.034 0 .125-.096.108-.114-.008-.008-.041.014-.073.05zm-.393.224c-.022.035-.032.064-.021.064.024 0 .11-.086.11-.11 0-.041-.051-.014-.089.046zm-.178.117c-.009.009-.034.007-.055-.006-.028-.017-.026-.03.006-.05.043-.027.084.021.049.056zm-1.735.365c-.031.05-.125.033-.165-.031-.021-.033-.031-.068-.022-.077.027-.027.206.076.187.108zM16.224.608c0 .022.02.031.045.022s.053.003.063.029c.01.025.037.046.061.046.051 0 .06-.084.009-.088a.793.793 0 01-.107-.025c-.047-.014-.072-.009-.072.017zm.775.796c-.032.02-.028.042.019.1.039.048.075.065.102.048.034-.021.033-.033-.006-.061a.194.194 0 01-.061-.074c-.008-.023-.03-.028-.055-.013zm.65.936c.026.083.091.156.138.156.072 0 .003-.142-.096-.195-.059-.032-.063-.028-.042.038zm-4.097.87c-.099.086-.116.117-.09.163.028.05.046.037.149-.106.135-.188.115-.208-.059-.057zm4.756-.012c-.031.019-.022.047.036.115.052.061.085.078.1.053.013-.02.008-.037-.011-.037s-.034-.028-.034-.062c0-.075-.037-.103-.092-.068zm-4.936.269c-.028.02-.061.07-.074.11s-.036.064-.052.054c-.016-.01-.021.003-.011.029.011.029-.02.075-.08.12-.054.04-.098.1-.098.133s-.014.051-.032.04-.032-.003-.032.018c0 .02-.036.066-.08.1-.075.059-.115.204-.05.181.031-.011.36-.429.518-.657.093-.134.089-.197-.007-.127zm5.589.604c-.014.035.001.085.041.136.06.077.064.077.08.017.009-.035.005-.056-.01-.047s-.04-.023-.057-.072c-.026-.074-.035-.079-.054-.033zm-1.821.243c-.021.034.169.212.197.184.023-.023-.093-.185-.144-.202-.019-.006-.043.001-.053.018zm-4.454.085c-.034.026-.047.047-.03.048s.01.016-.016.033-.032.031-.013.032c.042.001.158-.121.136-.143-.008-.009-.043.006-.077.031zm6.942.607c-.019.049.102.202.134.17.019-.019-.071-.217-.1-.217-.009 0-.024.021-.034.046zm-1.804.25c0 .052.008.06.028.029.02-.032.032-.026.045.027.01.038.033.061.052.049.022-.014.016-.047-.018-.099-.064-.098-.108-.1-.108-.006zm2.45.597c-.027.044.049.195.099.195.024 0 .043-.014.043-.032s-.014-.032-.032-.032c-.018 0-.032-.028-.032-.062 0-.07-.05-.114-.078-.069zm-1.824.255c-.01.016.033.067.094.114.125.095.145.07.045-.058-.069-.088-.11-.104-.139-.056zm2.517.778c.026.039.067.076.092.082.031.008.027-.003-.01-.033-.042-.034-.046-.054-.018-.082s.02-.037-.037-.037c-.069 0-.071.005-.028.07zm-1.823.131c.008.042.089.116.128.118.036.002-.048-.123-.095-.141-.022-.008-.037.002-.033.023zm-6.82.57c-.139.176-.033.131.117-.05.034-.04.034-.049 0-.048-.023.001-.075.045-.117.098zm9.26.061c-.011.018.007.078.042.132.035.056.071.084.083.065s.006-.042-.012-.053c-.018-.011-.033-.047-.033-.08 0-.071-.051-.111-.08-.064zm-9.52.256c-.056.07-.089.128-.074.128.041 0 .266-.192.266-.226 0-.07-.098-.02-.192.098zm4.767-.031c-.041.025-.04.036.004.081.043.043.054.044.069.006.026-.069-.018-.121-.074-.087zm2.945.049c0 .027.014.041.032.03s.032-.005.032.014.024.034.053.034c.048 0 .047-.006-.005-.064-.069-.077-.112-.082-.112-.014zm-4.848.174c-.011.035-.034.056-.05.046s-.022.002-.012.027c.01.025-.005.054-.032.065s-.05.048-.05.083c0 .076.08.058.108-.024.01-.03.047-.101.082-.158.05-.081.054-.104.019-.104-.025 0-.054.029-.066.064zm-3.031.03c-.097.113-.154.215-.132.237.012.012.001.022-.024.022-.055.001-.382.451-.357.492.01.016.035.005.056-.024s.052-.053.067-.053.048-.03.071-.067c.028-.045.03-.06.004-.044-.021.013-.014-.013.016-.058s.074-.089.099-.099.069-.075.097-.146c.028-.07.068-.125.087-.121s.041-.025.047-.065c.006-.04.024-.072.041-.072s.03-.014.03-.032c0-.051-.045-.037-.103.03zm2.823.303c0 .024-.043.091-.096.151s-.096.119-.096.132c-.001.055.092.018.14-.056.162-.251.154-.231.101-.251-.029-.011-.049-.001-.049.024zm7.573.235c-.024.038.087.146.117.115.033-.033.026-.081-.009-.06-.017.01-.043-.005-.06-.034-.017-.03-.038-.039-.049-.021zm-4.928.16c-.025.04.102.175.142.15.026-.016.022-.032-.015-.052-.029-.016-.052-.05-.052-.076 0-.049-.05-.064-.075-.022zm3.138-.004c-.011.011-.007.043.008.072s.037.08.047.114c.013.042.03.051.052.028s.014-.064-.028-.133c-.034-.055-.07-.091-.08-.081zm-11.207.209c-.035.036-.06.078-.056.094s-.016.029-.046.029c-.042 0-.046.009-.017.038s.012.055-.074.113c-.065.044-.111.102-.111.14 0 .036-.013.057-.028.047s-.026.008-.024.038c.002.031-.011.053-.029.05s-.037.037-.041.09c-.008.107.042.099.092-.016.031-.072.099-.186.126-.213.009-.009.056-.07.104-.136l.172-.232c.093-.124.043-.156-.068-.043zm13.627.465c-.041.014.037.202.084.202s.063-.094.02-.119c-.023-.014-.048-.041-.055-.06s-.029-.029-.049-.022zm-1.802.192c-.001.021.014.048.033.059s.026.042.016.068c-.01.026-.005.038.011.028s.034.007.041.038c.011.053.013.053.033.001.014-.036-.005-.086-.056-.144-.043-.049-.078-.071-.079-.05zm-3.201.052c0 .058.078.212.114.226.056.022.06-.048.006-.107-.032-.034-.032-.039 0-.02.073.041.041-.005-.04-.058-.044-.029-.08-.047-.08-.04zm-9.133.081a.04.04 0 00.014.054c.049.03.081-.011.04-.052-.023-.023-.041-.024-.054-.002zm7.42.103c-.03.049.011.081.052.04.023-.023.024-.041.002-.054a.04.04 0 00-.054.014zm.072.124c-.01.036-.004.074.012.084.042.026.076-.08.037-.118-.021-.021-.038-.01-.049.034zm-5.601.74c-.027.102.007.168.062.122.056-.047.056-.107 0-.154-.035-.029-.048-.022-.062.031zm7.858-.043c-.058.021-.05.051.039.155.061.071.088.084.117.054s.026-.043-.015-.059a.091.091 0 01-.053-.079c0-.067-.03-.092-.088-.072zm4.728.065c.001.081.051.148.092.122.048-.03.045-.078-.01-.133-.06-.06-.082-.058-.082.01zm-6.441.167c-.011.042.008.079.06.113.091.059.092.057.026-.074-.059-.118-.065-.121-.087-.038zm-6.095.041c.017.051.12.072.12.024 0-.02-.014-.027-.032-.016s-.032.005-.032-.014-.016-.034-.035-.034-.029.018-.021.04zm10.296.327c0 .093.05.133.077.062.029-.077.024-.101-.029-.121-.034-.013-.048.003-.048.059zm-6.231.041a.798.798 0 01-.095.155c-.088.117-.092.141-.023.141.028 0 .059-.029.068-.064s.03-.064.047-.064.021-.014.01-.032.004-.041.033-.052c.042-.016.044-.026.01-.047-.032-.02-.033-.027-.003-.028.022 0 .04-.015.04-.032 0-.054-.065-.036-.087.024zm-6.386.059a.45.45 0 00.001.158c.014.124.008.143-.044.143-.051 0-.052.005-.012.032.032.021.035.031.008.032-.022 0-.04.023-.04.051 0 .102.071.023.131-.146.076-.215.052-.364-.044-.269zm12.575.067c-.036.009-.051.033-.04.063a.28.28 0 01.018.079c0 .061.057-.005.072-.084.008-.044.014-.079.012-.077s-.03.011-.062.019zm-1.878.202c-.038.024-.039.038-.008.069.047.047.082.02.067-.049-.008-.035-.025-.041-.059-.02zm-4.535.056a.19.19 0 01-.043.072 1.59 1.59 0 00-.159.299c0 .007.042-.024.092-.071.062-.056.08-.092.056-.108s-.017-.024.019-.024c.036 0 .049-.017.037-.048s0-.048.033-.048c.03 0 .051-.027.051-.064 0-.079-.059-.084-.087-.008zm-1.788.019c-.011.029-.032.045-.047.036-.04-.025-.058.025-.032.095.02.055.029.05.076-.045.029-.059.047-.114.038-.123s-.024.008-.035.037zm6.355.081c0 .058.087.104.106.056.01-.025.009-.054-.002-.065-.029-.029-.104-.023-.104.009zm-1.772.054c-.01.027-.006.042.01.032s.041.018.056.061c.019.056.04.071.07.052.036-.022.034-.042-.012-.111-.063-.096-.097-.105-.124-.034zm-6.324.152c0 .096.059.145.099.082.032-.051.039-.145.008-.114-.012.012-.04.005-.064-.015-.034-.028-.043-.019-.043.046zm1.545-.01c-.009.035-.029.056-.045.046s-.019.005-.009.032c.011.029-.002.057-.032.069-.028.011-.051.047-.051.079 0 .04.016.053.048.041.026-.01.048-.038.048-.063s.012-.045.027-.045c.023 0 .051-.045.127-.2.006-.013-.012-.024-.042-.024s-.061.029-.07.064zm10.993.052c.013.107.067.133.096.046.008-.025 0-.033-.022-.02s-.036-.002-.036-.042c0-.035-.011-.071-.025-.08s-.02.034-.012.096zm-11.21.332c-.011.035-.034.056-.05.046s-.03.006-.03.036-.025.074-.056.097c-.034.026-.04.043-.016.044.049.001.168-.098.168-.14 0-.017.024-.057.053-.089.048-.052.048-.058.002-.058-.028 0-.06.029-.071.064zm7.312.348c0 .058.087.104.106.056.01-.025.009-.054-.002-.065-.029-.029-.104-.023-.104.009zm-1.746.118c.028.02.05.053.05.072s.021.027.047.017c.07-.027.001-.137-.082-.131-.058.004-.06.01-.016.042zm5.924.248c-.035.075.04.31.099.31.057 0 .055-.054-.003-.086-.025-.014-.051-.083-.057-.154-.009-.099-.018-.115-.039-.07zm-1.593.15c-.02.123.018.194.073.139.024-.024.021-.066-.011-.142l-.045-.108-.018.112zm-12.441-.019c0 .025-.01.071-.021.101-.015.038-.01.048.016.033.021-.013.037-.005.037.017 0 .028.01.03.033.007s.023-.06.001-.118c-.035-.093-.066-.111-.066-.04zm1.632.084c0 .073.049.084.075.018a.048.048 0 00-.029-.063c-.03-.012-.046.004-.046.045zM9.6 13.44c0 .06.009.068.038.038s.03-.047 0-.077-.038-.021-.038.038zm-1.657.087c-.009.103.024.158.061.101.041-.064.034-.146-.013-.164-.026-.01-.044.014-.048.064zm14.025.057a1.045 1.045 0 01-.051.16c-.061.128-.062.213-.003.201.039-.008.052-.037.045-.101-.006-.057.011-.107.048-.137.032-.026.04-.038.018-.027s-.04.006-.04-.011.017-.037.037-.044c.027-.009.028-.029.002-.074-.032-.057-.036-.054-.056.034zm-1.652-.011c-.002.023-.002.055.001.07s-.019.045-.049.067c-.043.031-.045.045-.012.066.051.031.167-.099.153-.171-.012-.062-.088-.088-.093-.032zm-10.788.014c-.035.035-.029.237.006.237a.056.056 0 00.045-.025c.024-.039-.025-.239-.052-.212zm-1.634.162c.014.038.009.046-.02.028-.031-.019-.035-.007-.017.051.042.136.067.128.099-.03.016-.08.01-.102-.031-.102-.034 0-.044.017-.031.053zm10.634.152c0 .025.023.053.051.064s.043.04.033.066c-.021.054.029.097.058.05.024-.039-.069-.225-.112-.225-.017 0-.031.02-.031.045zm-8.368.552c.039.039.048.084.033.168-.013.074-.009.1.01.071.025-.037.032-.037.047 0 .01.024.018.007.02-.038.003-.107-.066-.254-.12-.254-.031 0-.028.014.011.053zm14.014-.024c.01.016.001.035-.019.042-.024.008-.029.044-.015.1.012.048.036.079.053.068.042-.026.04-.239-.003-.239-.019 0-.026.013-.016.029zm-1.591.235c-.017.115-.002.162.043.134.038-.023.039-.197.001-.22-.016-.01-.036.029-.044.086zm-3.511.181c0 .016.023.037.051.048s.043.04.033.066c-.021.053.027.094.076.064.042-.026-.063-.208-.119-.208-.023 0-.041.013-.041.029zm-6.372.158c-.026.031-.057.08-.069.11s-.034.055-.051.055c-.016 0-.038.022-.048.048-.013.033.002.048.046.048.041 0 .056-.014.042-.037-.012-.02.004-.056.036-.08s.046-.043.029-.044c-.017 0 .004-.027.046-.059s.063-.067.046-.078c-.017-.01-.052.006-.078.037zm-.243.349a.207.207 0 01-.04.072c-.077.065-.133.202-.093.227.027.017.048.012.057-.012.007-.021.035-.055.061-.074s.038-.05.027-.069c-.011-.018.001-.042.027-.052.054-.02.066-.148.015-.148-.018 0-.042.025-.054.056zm-3.414.272c-.008.04-.021.108-.028.152s-.024.105-.037.136c-.014.032-.01.056.009.056s.042-.058.054-.128.035-.12.051-.11c.016.01.029-.026.029-.08 0-.113-.056-.132-.077-.026zm1.426.011c-.049.034-.065.069-.052.112.011.034.008.058-.007.053-.03-.01-.042.016-.042.089 0 .078.044.032.124-.13.084-.168.079-.196-.024-.125zm10.929.034c-.03.03.014.107.061.107.024 0 .045-.008.045-.018 0-.033-.088-.107-.106-.089zm-9.134.034c-.048.017-.054.137-.007.137.037 0 .075-.079.058-.122-.006-.016-.029-.022-.051-.014zm-4.872.103c0 .052.013.102.029.112.034.021.078-.131.051-.175-.038-.061-.079-.028-.079.064zm15.456-.06c0 .019-.017.024-.037.011-.023-.014-.028-.009-.014.014.033.053.115.045.115-.011 0-.026-.014-.048-.032-.048s-.032.015-.032.034zm1.601.054a.3.3 0 00.048.15c.043.058.047.051.047-.088 0-.112-.012-.15-.048-.15-.031 0-.048.031-.047.088zm-4.829.083c-.004.147.071.15.086.003.006-.067.001-.081-.021-.049-.024.036-.033.033-.045-.016-.009-.033-.017-.005-.019.062zm1.868-.043c.011.018.041.032.068.032s.039-.014.028-.032c-.011-.018-.041-.032-.068-.032s-.039.014-.028.032zm1.394.08c-.001.094.048.164.072.102.01-.026-.002-.074-.027-.107-.043-.057-.045-.057-.045.005zm-12.637.099c-.042.029-.066.071-.056.097s-.004.054-.03.064c-.053.02-.066.139-.014.139.018 0 .042-.025.054-.056s.054-.101.095-.155c.112-.149.091-.187-.049-.09zm9.329.066c.015.039.009.046-.022.027s-.037-.012-.021.029a.33.33 0 01.022.093c.002.061.095-.081.095-.145 0-.032-.021-.058-.047-.058-.031 0-.04.018-.027.053zm2.431.651c.059.1.09.117.121.066.01-.016-.01-.039-.044-.05-.038-.012-.056-.038-.045-.066s-.002-.046-.035-.046c-.049 0-.049.008.004.096zm-9.493.12a.21.21 0 00.027.098c.036.057.115-.037.089-.105-.026-.067-.117-.061-.116.008zm10.612.154c-.031.08-.023.132.012.078.026-.041.031-.04.032.008 0 .031.015.056.032.056.048 0 .039-.115-.012-.157-.034-.028-.049-.025-.064.015zm1.653.053c-.018.023-.023.07-.01.105.022.061.025.06.063-.011.046-.085.002-.162-.053-.093zm-16.214.556c-.033.085-.022.141.027.141.063 0 .082-.04.061-.122-.021-.082-.06-.09-.087-.019zm13.966.003c.002.072.118.178.137.126.011-.029.007-.052-.009-.052s-.051-.023-.079-.05c-.028-.028-.05-.038-.05-.024zm-15.595.066c-.025.042.016.232.046.214.038-.024.037-.238-.002-.238a.056.056 0 00-.044.024zm1.567.207c-.021.081-.008.105.041.075.041-.025.046-.145.006-.145-.016 0-.037.032-.047.071zm12.348-.041c-.01.017.01.046.046.065.055.03.065.025.065-.03 0-.066-.077-.09-.111-.035zm-7.985.11c0 .114.102.29.134.232.024-.042.017-.07-.029-.11-.033-.03-.055-.079-.048-.11s-.004-.056-.023-.056-.034.02-.034.044zm7.793-.014c-.022.035.029.074.058.044s.025-.074-.01-.074c-.017 0-.038.013-.049.03zm-9.36.138c-.001.048-.002.098-.004.111s.011.028.028.033c.053.018.065-.073.02-.154L11.298 18l-.001.088zm7.684.002c-.003.032-.019.049-.037.038-.019-.012-.032.021-.032.078 0 .1.052.134.083.053.01-.025.011-.086.004-.136s-.016-.065-.018-.033zm1.575.038c-.01.026-.011.069-.001.094s-.003.063-.029.084c-.053.044-.062.126-.014.126.018 0 .032-.023.032-.051s.028-.087.062-.13c.034-.044.054-.1.045-.125-.023-.06-.072-.059-.095.002zm2.879.161c-.014.036-.008.064.015.072.021.007.038.032.038.056s.013.052.029.062c.037.023.008-.179-.031-.22-.017-.018-.038-.005-.051.03zm1.624.063c-.003.104.053.172.092.112.044-.067.04-.096-.013-.096-.025 0-.053-.018-.061-.04s-.017-.011-.018.024zm-6.229.051c-.012.019-.005.051.016.072.036.036.096-.016.098-.083.001-.037-.089-.028-.113.011zm4.306.235a.6.6 0 00.037.096c.036.079.123.114.123.05 0-.018-.013-.032-.028-.032s-.036-.029-.045-.064c-.014-.054-.087-.095-.087-.05zm-1.728.144c0 .016.022.051.048.078s.039.074.029.106c-.016.049-.013.05.016.01s.035-.04.035-.003c0 .025.01.036.021.025.027-.027-.078-.246-.118-.246a.03.03 0 00-.03.03zM10.32 19a.655.655 0 01-.092.141c-.04.028.004.132.045.107.018-.011.025-.032.016-.047s.006-.05.034-.078c.028-.028.039-.051.024-.051s.008-.027.05-.06c.043-.033.067-.075.054-.095-.037-.06-.065-.042-.131.084zm1.283.187c-.027.071-.024.084.013.061.018-.011.032.003.032.03s.016.05.036.05c.026 0 .026.012 0 .044-.028.033-.025.053.012.084.065.054.066-.055.002-.209-.052-.124-.066-.133-.094-.06zm1.651-.011c-.023.028-.02.063.008.116l.041.077.015-.102c.016-.112-.012-.153-.064-.091zm-3.133.152c-.009.035-.029.064-.045.064s-.028.017-.028.038c0 .021-.025.065-.055.098-.047.052-.048.064-.008.09.032.02.05.015.057-.018.006-.026.025-.047.042-.047s.023-.014.012-.031.01-.056.046-.087c.069-.059.089-.17.03-.17-.019 0-.043.029-.052.064zm-1.865.115c0 .028.017.045.038.038.059-.02.069-.089.013-.089a.051.051 0 00-.051.051zm15.479.09c-.041.041-.043.065-.013.13.05.107.117.103.117-.007-.001-.135-.043-.184-.104-.123zm-15.567.022c-.048.018-.072.054-.072.106 0 .122.045.122.111.001.068-.127.062-.145-.039-.107zm-1.672.093c.041.026.04.031-.008.032-.065.001-.071.041-.021.135.028.053.041.057.064.022.051-.081.034-.22-.027-.22-.048 0-.049.005-.008.032zm18.884.04c-.004.087.038.118.076.056.011-.018.006-.032-.012-.032s-.038-.025-.046-.056c-.009-.034-.016-.022-.018.032zm-3.428.057c0 .018.022.041.049.052.032.012.042.042.03.087-.015.054-.012.058.015.02.025-.035.034-.037.034-.006 0 .023.015.033.033.022.042-.026-.063-.208-.119-.208-.023 0-.041.015-.041.033zm-15.509.216c-.01.039-.031.062-.047.053s-.028-.003-.028.014.014.041.032.052c.034.021.11-.141.08-.171-.01-.01-.026.013-.036.052zm13.464.344c-.038.085-.065.179-.06.208s-.011.077-.036.107c-.031.038-.035.064-.011.088s.045 0 .071-.079c.02-.062.054-.119.075-.127.028-.01.029-.03.004-.074s-.023-.082.008-.14c.023-.044.042-.06.042-.035s.009.037.019.026c.01-.01.005-.044-.012-.075-.026-.047-.042-.031-.1.1zm-7.916.135c-.02.102-.005.136.059.136.05 0 .056-.039.026-.152-.026-.098-.065-.091-.085.016zm1.629.03c.023.127.076.172.076.064l.002-.11c.001-.013-.02-.028-.046-.034-.036-.008-.044.012-.032.08zm4.588.01c0 .067.014.097.04.088.022-.007.04-.047.04-.088s-.018-.081-.04-.088c-.026-.009-.04.021-.04.088zm-.049.158c.01.016 0 .036-.022.044-.032.012-.032.024.001.058.035.037.046.036.072-.004.042-.066.039-.086-.019-.108-.027-.01-.042-.006-.032.01zm4.424.13c-.009.035-.004.056.012.046s.029.003.029.028.022.064.048.086c.064.053.064-.004-.001-.13-.058-.112-.066-.115-.088-.03zm3.049.016c0 .048.014.075.032.064s.032-.04.032-.064-.014-.053-.032-.064c-.018-.011-.032.016-.032.064zm.052.19c.023.059.12.069.1.01-.007-.022-.037-.045-.067-.05-.037-.007-.047.005-.034.04zm-13.308.69c-.02.127.004.17.071.128.04-.025.04-.042-.004-.134l-.05-.106-.017.112zm1.634.035c.008.052.03.09.05.083.062-.02.059-.113-.004-.147-.054-.029-.059-.022-.046.063zm-8.026.062c0 .118.006.129.05.093.057-.047.05-.195-.01-.215-.028-.009-.04.028-.04.121zm17.14-.047c-.011.028-.006.041.013.03s.032.009.032.043c0 .059.072.115.105.081.022-.022-.072-.204-.104-.204-.014 0-.035.022-.045.05zm-17.218.267c-.01.016-.009.052.002.081.023.061.108.009.108-.066 0-.049-.082-.06-.11-.015zm20.06 0c.01.016.001.035-.019.042-.024.008-.029.044-.015.1.012.048.036.079.053.068.042-.026.04-.239-.003-.239-.019 0-.026.013-.016.029zm-6.72.502c-.011.034-.04.107-.065.162-.053.119-.056.171-.013.171.018 0 .032-.015.032-.034s.014-.025.032-.014c.02.012.024-.018.012-.078-.013-.065-.007-.098.018-.098.021 0 .03-.013.02-.029s0-.036.022-.044c.032-.012.032-.024.001-.056s-.043-.03-.059.02zm-11.003.082c-.075.088-.041.114.045.034.038-.035.056-.072.04-.082s-.054.012-.085.048zm9.357.009c0 .043-.022.099-.048.126s-.048.092-.048.146c0 .068-.015.098-.051.098-.053 0-.048.068.006.087.033.011.121-.172.15-.311.009-.044.027-.112.039-.152.014-.045.009-.072-.013-.072-.02 0-.036.035-.036.078zm-3.261.162c-.002.105.104.271.147.229.014-.014-.001-.046-.034-.07-.044-.032-.054-.066-.039-.128.013-.051.009-.077-.009-.065-.017.01-.038.001-.047-.021s-.017.003-.018.056zm-6.261.07c-.033.049-.081.126-.105.17l-.097.171-.091.16c-.05.088.007.115.082.04.043-.043.045-.058.01-.079-.032-.02-.026-.031.025-.044.037-.01.065-.03.063-.044-.013-.073.006-.14.035-.123.018.011.032-.001.032-.027s.023-.055.051-.066c.028-.011.045-.037.037-.059s.006-.054.029-.072c.025-.019.032-.049.016-.074-.02-.031-.042-.019-.087.048zm15.658-.062c-.007.013.021.056.062.095.084.08.086.078.043-.037-.03-.079-.08-.107-.105-.058zm-11.057.045c.007.02.036.041.064.045.033.005.046-.009.035-.037-.021-.054-.117-.061-.099-.008zm.098.141c-.022.04-.025.084-.008.111.035.057.076-.028.057-.119-.011-.053-.015-.052-.048.008zm13.463.424c0 .049.021.118.047.152.044.057.047.051.048-.09.001-.114-.011-.152-.047-.152-.031 0-.048.031-.048.09zm-20.68.326c-.011.026-.028.101-.039.166s-.036.123-.056.13c-.021.007-.027.037-.015.068.029.077.086.035.086-.064 0-.044.015-.109.034-.144s.028-.095.022-.134c-.009-.052-.017-.058-.031-.022zm18.728-.008c0 .016.029.056.065.089.064.058.065.058.037-.017s-.102-.128-.102-.071zm-15.687.191c.058.007.144.007.192 0s.001-.013-.105-.013-.145.006-.087.013zm1.551 0c.048.007.128.007.176 0s.009-.013-.088-.013-.136.006-.088.013zm1.553 0c.058.007.144.007.192 0s.001-.013-.105-.013-.145.006-.087.013zm3.119 0c.048.007.128.007.176 0s.009-.013-.088-.013-.136.006-.088.013zm1.553 0c.058.007.144.007.192 0s.001-.013-.105-.013-.145.006-.087.013zm3.119 0c.048.007.128.007.176 0s.009-.013-.088-.013-.136.006-.088.013zm1.553 0c.058.007.144.007.192 0s.001-.013-.105-.013-.145.006-.087.013zm1.568 0c.058.007.144.007.192 0s.001-.013-.105-.013-.145.006-.087.013zm1.535 0c.04.008.104.008.144 0s.007-.014-.072-.014-.112.006-.072.014zm2.328.936c-.022.069.001.129.05.129.039 0 .039-.151 0-.175-.016-.01-.039.01-.05.046zm-20.858.375c-.012.019.001.044.028.054s.042.032.032.048c-.018.029.111.077.137.051.023-.023-.064-.112-.108-.112a.06.06 0 01-.054-.038c-.009-.027-.019-.028-.034-.003zm20.394.166c0 .016-.029.036-.064.045-.065.017-.091.087-.032.087.018 0 .032-.018.032-.04 0-.027.011-.024.032.008.026.041.031.04.032-.008 0-.031.015-.056.032-.056s.032-.014.032-.032c0-.018-.014-.032-.032-.032s-.032.013-.032.028zm-.254.145a.552.552 0 01-.15.098c-.095.045-.106.061-.072.102.036.043.044.043.077-.002.02-.028.059-.051.086-.051.042 0 .152-.126.152-.175 0-.033-.057-.016-.094.028zm-3.233.179c-.025.016-.057.021-.071.012s-.026.007-.026.034c0 .062.034.063.114.005.069-.051.054-.095-.017-.051zm2.807.094c-.088.051-.1.099-.03.123.021.007.038-.011.038-.04s.012-.045.026-.037c.04.025.102-.026.077-.063-.015-.022-.052-.017-.11.017zm-3.085.052c-.011.03-.04.042-.07.03-.028-.011-.041-.01-.029.002s-.01.047-.049.079-.059.069-.045.083c.014.014.036.012.048-.005a.558.558 0 01.204-.131c.082-.028.1-.108.024-.108-.035 0-.073.022-.083.05zm-15.659.034c0 .041.009.044.045.014s.05-.024.067.031c.017.052.031.06.059.032s.022-.049-.025-.083c-.082-.061-.146-.058-.146.006zm3.112.001c-.066.027-.046.065.057.107.119.049.14.033.076-.058-.05-.072-.064-.077-.133-.049zm12.135.225c-.071.109-.038.127.079.043.115-.082.116-.085.035-.106-.043-.011-.079.009-.115.063zm-6.393.159c-.032.032-.027.164.006.185.035.022.072-.148.039-.182-.013-.013-.034-.015-.046-.003zm-7.878.171c-.011.018-.004.032.016.032s.027.014.016.032c-.011.018.001.024.026.014s.054.005.065.032c.023.06.085.066.085.009s-.182-.161-.208-.119zm3.04 0c-.03.048.102.164.173.152.063-.011.05-.069-.019-.084a.18.18 0 01-.093-.061c-.028-.039-.041-.041-.061-.008zm3.255.07c-.05.05-.049.084.006.139.038.038.047.035.062-.024.025-.096-.017-.166-.068-.115zm-5.351.509c0 .019.029.043.064.052s.056.029.046.045c-.01.016.004.028.03.028.073 0 .096-.062.03-.083a.863.863 0 01-.114-.048c-.038-.02-.056-.018-.056.005zm9.333.018c-.012.012-.021.046-.021.076s-.022.096-.048.147c-.066.126-.062.211.008.197.038-.007.057-.042.059-.106.005-.176.013-.211.045-.191.018.011.032-.016.032-.062 0-.079-.031-.104-.075-.061zm-6.261.041c0 .039.22.144.246.118.011-.011 0-.02-.025-.021-.038 0-.037-.006.003-.035s.038-.031-.01-.016a.115.115 0 01-.106-.029c-.054-.054-.107-.063-.107-.017zm4.594-.001c-.027.044.017.135.058.122.057-.019.064-.151.008-.151-.027 0-.056.013-.066.029zm-.023.196c-.034.02-.047.055-.036.097.02.078.079.037.094-.066.011-.073.012-.073-.059-.032zm-.339.263c-.035.044-.002.164.054.199.021.013.034-.011.034-.061 0-.045-.014-.082-.032-.082s-.032-.015-.032-.034c0-.019.017-.024.037-.011.023.014.028.009.014-.014-.029-.046-.036-.046-.075.003zm-1.652.042c-.025.065.001.11.064.11.031 0 .045-.024.038-.07-.013-.086-.075-.111-.102-.041zm-4.66.038c.001.057.056.11.077.075.012-.02.013-.05.002-.067-.023-.037-.08-.043-.08-.008zm3.04.022c0 .045.128.156.153.132.019-.019-.092-.178-.124-.178-.016 0-.028.021-.028.046zm9.408.226c-.022.026-.059.048-.084.048s-.044.014-.044.032c0 .018-.021.032-.046.032-.066 0-.096.063-.052.107.028.028.052.018.099-.043.034-.044.062-.066.063-.048s.017.006.035-.025c.018-.031.045-.049.06-.04s.035-.005.045-.03c.025-.066-.028-.089-.076-.033zm-3.274.132c-.034.034.009.074.059.055.026-.01.039-.031.029-.047-.021-.034-.059-.037-.088-.008zm2.912.09c-.027.027-.072.05-.1.05s-.05.011-.05.025-.038.047-.084.075c-.082.05-.082.051-.014.069.043.011.076.002.086-.025.009-.024.035-.036.058-.027s.074-.029.113-.084c.077-.108.071-.162-.01-.082zm-3.12.085c-.027.043-.061.058-.1.046-.033-.01-.069-.004-.08.014-.013.02.002.025.037.013.032-.011.003.018-.065.065s-.136.077-.152.067c-.017-.01-.039.005-.05.033s-.04.044-.064.035c-.025-.01-.044.004-.044.032 0 .027-.014.04-.032.029s-.032-.004-.032.016-.014.027-.032.016-.032-.005-.032.012c0 .046.067.081.092.048a.569.569 0 01.204-.129c.031-.01.056-.03.056-.044s.054-.047.12-.075c.173-.073.287-.17.247-.21-.022-.023-.046-.012-.073.032zm-7.973.095c.019.035.052.052.08.042.049-.019.066-.074.024-.078a1.038 1.038 0 01-.08-.013c-.045-.009-.05 0-.024.049zm3.039-.033c-.041.027-.036.041.032.094.132.104.172.074.071-.055-.041-.053-.068-.063-.103-.04zm7.632.137c-.034.042-.057.118-.036.118a.294.294 0 00.065-.08c.053-.081.03-.111-.029-.038zm-9.756.454c.01.026.03.041.044.032s.034.006.044.032c.021.055.148.066.148.013 0-.019-.029-.043-.064-.052s-.064-.029-.064-.045c0-.016-.028-.028-.063-.028-.043 0-.057.015-.045.048zm3.137.011c-.052.058-.052.063-.001.082.073.028.123-.025.085-.091-.027-.047-.034-.047-.085.009zm-2.133.581c0 .018.012.032.026.032s.054.023.088.05c.034.028.042.04.017.027-.03-.015-.037-.011-.022.014.032.052.083.046.083-.009 0-.025-.032-.069-.071-.096-.082-.058-.121-.063-.121-.018zm.896.576c0 .018.022.032.048.032s.048-.014.048-.032c0-.018-.022-.032-.048-.032s-.048.014-.048.032zm.144.064c-.022.036-.025.035.069.045.046.005.063-.006.053-.035-.019-.05-.093-.056-.121-.01zm4.528.224c0 .018-.015.032-.034.032s-.081.036-.139.08a.536.536 0 01-.127.08c-.022 0-.322.195-.399.26-.032.027-.033.045-.006.072s.06.009.127-.068c.061-.07.108-.098.144-.084s.05.005.043-.024c-.005-.025.015-.042.047-.039.031.002.056-.016.056-.041s.024-.042.054-.036c.03.005.07-.022.09-.062.028-.054.045-.062.074-.034s.038.028.038-.003c0-.022.016-.03.037-.017.022.014.028.009.015-.012-.012-.019-.007-.044.011-.055.042-.026.042-.08.001-.08a.032.032 0 00-.032.032zm-3.658.301c-.023.06.001.08.077.06.049-.013.055-.026.026-.061-.047-.056-.081-.056-.103.001zm2.831.24c-.032.02-.034.033-.006.05.044.027.077.003.061-.044-.007-.019-.029-.022-.055-.006zm-1.879.326c-.01.016.008.039.04.051s.068.037.081.055c.016.024.034.023.059-.002.027-.027.011-.049-.062-.085-.056-.028-.106-.036-.117-.02z"></path></svg>