<?xml version="1.0" encoding="UTF-8"?>
<svg xmlns="http://www.w3.org/2000/svg" xmlns:xlink="http://www.w3.org/1999/xlink" width="375pt" height="374.999991pt" viewBox="0 0 375 374.999991" version="1.2">
<defs>
<clipPath id="clip1">
  <path d="M 14.765625 16.296875 L 356.015625 16.296875 L 356.015625 357.546875 L 14.765625 357.546875 Z M 14.765625 16.296875 "/>
</clipPath>
</defs>
<g id="surface1">
<path style=" stroke:none;fill-rule:nonzero;fill:rgb(0%,0%,0%);fill-opacity:1;" d="M 186.75 4.070312 C 183.746094 4.070312 180.746094 4.144531 177.75 4.292969 C 174.75 4.441406 171.757812 4.660156 168.769531 4.957031 C 165.785156 5.25 162.804688 5.617188 159.835938 6.058594 C 156.867188 6.496094 153.910156 7.011719 150.964844 7.597656 C 148.019531 8.183594 145.09375 8.839844 142.179688 9.570312 C 139.269531 10.296875 136.375 11.097656 133.503906 11.96875 C 130.632812 12.839844 127.78125 13.78125 124.953125 14.792969 C 122.128906 15.804688 119.328125 16.886719 116.554688 18.035156 C 113.78125 19.183594 111.039062 20.398438 108.324219 21.683594 C 105.609375 22.964844 102.929688 24.316406 100.28125 25.730469 C 97.636719 27.144531 95.023438 28.625 92.449219 30.167969 C 89.875 31.710938 87.339844 33.316406 84.84375 34.984375 C 82.347656 36.652344 79.894531 38.382812 77.480469 40.167969 C 75.070312 41.957031 72.703125 43.804688 70.382812 45.707031 C 68.0625 47.613281 65.792969 49.574219 63.566406 51.589844 C 61.34375 53.605469 59.167969 55.675781 57.046875 57.796875 C 54.925781 59.917969 52.855469 62.09375 50.839844 64.316406 C 48.824219 66.542969 46.863281 68.8125 44.957031 71.132812 C 43.054688 73.453125 41.207031 75.820312 39.417969 78.230469 C 37.632812 80.644531 35.902344 83.097656 34.234375 85.59375 C 32.566406 88.089844 30.960938 90.625 29.417969 93.199219 C 27.875 95.773438 26.394531 98.386719 24.980469 101.03125 C 23.566406 103.679688 22.214844 106.359375 20.933594 109.074219 C 19.648438 111.789062 18.433594 114.53125 17.285156 117.304688 C 16.136719 120.078125 15.054688 122.878906 14.042969 125.703125 C 13.03125 128.53125 12.089844 131.382812 11.21875 134.253906 C 10.347656 137.125 9.546875 140.019531 8.820312 142.929688 C 8.089844 145.84375 7.433594 148.769531 6.847656 151.714844 C 6.261719 154.660156 5.746094 157.617188 5.308594 160.585938 C 4.867188 163.554688 4.5 166.535156 4.207031 169.519531 C 3.910156 172.507812 3.691406 175.5 3.542969 178.5 C 3.394531 181.496094 3.320312 184.496094 3.320312 187.5 C 3.320312 190.5 3.394531 193.503906 3.542969 196.5 C 3.691406 199.5 3.910156 202.492188 4.207031 205.480469 C 4.5 208.464844 4.867188 211.445312 5.308594 214.414062 C 5.746094 217.382812 6.261719 220.339844 6.847656 223.285156 C 7.433594 226.230469 8.089844 229.15625 8.820312 232.070312 C 9.546875 234.980469 10.347656 237.875 11.21875 240.746094 C 12.089844 243.617188 13.03125 246.46875 14.042969 249.296875 C 15.054688 252.121094 16.136719 254.921875 17.285156 257.695312 C 18.433594 260.46875 19.648438 263.210938 20.933594 265.925781 C 22.214844 268.640625 23.566406 271.320312 24.980469 273.96875 C 26.394531 276.613281 27.875 279.226562 29.417969 281.800781 C 30.960938 284.375 32.566406 286.910156 34.234375 289.40625 C 35.902344 291.902344 37.632812 294.355469 39.417969 296.769531 C 41.207031 299.179688 43.054688 301.546875 44.957031 303.867188 C 46.863281 306.1875 48.824219 308.457031 50.839844 310.683594 C 52.855469 312.90625 54.925781 315.082031 57.046875 317.203125 C 59.167969 319.324219 61.34375 321.394531 63.566406 323.410156 C 65.792969 325.425781 68.0625 327.386719 70.382812 329.292969 C 72.703125 331.195312 75.070312 333.042969 77.480469 334.832031 C 79.894531 336.617188 82.347656 338.347656 84.84375 340.015625 C 87.339844 341.683594 89.875 343.289062 92.449219 344.832031 C 95.023438 346.375 97.636719 347.855469 100.28125 349.269531 C 102.929688 350.683594 105.609375 352.035156 108.324219 353.316406 C 111.039062 354.601562 113.78125 355.816406 116.554688 356.964844 C 119.328125 358.113281 122.128906 359.195312 124.953125 360.207031 C 127.78125 361.21875 130.632812 362.15625 133.503906 363.03125 C 136.375 363.902344 139.269531 364.703125 142.179688 365.429688 C 145.09375 366.160156 148.019531 366.816406 150.964844 367.402344 C 153.910156 367.988281 156.867188 368.503906 159.835938 368.941406 C 162.804688 369.382812 165.785156 369.75 168.769531 370.042969 C 171.757812 370.339844 174.75 370.558594 177.75 370.707031 C 180.746094 370.855469 183.746094 370.929688 186.75 370.929688 C 189.75 370.929688 192.753906 370.855469 195.75 370.707031 C 198.75 370.558594 201.742188 370.339844 204.730469 370.042969 C 207.714844 369.75 210.695312 369.382812 213.664062 368.941406 C 216.632812 368.503906 219.589844 367.988281 222.535156 367.402344 C 225.480469 366.816406 228.40625 366.160156 231.320312 365.429688 C 234.230469 364.703125 237.125 363.902344 239.996094 363.03125 C 242.867188 362.15625 245.71875 361.214844 248.546875 360.207031 C 251.371094 359.195312 254.171875 358.113281 256.945312 356.964844 C 259.71875 355.816406 262.460938 354.601562 265.175781 353.316406 C 267.890625 352.035156 270.570312 350.683594 273.21875 349.269531 C 275.863281 347.855469 278.476562 346.375 281.050781 344.832031 C 283.625 343.289062 286.160156 341.683594 288.65625 340.015625 C 291.152344 338.347656 293.605469 336.617188 296.019531 334.832031 C 298.429688 333.042969 300.796875 331.195312 303.117188 329.292969 C 305.4375 327.386719 307.707031 325.425781 309.933594 323.410156 C 312.15625 321.394531 314.332031 319.324219 316.453125 317.203125 C 318.574219 315.082031 320.644531 312.90625 322.660156 310.683594 C 324.675781 308.457031 326.636719 306.1875 328.542969 303.867188 C 330.445312 301.546875 332.292969 299.179688 334.082031 296.769531 C 335.867188 294.355469 337.597656 291.902344 339.265625 289.40625 C 340.933594 286.910156 342.539062 284.375 344.082031 281.800781 C 345.625 279.226562 347.105469 276.613281 348.519531 273.96875 C 349.933594 271.320312 351.285156 268.640625 352.566406 265.925781 C 353.851562 263.210938 355.066406 260.46875 356.214844 257.695312 C 357.363281 254.921875 358.445312 252.121094 359.457031 249.296875 C 360.46875 246.46875 361.40625 243.617188 362.28125 240.746094 C 363.152344 237.875 363.953125 234.980469 364.679688 232.070312 C 365.410156 229.15625 366.066406 226.230469 366.652344 223.285156 C 367.238281 220.339844 367.753906 217.382812 368.191406 214.414062 C 368.632812 211.445312 369 208.464844 369.292969 205.480469 C 369.589844 202.492188 369.808594 199.5 369.957031 196.5 C 370.105469 193.503906 370.179688 190.5 370.179688 187.5 C 370.179688 184.496094 370.105469 181.496094 369.957031 178.5 C 369.808594 175.5 369.589844 172.507812 369.292969 169.519531 C 369 166.535156 368.632812 163.554688 368.191406 160.585938 C 367.753906 157.617188 367.238281 154.660156 366.652344 151.714844 C 366.066406 148.769531 365.410156 145.84375 364.679688 142.929688 C 363.953125 140.019531 363.152344 137.125 362.28125 134.253906 C 361.40625 131.382812 360.464844 128.53125 359.457031 125.703125 C 358.445312 122.878906 357.363281 120.078125 356.214844 117.304688 C 355.066406 114.53125 353.851562 111.789062 352.566406 109.074219 C 351.285156 106.359375 349.933594 103.679688 348.519531 101.03125 C 347.105469 98.386719 345.625 95.773438 344.082031 93.199219 C 342.539062 90.625 340.933594 88.089844 339.265625 85.59375 C 337.597656 83.097656 335.867188 80.644531 334.082031 78.230469 C 332.292969 75.820312 330.445312 73.453125 328.542969 71.132812 C 326.636719 68.8125 324.675781 66.542969 322.660156 64.316406 C 320.644531 62.09375 318.574219 59.917969 316.453125 57.796875 C 314.332031 55.675781 312.15625 53.605469 309.933594 51.589844 C 307.707031 49.574219 305.4375 47.613281 303.117188 45.707031 C 300.796875 43.804688 298.429688 41.957031 296.019531 40.167969 C 293.605469 38.382812 291.152344 36.652344 288.65625 34.984375 C 286.160156 33.316406 283.625 31.710938 281.050781 30.167969 C 278.476562 28.625 275.863281 27.144531 273.21875 25.730469 C 270.570312 24.316406 267.890625 22.964844 265.175781 21.683594 C 262.460938 20.398438 259.71875 19.183594 256.945312 18.035156 C 254.171875 16.886719 251.371094 15.804688 248.546875 14.792969 C 245.71875 13.78125 242.867188 12.839844 239.996094 11.96875 C 237.125 11.097656 234.230469 10.296875 231.320312 9.570312 C 228.40625 8.839844 225.480469 8.183594 222.535156 7.597656 C 219.589844 7.011719 216.632812 6.496094 213.664062 6.058594 C 210.695312 5.617188 207.714844 5.25 204.730469 4.957031 C 201.742188 4.660156 198.75 4.441406 195.75 4.292969 C 192.753906 4.144531 189.75 4.070312 186.75 4.070312 Z M 186.75 4.070312 "/>
<g clip-path="url(#clip1)" clip-rule="nonzero">
<path style=" stroke:none;fill-rule:evenodd;fill:rgb(0%,0%,0%);fill-opacity:1;" d="M 126.074219 17.476562 C 92.753906 29.089844 62.445312 51.027344 42.320312 78.09375 C 41.539062 79.144531 40.804688 80.082031 40.6875 80.175781 C 40.167969 80.589844 33.128906 91.324219 30.859375 95.160156 C 25.535156 104.164062 19.628906 117.011719 15.835938 127.832031 L 14.757812 130.910156 L 14.847656 188.464844 L 14.9375 246.023438 L 16.570312 250.121094 C 17.46875 252.375 18.449219 254.914062 18.75 255.757812 C 21.773438 264.332031 29.289062 278.597656 36.476562 289.40625 C 42.820312 298.945312 48.757812 306.175781 57.613281 315.144531 C 75.742188 333.511719 96.828125 347.246094 120.921875 356.386719 L 124.894531 357.894531 L 247.582031 357.894531 L 252.359375 356.050781 C 270.8125 348.933594 286.390625 339.78125 303.246094 326.144531 C 307.332031 322.839844 320.164062 310.195312 322.847656 306.828125 C 323.894531 305.511719 325.535156 303.515625 326.484375 302.386719 C 329.675781 298.609375 335.910156 290.042969 338.089844 286.445312 C 338.277344 286.132812 339.632812 283.902344 341.101562 281.492188 C 342.570312 279.082031 345.492188 273.648438 347.59375 269.421875 C 351.425781 261.722656 351.863281 260.769531 353.289062 256.953125 C 353.707031 255.828125 354.277344 254.394531 354.550781 253.777344 C 356.507812 249.34375 356.359375 254.769531 356.367188 187.796875 C 356.371094 120.757812 356.523438 126.238281 354.550781 121.78125 C 354.277344 121.164062 353.550781 119.347656 352.941406 117.75 C 350.765625 112.078125 344.789062 100.1875 340.570312 93.15625 C 320.152344 59.105469 288.019531 32.734375 249.597656 18.496094 L 243.679688 16.300781 L 186.527344 16.316406 L 129.371094 16.328125 L 126.074219 17.476562 M 94.511719 32.980469 C 93.929688 33.492188 91.625 34.800781 91.625 34.617188 C 91.625 34.519531 92.277344 34.046875 93.078125 33.570312 C 94.550781 32.683594 95.097656 32.460938 94.511719 32.980469 M 81.035156 41.722656 C 81.035156 41.804688 80.535156 42.199219 79.925781 42.605469 L 78.816406 43.339844 L 79.839844 42.457031 C 80.890625 41.554688 81.035156 41.464844 81.035156 41.722656 M 75.910156 45.460938 C 75.910156 45.53125 75.183594 46.160156 74.289062 46.855469 L 72.667969 48.121094 L 74.203125 46.726562 C 75.726562 45.347656 75.910156 45.210938 75.910156 45.460938 M 66.003906 53.628906 C 66.003906 53.679688 65.121094 54.5625 64.042969 55.589844 L 62.078125 57.457031 L 63.945312 55.496094 C 65.679688 53.667969 66.003906 53.375 66.003906 53.628906 M 311.617188 58.140625 C 312.636719 59.175781 313.394531 60.019531 313.300781 60.019531 C 313.207031 60.019531 312.296875 59.175781 311.277344 58.140625 C 310.253906 57.109375 309.496094 56.261719 309.589844 56.261719 C 309.683594 56.261719 310.597656 57.109375 311.617188 58.140625 M 315.886719 62.410156 C 316.8125 63.351562 317.492188 64.121094 317.398438 64.121094 C 317.304688 64.121094 316.46875 63.351562 315.546875 62.410156 C 314.621094 61.472656 313.941406 60.703125 314.035156 60.703125 C 314.128906 60.703125 314.960938 61.472656 315.886719 62.410156 M 56.097656 63.53125 C 56.097656 63.585938 55.0625 64.621094 53.792969 65.839844 L 51.488281 68.046875 L 53.699219 65.742188 C 55.75 63.601562 56.097656 63.28125 56.097656 63.53125 M 277.054688 64.429688 C 280.539062 66 281.460938 69.167969 279.691406 73.472656 C 279.234375 74.574219 275.210938 82.261719 270.746094 90.550781 C 261.933594 106.90625 261.078125 108.691406 261.070312 110.75 C 261.054688 114.085938 259.125 111.054688 289.121094 154.816406 C 312.875 189.472656 311.164062 186.453125 310.835938 193.042969 C 310.523438 199.46875 303.734375 238.769531 302.527344 241.167969 C 300.292969 245.609375 300.109375 245.664062 275.238281 249.105469 C 259.894531 251.230469 259.449219 251.464844 258.007812 258.109375 C 256.550781 264.820312 257.796875 263.816406 214.945312 292.828125 C 202.914062 300.972656 209.28125 298.960938 160.425781 310.050781 C 118.933594 319.472656 118.808594 319.496094 116.421875 318.960938 C 111.441406 317.84375 110.964844 317.058594 104.5 299.140625 C 101.957031 292.097656 96.261719 276.3125 91.839844 264.066406 C 87.417969 251.820312 83.546875 240.90625 83.234375 239.8125 C 82.578125 237.519531 81.890625 200.910156 82.179688 183.851562 C 82.382812 171.953125 82.71875 170.65625 87.003906 165.40625 C 91.820312 159.5 91.828125 159.585938 84.992188 144.769531 C 78.480469 130.648438 76.289062 124.429688 76.71875 121.28125 C 77.222656 117.609375 77.878906 116.921875 94.902344 102.148438 C 112.671875 86.726562 113.445312 86.152344 119.53125 83.839844 L 121.515625 83.085938 L 163.363281 82.910156 L 205.207031 82.738281 L 207.164062 81.777344 C 209.609375 80.574219 210.402344 79.617188 213.585938 73.980469 C 219.730469 63.109375 218.378906 63.484375 250.984375 63.554688 L 275.238281 63.605469 L 277.054688 64.429688 M 230.332031 75.425781 C 226.464844 76.09375 225.285156 77.246094 221.40625 84.109375 C 217.933594 90.261719 215.59375 92.613281 211.699219 93.882812 C 210.617188 94.234375 201.265625 94.367188 166.949219 94.511719 L 123.566406 94.691406 L 121.34375 95.746094 C 118.792969 96.957031 118.230469 97.410156 104.4375 109.375 C 86.425781 124.992188 87.199219 121.535156 96.964844 142.773438 C 105.699219 161.769531 105.730469 162.410156 98.292969 170.695312 C 97.027344 172.105469 95.585938 174.027344 95.089844 174.96875 L 94.1875 176.675781 L 94.1875 205.882812 C 94.1875 233.214844 94.226562 235.234375 94.816406 237.308594 C 95.367188 239.246094 106.417969 270.113281 115.003906 293.703125 C 119.910156 307.171875 120.167969 307.316406 133.8125 304.121094 C 137.570312 303.242188 144.640625 301.617188 149.527344 300.511719 C 202.554688 288.527344 198.738281 289.5625 204.867188 285.515625 C 213.109375 280.070312 241.792969 260.277344 243.074219 259.148438 C 245.183594 257.292969 246.230469 254.972656 247.070312 250.300781 C 248.699219 241.222656 249.238281 240.894531 266.511719 238.496094 C 295.453125 234.472656 291.886719 237.707031 296.277344 211.519531 C 300.042969 189.105469 300.753906 192.492188 288.503906 174.625 C 283.996094 168.050781 273.5625 152.832031 265.316406 140.808594 C 243.890625 109.5625 244.925781 113.890625 254.570312 95.890625 C 263.734375 78.789062 263.949219 77.882812 259.351562 75.78125 C 257.949219 75.140625 233.691406 74.84375 230.332031 75.425781 M 320.15625 308.796875 C 320.15625 308.84375 317.429688 311.574219 314.09375 314.859375 L 308.03125 320.832031 L 314.003906 314.769531 C 319.554688 309.136719 320.15625 308.550781 320.15625 308.796875 M 59.34375 315.539062 C 62.347656 318.542969 64.726562 321.003906 64.632812 321.003906 C 64.539062 321.003906 62.003906 318.542969 59.003906 315.539062 C 56 312.53125 53.621094 310.074219 53.714844 310.074219 C 53.808594 310.074219 56.34375 312.53125 59.34375 315.539062 M 98.457031 345.105469 C 98.457031 345.199219 97.996094 345.035156 97.433594 344.746094 C 96.871094 344.453125 96.40625 344.136719 96.40625 344.042969 C 96.40625 343.949219 96.871094 344.113281 97.433594 344.402344 C 97.996094 344.695312 98.457031 345.011719 98.457031 345.105469 M 103.09375 347.566406 C 102.941406 347.722656 99.484375 346 99.484375 345.769531 C 99.484375 345.679688 100.324219 346.019531 101.351562 346.523438 C 102.378906 347.027344 103.164062 347.5 103.09375 347.566406 "/>
</g>
<path style=" stroke:none;fill-rule:evenodd;fill:rgb(100%,100%,100%);fill-opacity:1;" d="M 93.078125 33.570312 C 92.277344 34.046875 91.625 34.519531 91.625 34.617188 C 91.625 34.800781 93.929688 33.492188 94.511719 32.980469 C 95.097656 32.460938 94.550781 32.683594 93.078125 33.570312 M 79.839844 42.457031 L 78.816406 43.339844 L 79.925781 42.605469 C 80.535156 42.199219 81.035156 41.804688 81.035156 41.722656 C 81.035156 41.464844 80.890625 41.554688 79.839844 42.457031 M 74.203125 46.726562 L 72.667969 48.121094 L 74.289062 46.855469 C 75.710938 45.746094 76.132812 45.328125 75.828125 45.332031 C 75.78125 45.332031 75.050781 45.960938 74.203125 46.726562 M 63.945312 55.496094 L 62.078125 57.457031 L 64.042969 55.589844 C 65.867188 53.855469 66.160156 53.53125 65.90625 53.53125 C 65.855469 53.53125 64.972656 54.414062 63.945312 55.496094 M 311.277344 58.140625 C 312.296875 59.175781 313.207031 60.019531 313.300781 60.019531 C 313.394531 60.019531 312.636719 59.175781 311.617188 58.140625 C 310.597656 57.109375 309.683594 56.261719 309.589844 56.261719 C 309.496094 56.261719 310.253906 57.109375 311.277344 58.140625 M 315.546875 62.410156 C 316.46875 63.351562 317.304688 64.121094 317.398438 64.121094 C 317.492188 64.121094 316.8125 63.351562 315.886719 62.410156 C 314.960938 61.472656 314.128906 60.703125 314.035156 60.703125 C 313.941406 60.703125 314.621094 61.472656 315.546875 62.410156 M 53.699219 65.742188 L 51.488281 68.046875 L 53.792969 65.839844 C 55.0625 64.621094 56.097656 63.585938 56.097656 63.53125 C 56.097656 63.28125 55.75 63.601562 53.699219 65.742188 M 224.851562 63.816406 C 220.183594 64.597656 217.539062 66.984375 213.585938 73.980469 C 210.402344 79.617188 209.609375 80.574219 207.164062 81.777344 L 205.207031 82.738281 L 163.363281 82.910156 L 121.515625 83.085938 L 119.53125 83.839844 C 113.445312 86.152344 112.671875 86.726562 94.902344 102.148438 C 77.878906 116.921875 77.222656 117.609375 76.71875 121.28125 C 76.289062 124.429688 78.480469 130.648438 84.992188 144.769531 C 91.828125 159.585938 91.820312 159.5 87.003906 165.40625 C 82.71875 170.65625 82.382812 171.953125 82.179688 183.851562 C 81.890625 200.910156 82.578125 237.519531 83.234375 239.8125 C 83.546875 240.90625 87.417969 251.820312 91.839844 264.066406 C 96.261719 276.3125 101.957031 292.097656 104.5 299.140625 C 110.964844 317.058594 111.441406 317.84375 116.421875 318.960938 C 118.808594 319.496094 118.933594 319.472656 160.425781 310.050781 C 209.28125 298.960938 202.914062 300.972656 214.945312 292.828125 C 257.796875 263.816406 256.550781 264.820312 258.007812 258.109375 C 259.449219 251.464844 259.894531 251.230469 275.238281 249.105469 C 300.109375 245.664062 300.292969 245.609375 302.527344 241.167969 C 303.734375 238.769531 310.523438 199.46875 310.835938 193.042969 C 311.164062 186.453125 312.875 189.472656 289.121094 154.816406 C 259.125 111.054688 261.054688 114.085938 261.070312 110.75 C 261.078125 108.691406 261.933594 106.90625 270.746094 90.550781 C 275.210938 82.261719 279.234375 74.574219 279.691406 73.472656 C 281.460938 69.167969 280.539062 66 277.054688 64.429688 L 275.238281 63.605469 L 250.984375 63.554688 C 237.542969 63.527344 225.890625 63.644531 224.851562 63.816406 M 259.351562 75.78125 C 263.949219 77.882812 263.734375 78.789062 254.570312 95.890625 C 244.925781 113.890625 243.890625 109.5625 265.316406 140.808594 C 273.5625 152.832031 283.996094 168.050781 288.503906 174.625 C 300.753906 192.492188 300.042969 189.105469 296.277344 211.519531 C 292.730469 232.679688 292.671875 232.871094 289.070312 234.660156 C 287.058594 235.660156 287.746094 235.546875 266.511719 238.496094 C 249.238281 240.894531 248.699219 241.222656 247.070312 250.300781 C 246.230469 254.972656 245.183594 257.292969 243.074219 259.148438 C 241.792969 260.277344 213.109375 280.070312 204.867188 285.515625 C 198.738281 289.5625 202.554688 288.527344 149.527344 300.511719 C 144.640625 301.617188 137.570312 303.242188 133.8125 304.121094 C 120.167969 307.316406 119.910156 307.171875 115.003906 293.703125 C 106.417969 270.113281 95.367188 239.246094 94.816406 237.308594 C 94.226562 235.234375 94.1875 233.214844 94.1875 205.882812 L 94.1875 176.675781 L 95.089844 174.96875 C 95.585938 174.027344 97.027344 172.105469 98.292969 170.695312 C 105.730469 162.410156 105.699219 161.769531 96.964844 142.773438 C 87.199219 121.535156 86.425781 124.992188 104.4375 109.375 C 118.230469 97.410156 118.792969 96.957031 121.34375 95.746094 L 123.566406 94.691406 L 166.949219 94.511719 C 201.265625 94.367188 210.617188 94.234375 211.699219 93.882812 C 215.59375 92.613281 217.933594 90.261719 221.40625 84.109375 C 226.652344 74.824219 225.992188 75.070312 245.175781 75.167969 C 256.246094 75.226562 258.332031 75.316406 259.351562 75.78125 M 314.003906 314.769531 L 308.03125 320.832031 L 314.09375 314.859375 C 317.429688 311.574219 320.15625 308.84375 320.15625 308.796875 C 320.15625 308.550781 319.554688 309.136719 314.003906 314.769531 M 59.003906 315.539062 C 62.003906 318.542969 64.539062 321.003906 64.632812 321.003906 C 64.726562 321.003906 62.347656 318.542969 59.34375 315.539062 C 56.34375 312.53125 53.808594 310.074219 53.714844 310.074219 C 53.621094 310.074219 56 312.53125 59.003906 315.539062 M 96.40625 344.042969 C 96.40625 344.136719 96.871094 344.453125 97.433594 344.746094 C 97.996094 345.035156 98.457031 345.199219 98.457031 345.105469 C 98.457031 345.011719 97.996094 344.695312 97.433594 344.402344 C 96.871094 344.113281 96.40625 343.949219 96.40625 344.042969 M 99.484375 345.769531 C 99.484375 346 102.941406 347.722656 103.09375 347.566406 C 103.164062 347.5 102.378906 347.027344 101.351562 346.523438 C 100.324219 346.019531 99.484375 345.679688 99.484375 345.769531 "/>
<path style=" stroke:none;fill-rule:nonzero;fill:rgb(0%,0%,0%);fill-opacity:1;" d="M 72.261719 55.207031 C 71.484375 55.207031 70.707031 55.246094 69.929688 55.324219 C 69.15625 55.398438 68.386719 55.511719 67.625 55.664062 C 66.859375 55.816406 66.105469 56.003906 65.363281 56.230469 C 64.617188 56.457031 63.882812 56.71875 63.164062 57.019531 C 62.445312 57.316406 61.742188 57.648438 61.058594 58.015625 C 60.371094 58.382812 59.703125 58.78125 59.054688 59.214844 C 58.410156 59.648438 57.785156 60.109375 57.183594 60.605469 C 56.582031 61.097656 56.003906 61.621094 55.453125 62.171875 C 54.902344 62.71875 54.382812 63.296875 53.886719 63.898438 C 53.394531 64.5 52.929688 65.125 52.5 65.773438 C 52.066406 66.417969 51.664062 67.085938 51.300781 67.773438 C 50.933594 68.460938 50.601562 69.160156 50.300781 69.882812 C 50.003906 70.601562 49.742188 71.332031 49.515625 72.078125 C 49.289062 72.824219 49.101562 73.578125 48.949219 74.339844 C 48.796875 75.105469 48.683594 75.871094 48.605469 76.648438 C 48.53125 77.421875 48.492188 78.199219 48.492188 78.976562 C 48.492188 79.753906 48.53125 80.53125 48.605469 81.308594 C 48.683594 82.082031 48.796875 82.851562 48.949219 83.613281 C 49.101562 84.378906 49.289062 85.132812 49.515625 85.878906 C 49.742188 86.621094 50.003906 87.355469 50.300781 88.074219 C 50.601562 88.792969 50.933594 89.496094 51.300781 90.183594 C 51.664062 90.867188 52.066406 91.535156 52.5 92.183594 C 52.929688 92.828125 53.394531 93.453125 53.886719 94.054688 C 54.382812 94.65625 54.902344 95.234375 55.453125 95.785156 C 56.003906 96.335938 56.582031 96.855469 57.183594 97.351562 C 57.785156 97.84375 58.410156 98.308594 59.054688 98.742188 C 59.703125 99.171875 60.371094 99.574219 61.058594 99.941406 C 61.742188 100.304688 62.445312 100.640625 63.164062 100.9375 C 63.882812 101.234375 64.617188 101.496094 65.363281 101.722656 C 66.105469 101.949219 66.859375 102.136719 67.625 102.289062 C 68.386719 102.441406 69.15625 102.554688 69.929688 102.632812 C 70.707031 102.707031 71.484375 102.746094 72.261719 102.746094 C 73.039062 102.746094 73.816406 102.707031 74.589844 102.632812 C 75.367188 102.554688 76.136719 102.441406 76.898438 102.289062 C 77.660156 102.136719 78.417969 101.949219 79.160156 101.722656 C 79.90625 101.496094 80.636719 101.234375 81.355469 100.9375 C 82.078125 100.640625 82.78125 100.304688 83.464844 99.941406 C 84.152344 99.574219 84.820312 99.171875 85.464844 98.742188 C 86.113281 98.308594 86.738281 97.84375 87.339844 97.351562 C 87.941406 96.855469 88.519531 96.335938 89.070312 95.785156 C 89.617188 95.234375 90.140625 94.65625 90.636719 94.054688 C 91.128906 93.453125 91.59375 92.828125 92.023438 92.183594 C 92.457031 91.535156 92.855469 90.867188 93.222656 90.183594 C 93.589844 89.496094 93.921875 88.792969 94.222656 88.074219 C 94.519531 87.355469 94.78125 86.621094 95.007812 85.878906 C 95.234375 85.132812 95.421875 84.378906 95.574219 83.613281 C 95.726562 82.851562 95.839844 82.082031 95.914062 81.308594 C 95.992188 80.53125 96.03125 79.753906 96.03125 78.976562 C 96.03125 78.199219 95.992188 77.421875 95.914062 76.648438 C 95.839844 75.871094 95.726562 75.105469 95.574219 74.339844 C 95.421875 73.578125 95.234375 72.824219 95.007812 72.078125 C 94.78125 71.332031 94.519531 70.601562 94.222656 69.882812 C 93.921875 69.160156 93.589844 68.460938 93.222656 67.773438 C 92.855469 67.085938 92.457031 66.417969 92.023438 65.773438 C 91.59375 65.125 91.128906 64.5 90.636719 63.898438 C 90.140625 63.296875 89.617188 62.71875 89.070312 62.171875 C 88.519531 61.621094 87.941406 61.097656 87.339844 60.605469 C 86.738281 60.109375 86.113281 59.648438 85.464844 59.214844 C 84.820312 58.78125 84.152344 58.382812 83.464844 58.015625 C 82.78125 57.648438 82.078125 57.316406 81.355469 57.019531 C 80.636719 56.71875 79.90625 56.457031 79.160156 56.230469 C 78.417969 56.003906 77.660156 55.816406 76.898438 55.664062 C 76.136719 55.511719 75.367188 55.398438 74.589844 55.324219 C 73.816406 55.246094 73.039062 55.207031 72.261719 55.207031 Z M 72.261719 55.207031 "/>
<path style=" stroke:none;fill-rule:nonzero;fill:rgb(0%,0%,0%);fill-opacity:1;" d="M 82.707031 42.929688 C 81.929688 42.929688 81.152344 42.964844 80.378906 43.042969 C 79.605469 43.117188 78.835938 43.234375 78.070312 43.382812 C 77.308594 43.535156 76.554688 43.726562 75.808594 43.953125 C 75.0625 44.175781 74.332031 44.4375 73.613281 44.738281 C 72.894531 45.035156 72.191406 45.367188 71.503906 45.734375 C 70.816406 46.101562 70.148438 46.5 69.503906 46.933594 C 68.855469 47.367188 68.230469 47.828125 67.628906 48.324219 C 67.027344 48.816406 66.453125 49.339844 65.902344 49.890625 C 65.351562 50.441406 64.828125 51.015625 64.335938 51.617188 C 63.839844 52.21875 63.378906 52.84375 62.945312 53.492188 C 62.511719 54.140625 62.113281 54.804688 61.746094 55.492188 C 61.378906 56.179688 61.046875 56.882812 60.75 57.601562 C 60.449219 58.320312 60.1875 59.050781 59.960938 59.796875 C 59.738281 60.542969 59.546875 61.296875 59.394531 62.058594 C 59.246094 62.824219 59.128906 63.59375 59.054688 64.367188 C 58.976562 65.140625 58.9375 65.917969 58.9375 66.695312 C 58.9375 67.476562 58.976562 68.253906 59.054688 69.027344 C 59.128906 69.800781 59.246094 70.570312 59.394531 71.335938 C 59.546875 72.097656 59.738281 72.851562 59.960938 73.597656 C 60.1875 74.339844 60.449219 75.074219 60.75 75.792969 C 61.046875 76.511719 61.378906 77.214844 61.746094 77.902344 C 62.113281 78.589844 62.511719 79.253906 62.945312 79.902344 C 63.378906 80.550781 63.839844 81.175781 64.335938 81.777344 C 64.828125 82.378906 65.351562 82.953125 65.902344 83.503906 C 66.453125 84.054688 67.027344 84.578125 67.628906 85.070312 C 68.230469 85.5625 68.855469 86.027344 69.503906 86.460938 C 70.148438 86.894531 70.816406 87.292969 71.503906 87.660156 C 72.191406 88.027344 72.894531 88.359375 73.613281 88.65625 C 74.332031 88.953125 75.0625 89.214844 75.808594 89.441406 C 76.554688 89.667969 77.308594 89.855469 78.070312 90.007812 C 78.835938 90.160156 79.605469 90.273438 80.378906 90.351562 C 81.152344 90.429688 81.929688 90.464844 82.707031 90.464844 C 83.488281 90.464844 84.261719 90.429688 85.039062 90.351562 C 85.8125 90.273438 86.582031 90.160156 87.34375 90.007812 C 88.109375 89.855469 88.863281 89.667969 89.609375 89.441406 C 90.351562 89.214844 91.085938 88.953125 91.804688 88.65625 C 92.523438 88.359375 93.226562 88.027344 93.914062 87.660156 C 94.597656 87.292969 95.265625 86.894531 95.914062 86.460938 C 96.5625 86.027344 97.183594 85.5625 97.789062 85.070312 C 98.390625 84.578125 98.964844 84.054688 99.515625 83.503906 C 100.066406 82.953125 100.589844 82.378906 101.082031 81.777344 C 101.574219 81.175781 102.039062 80.550781 102.472656 79.902344 C 102.902344 79.253906 103.304688 78.589844 103.671875 77.902344 C 104.039062 77.214844 104.371094 76.511719 104.667969 75.792969 C 104.964844 75.074219 105.226562 74.339844 105.453125 73.597656 C 105.679688 72.851562 105.867188 72.097656 106.019531 71.335938 C 106.171875 70.570312 106.285156 69.800781 106.363281 69.027344 C 106.4375 68.253906 106.476562 67.476562 106.476562 66.695312 C 106.476562 65.917969 106.4375 65.140625 106.363281 64.367188 C 106.285156 63.59375 106.171875 62.824219 106.019531 62.058594 C 105.867188 61.296875 105.679688 60.542969 105.453125 59.796875 C 105.226562 59.050781 104.964844 58.320312 104.667969 57.601562 C 104.371094 56.882812 104.039062 56.179688 103.671875 55.492188 C 103.304688 54.804688 102.902344 54.140625 102.472656 53.492188 C 102.039062 52.84375 101.574219 52.21875 101.082031 51.617188 C 100.589844 51.015625 100.066406 50.441406 99.515625 49.890625 C 98.964844 49.339844 98.390625 48.816406 97.789062 48.324219 C 97.183594 47.828125 96.5625 47.367188 95.914062 46.933594 C 95.265625 46.5 94.597656 46.101562 93.914062 45.734375 C 93.226562 45.367188 92.523438 45.035156 91.804688 44.738281 C 91.085938 44.4375 90.351562 44.175781 89.609375 43.953125 C 88.863281 43.726562 88.109375 43.535156 87.34375 43.382812 C 86.582031 43.234375 85.8125 43.117188 85.039062 43.042969 C 84.261719 42.964844 83.488281 42.929688 82.707031 42.929688 Z M 82.707031 42.929688 "/>
<path style=" stroke:none;fill-rule:nonzero;fill:rgb(0%,0%,0%);fill-opacity:1;" d="M 95.28125 36.75 C 94.5 36.75 93.726562 36.789062 92.949219 36.863281 C 92.175781 36.941406 91.40625 37.054688 90.644531 37.207031 C 89.878906 37.359375 89.125 37.546875 88.378906 37.773438 C 87.636719 38 86.902344 38.261719 86.183594 38.558594 C 85.464844 38.855469 84.761719 39.191406 84.074219 39.554688 C 83.390625 39.921875 82.722656 40.324219 82.074219 40.753906 C 81.425781 41.1875 80.804688 41.652344 80.203125 42.144531 C 79.601562 42.640625 79.023438 43.160156 78.472656 43.710938 C 77.921875 44.261719 77.402344 44.839844 76.90625 45.441406 C 76.414062 46.042969 75.949219 46.667969 75.515625 47.3125 C 75.085938 47.960938 74.683594 48.628906 74.316406 49.3125 C 73.949219 50 73.617188 50.703125 73.320312 51.421875 C 73.023438 52.140625 72.761719 52.875 72.535156 53.621094 C 72.308594 54.363281 72.121094 55.117188 71.96875 55.882812 C 71.816406 56.644531 71.703125 57.414062 71.625 58.1875 C 71.550781 58.964844 71.511719 59.742188 71.511719 60.519531 C 71.511719 61.296875 71.550781 62.074219 71.625 62.847656 C 71.703125 63.625 71.816406 64.390625 71.96875 65.15625 C 72.121094 65.917969 72.308594 66.671875 72.535156 67.417969 C 72.761719 68.164062 73.023438 68.894531 73.320312 69.613281 C 73.617188 70.335938 73.949219 71.035156 74.316406 71.722656 C 74.683594 72.410156 75.085938 73.078125 75.515625 73.722656 C 75.949219 74.371094 76.414062 74.996094 76.90625 75.597656 C 77.402344 76.199219 77.921875 76.777344 78.472656 77.324219 C 79.023438 77.875 79.601562 78.398438 80.203125 78.890625 C 80.804688 79.386719 81.425781 79.847656 82.074219 80.28125 C 82.722656 80.714844 83.390625 81.113281 84.074219 81.480469 C 84.761719 81.847656 85.464844 82.179688 86.183594 82.480469 C 86.902344 82.777344 87.636719 83.039062 88.378906 83.265625 C 89.125 83.492188 89.878906 83.679688 90.644531 83.832031 C 91.40625 83.984375 92.175781 84.097656 92.949219 84.171875 C 93.726562 84.25 94.5 84.289062 95.28125 84.289062 C 96.058594 84.289062 96.835938 84.25 97.609375 84.171875 C 98.386719 84.097656 99.152344 83.984375 99.917969 83.832031 C 100.679688 83.679688 101.433594 83.492188 102.179688 83.265625 C 102.925781 83.039062 103.65625 82.777344 104.375 82.480469 C 105.09375 82.179688 105.796875 81.847656 106.484375 81.480469 C 107.171875 81.113281 107.839844 80.714844 108.484375 80.28125 C 109.132812 79.847656 109.757812 79.386719 110.359375 78.890625 C 110.960938 78.398438 111.535156 77.875 112.085938 77.324219 C 112.636719 76.777344 113.160156 76.199219 113.652344 75.597656 C 114.148438 74.996094 114.609375 74.371094 115.042969 73.722656 C 115.476562 73.078125 115.875 72.410156 116.242188 71.722656 C 116.609375 71.035156 116.941406 70.335938 117.238281 69.613281 C 117.539062 68.894531 117.800781 68.164062 118.027344 67.417969 C 118.25 66.671875 118.441406 65.917969 118.59375 65.15625 C 118.746094 64.390625 118.859375 63.625 118.933594 62.847656 C 119.011719 62.074219 119.050781 61.296875 119.050781 60.519531 C 119.050781 59.742188 119.011719 58.964844 118.933594 58.1875 C 118.859375 57.414062 118.746094 56.644531 118.59375 55.882812 C 118.441406 55.117188 118.25 54.363281 118.027344 53.621094 C 117.800781 52.875 117.539062 52.140625 117.238281 51.421875 C 116.941406 50.703125 116.609375 50 116.242188 49.3125 C 115.875 48.628906 115.476562 47.960938 115.042969 47.3125 C 114.609375 46.667969 114.148438 46.042969 113.652344 45.441406 C 113.160156 44.839844 112.636719 44.261719 112.085938 43.710938 C 111.535156 43.160156 110.960938 42.640625 110.359375 42.144531 C 109.757812 41.652344 109.132812 41.1875 108.484375 40.753906 C 107.839844 40.324219 107.171875 39.921875 106.484375 39.554688 C 105.796875 39.191406 105.09375 38.855469 104.375 38.558594 C 103.65625 38.261719 102.925781 38 102.179688 37.773438 C 101.433594 37.546875 100.679688 37.359375 99.917969 37.207031 C 99.152344 37.054688 98.386719 36.941406 97.609375 36.863281 C 96.835938 36.789062 96.058594 36.75 95.28125 36.75 Z M 95.28125 36.75 "/>
<path style=" stroke:none;fill-rule:nonzero;fill:rgb(0%,0%,0%);fill-opacity:1;" d="M 106.476562 26.269531 C 105.699219 26.269531 104.921875 26.308594 104.148438 26.382812 C 103.371094 26.460938 102.605469 26.574219 101.839844 26.726562 C 101.078125 26.878906 100.324219 27.066406 99.578125 27.292969 C 98.832031 27.519531 98.101562 27.78125 97.382812 28.078125 C 96.660156 28.375 95.960938 28.707031 95.273438 29.074219 C 94.585938 29.441406 93.917969 29.84375 93.273438 30.273438 C 92.625 30.707031 92 31.171875 91.398438 31.664062 C 90.796875 32.15625 90.21875 32.679688 89.671875 33.230469 C 89.121094 33.78125 88.597656 34.355469 88.105469 34.960938 C 87.609375 35.5625 87.148438 36.183594 86.714844 36.832031 C 86.28125 37.480469 85.882812 38.148438 85.515625 38.832031 C 85.148438 39.519531 84.816406 40.222656 84.519531 40.941406 C 84.21875 41.660156 83.957031 42.394531 83.730469 43.136719 C 83.503906 43.882812 83.316406 44.636719 83.164062 45.402344 C 83.011719 46.164062 82.898438 46.933594 82.824219 47.707031 C 82.746094 48.484375 82.707031 49.257812 82.707031 50.039062 C 82.707031 50.816406 82.746094 51.59375 82.824219 52.367188 C 82.898438 53.140625 83.011719 53.910156 83.164062 54.675781 C 83.316406 55.4375 83.503906 56.191406 83.730469 56.9375 C 83.957031 57.683594 84.21875 58.414062 84.519531 59.132812 C 84.816406 59.851562 85.148438 60.554688 85.515625 61.242188 C 85.882812 61.929688 86.28125 62.597656 86.714844 63.242188 C 87.148438 63.890625 87.609375 64.515625 88.105469 65.117188 C 88.597656 65.71875 89.121094 66.292969 89.671875 66.84375 C 90.21875 67.394531 90.796875 67.917969 91.398438 68.410156 C 92 68.90625 92.625 69.367188 93.273438 69.800781 C 93.917969 70.234375 94.585938 70.632812 95.273438 71 C 95.960938 71.367188 96.660156 71.699219 97.382812 71.996094 C 98.101562 72.296875 98.832031 72.558594 99.578125 72.785156 C 100.324219 73.007812 101.078125 73.199219 101.839844 73.351562 C 102.605469 73.503906 103.371094 73.617188 104.148438 73.691406 C 104.921875 73.769531 105.699219 73.808594 106.476562 73.808594 C 107.253906 73.808594 108.03125 73.769531 108.808594 73.691406 C 109.582031 73.617188 110.351562 73.503906 111.113281 73.351562 C 111.878906 73.199219 112.632812 73.007812 113.378906 72.785156 C 114.121094 72.558594 114.855469 72.296875 115.574219 71.996094 C 116.292969 71.699219 116.996094 71.367188 117.683594 71 C 118.367188 70.632812 119.035156 70.234375 119.683594 69.800781 C 120.328125 69.367188 120.953125 68.90625 121.554688 68.410156 C 122.15625 67.917969 122.734375 67.394531 123.285156 66.84375 C 123.835938 66.292969 124.355469 65.71875 124.851562 65.117188 C 125.34375 64.515625 125.808594 63.890625 126.242188 63.242188 C 126.671875 62.597656 127.074219 61.929688 127.441406 61.242188 C 127.804688 60.554688 128.140625 59.851562 128.4375 59.132812 C 128.734375 58.414062 128.996094 57.683594 129.222656 56.9375 C 129.449219 56.191406 129.636719 55.4375 129.789062 54.675781 C 129.941406 53.910156 130.054688 53.140625 130.132812 52.367188 C 130.207031 51.59375 130.246094 50.816406 130.246094 50.039062 C 130.246094 49.257812 130.207031 48.484375 130.132812 47.707031 C 130.054688 46.933594 129.941406 46.164062 129.789062 45.402344 C 129.636719 44.636719 129.449219 43.882812 129.222656 43.136719 C 128.996094 42.394531 128.734375 41.660156 128.4375 40.941406 C 128.140625 40.222656 127.804688 39.519531 127.441406 38.832031 C 127.074219 38.148438 126.671875 37.480469 126.242188 36.832031 C 125.808594 36.183594 125.34375 35.5625 124.851562 34.960938 C 124.355469 34.355469 123.835938 33.78125 123.285156 33.230469 C 122.734375 32.679688 122.15625 32.15625 121.554688 31.664062 C 120.953125 31.171875 120.328125 30.707031 119.683594 30.273438 C 119.035156 29.84375 118.367188 29.441406 117.683594 29.074219 C 116.996094 28.707031 116.292969 28.375 115.574219 28.078125 C 114.855469 27.78125 114.121094 27.519531 113.378906 27.292969 C 112.632812 27.066406 111.878906 26.878906 111.113281 26.726562 C 110.351562 26.574219 109.582031 26.460938 108.808594 26.382812 C 108.03125 26.308594 107.253906 26.269531 106.476562 26.269531 Z M 106.476562 26.269531 "/>
<path style=" stroke:none;fill-rule:nonzero;fill:rgb(0%,0%,0%);fill-opacity:1;" d="M 307.4375 55.207031 C 306.539062 55.207031 305.652344 55.296875 304.773438 55.46875 C 303.894531 55.644531 303.042969 55.902344 302.214844 56.246094 C 301.386719 56.589844 300.601562 57.007812 299.859375 57.507812 C 299.113281 58.003906 298.425781 58.570312 297.789062 59.203125 C 297.15625 59.835938 296.59375 60.527344 296.09375 61.269531 C 295.597656 62.015625 295.175781 62.800781 294.832031 63.628906 C 294.492188 64.457031 294.230469 65.308594 294.058594 66.1875 C 293.882812 67.066406 293.796875 67.953125 293.796875 68.847656 C 293.796875 69.742188 293.882812 70.632812 294.058594 71.507812 C 294.230469 72.386719 294.492188 73.242188 294.832031 74.066406 C 295.175781 74.894531 295.597656 75.683594 296.09375 76.425781 C 296.59375 77.171875 297.15625 77.859375 297.789062 78.492188 C 298.425781 79.125 299.113281 79.691406 299.859375 80.191406 C 300.601562 80.6875 301.386719 81.109375 302.214844 81.449219 C 303.042969 81.792969 303.894531 82.050781 304.773438 82.226562 C 305.652344 82.402344 306.539062 82.488281 307.4375 82.488281 C 308.332031 82.488281 309.21875 82.402344 310.097656 82.226562 C 310.976562 82.050781 311.828125 81.792969 312.65625 81.449219 C 313.484375 81.109375 314.269531 80.6875 315.011719 80.191406 C 315.757812 79.691406 316.449219 79.125 317.082031 78.492188 C 317.714844 77.859375 318.28125 77.171875 318.777344 76.425781 C 319.273438 75.683594 319.695312 74.894531 320.039062 74.066406 C 320.378906 73.242188 320.640625 72.386719 320.8125 71.507812 C 320.988281 70.632812 321.074219 69.742188 321.074219 68.847656 C 321.074219 67.953125 320.988281 67.066406 320.8125 66.1875 C 320.640625 65.308594 320.378906 64.457031 320.039062 63.628906 C 319.695312 62.800781 319.273438 62.015625 318.777344 61.269531 C 318.28125 60.527344 317.714844 59.835938 317.082031 59.203125 C 316.449219 58.570312 315.757812 58.003906 315.011719 57.507812 C 314.269531 57.007812 313.484375 56.589844 312.65625 56.246094 C 311.828125 55.902344 310.976562 55.644531 310.097656 55.46875 C 309.21875 55.296875 308.332031 55.207031 307.4375 55.207031 Z M 307.4375 55.207031 "/>
<path style=" stroke:none;fill-rule:nonzero;fill:rgb(0%,0%,0%);fill-opacity:1;" d="M 298.058594 274.804688 C 297.277344 274.804688 296.5 274.839844 295.726562 274.917969 C 294.953125 274.992188 294.183594 275.109375 293.417969 275.257812 C 292.65625 275.410156 291.902344 275.601562 291.15625 275.828125 C 290.410156 276.050781 289.679688 276.3125 288.960938 276.613281 C 288.242188 276.910156 287.539062 277.242188 286.851562 277.609375 C 286.164062 277.976562 285.5 278.375 284.851562 278.808594 C 284.203125 279.242188 283.578125 279.703125 282.976562 280.199219 C 282.375 280.691406 281.800781 281.214844 281.25 281.765625 C 280.699219 282.316406 280.175781 282.890625 279.683594 283.492188 C 279.1875 284.09375 278.726562 284.71875 278.292969 285.367188 C 277.859375 286.015625 277.460938 286.679688 277.09375 287.367188 C 276.726562 288.054688 276.394531 288.757812 276.097656 289.476562 C 275.800781 290.195312 275.539062 290.925781 275.3125 291.671875 C 275.085938 292.417969 274.894531 293.171875 274.746094 293.933594 C 274.59375 294.699219 274.480469 295.46875 274.402344 296.242188 C 274.324219 297.015625 274.289062 297.792969 274.289062 298.570312 C 274.289062 299.351562 274.324219 300.128906 274.402344 300.902344 C 274.480469 301.675781 274.59375 302.445312 274.746094 303.210938 C 274.894531 303.972656 275.085938 304.726562 275.3125 305.472656 C 275.539062 306.214844 275.800781 306.949219 276.097656 307.667969 C 276.394531 308.386719 276.726562 309.089844 277.09375 309.777344 C 277.460938 310.464844 277.859375 311.128906 278.292969 311.777344 C 278.726562 312.425781 279.1875 313.050781 279.683594 313.652344 C 280.175781 314.253906 280.699219 314.828125 281.25 315.378906 C 281.800781 315.929688 282.375 316.453125 282.976562 316.945312 C 283.578125 317.4375 284.203125 317.902344 284.851562 318.335938 C 285.5 318.769531 286.164062 319.167969 286.851562 319.535156 C 287.539062 319.902344 288.242188 320.234375 288.960938 320.53125 C 289.679688 320.828125 290.410156 321.089844 291.15625 321.316406 C 291.902344 321.542969 292.65625 321.730469 293.417969 321.882812 C 294.183594 322.035156 294.953125 322.148438 295.726562 322.226562 C 296.5 322.304688 297.277344 322.339844 298.058594 322.339844 C 298.835938 322.339844 299.613281 322.304688 300.386719 322.226562 C 301.160156 322.148438 301.929688 322.035156 302.695312 321.882812 C 303.457031 321.730469 304.210938 321.542969 304.957031 321.316406 C 305.703125 321.089844 306.433594 320.828125 307.152344 320.53125 C 307.871094 320.234375 308.574219 319.902344 309.261719 319.535156 C 309.949219 319.167969 310.613281 318.769531 311.261719 318.335938 C 311.910156 317.902344 312.535156 317.4375 313.136719 316.945312 C 313.738281 316.453125 314.3125 315.929688 314.863281 315.378906 C 315.414062 314.828125 315.9375 314.253906 316.429688 313.652344 C 316.925781 313.050781 317.386719 312.425781 317.820312 311.777344 C 318.253906 311.128906 318.652344 310.464844 319.019531 309.777344 C 319.386719 309.089844 319.71875 308.386719 320.015625 307.667969 C 320.3125 306.949219 320.578125 306.214844 320.800781 305.472656 C 321.027344 304.726562 321.21875 303.972656 321.367188 303.210938 C 321.519531 302.445312 321.636719 301.675781 321.710938 300.902344 C 321.789062 300.128906 321.824219 299.351562 321.824219 298.570312 C 321.824219 297.792969 321.789062 297.015625 321.710938 296.242188 C 321.636719 295.46875 321.519531 294.699219 321.367188 293.933594 C 321.21875 293.171875 321.027344 292.417969 320.800781 291.671875 C 320.578125 290.925781 320.3125 290.195312 320.015625 289.476562 C 319.71875 288.757812 319.386719 288.054688 319.019531 287.367188 C 318.652344 286.679688 318.253906 286.015625 317.820312 285.367188 C 317.386719 284.71875 316.925781 284.09375 316.429688 283.492188 C 315.9375 282.890625 315.414062 282.316406 314.863281 281.765625 C 314.3125 281.214844 313.738281 280.691406 313.136719 280.199219 C 312.535156 279.703125 311.910156 279.242188 311.261719 278.808594 C 310.613281 278.375 309.949219 277.976562 309.261719 277.609375 C 308.574219 277.242188 307.871094 276.910156 307.152344 276.613281 C 306.433594 276.3125 305.703125 276.050781 304.957031 275.828125 C 304.210938 275.601562 303.457031 275.410156 302.695312 275.257812 C 301.929688 275.109375 301.160156 274.992188 300.386719 274.917969 C 299.613281 274.839844 298.835938 274.804688 298.058594 274.804688 Z M 298.058594 274.804688 "/>
<path style=" stroke:none;fill-rule:nonzero;fill:rgb(0%,0%,0%);fill-opacity:1;" d="M 303.308594 268.65625 C 302.527344 268.65625 301.75 268.695312 300.976562 268.769531 C 300.203125 268.847656 299.433594 268.960938 298.667969 269.113281 C 297.90625 269.265625 297.152344 269.453125 296.40625 269.679688 C 295.660156 269.90625 294.929688 270.167969 294.210938 270.464844 C 293.492188 270.761719 292.789062 271.09375 292.101562 271.460938 C 291.414062 271.828125 290.75 272.230469 290.101562 272.660156 C 289.453125 273.09375 288.828125 273.558594 288.226562 274.050781 C 287.625 274.542969 287.050781 275.066406 286.5 275.617188 C 285.949219 276.167969 285.425781 276.742188 284.933594 277.34375 C 284.4375 277.945312 283.976562 278.570312 283.542969 279.21875 C 283.109375 279.867188 282.710938 280.53125 282.34375 281.21875 C 281.976562 281.90625 281.644531 282.609375 281.347656 283.328125 C 281.050781 284.046875 280.789062 284.78125 280.5625 285.523438 C 280.335938 286.269531 280.144531 287.023438 279.996094 287.789062 C 279.84375 288.550781 279.730469 289.320312 279.652344 290.09375 C 279.574219 290.871094 279.539062 291.644531 279.539062 292.425781 C 279.539062 293.203125 279.574219 293.980469 279.652344 294.753906 C 279.730469 295.527344 279.84375 296.296875 279.996094 297.0625 C 280.144531 297.824219 280.335938 298.578125 280.5625 299.324219 C 280.789062 300.070312 281.050781 300.800781 281.347656 301.519531 C 281.644531 302.238281 281.976562 302.941406 282.34375 303.628906 C 282.710938 304.316406 283.109375 304.980469 283.542969 305.628906 C 283.976562 306.277344 284.4375 306.902344 284.933594 307.503906 C 285.425781 308.105469 285.949219 308.679688 286.5 309.230469 C 287.050781 309.78125 287.625 310.304688 288.226562 310.796875 C 288.828125 311.292969 289.453125 311.753906 290.101562 312.1875 C 290.75 312.621094 291.414062 313.019531 292.101562 313.386719 C 292.789062 313.753906 293.492188 314.085938 294.210938 314.382812 C 294.929688 314.683594 295.660156 314.945312 296.40625 315.167969 C 297.152344 315.394531 297.90625 315.585938 298.667969 315.738281 C 299.433594 315.886719 300.203125 316.003906 300.976562 316.078125 C 301.75 316.15625 302.527344 316.191406 303.308594 316.191406 C 304.085938 316.191406 304.863281 316.15625 305.636719 316.078125 C 306.410156 316.003906 307.179688 315.886719 307.945312 315.738281 C 308.707031 315.585938 309.460938 315.394531 310.207031 315.167969 C 310.953125 314.945312 311.683594 314.683594 312.402344 314.382812 C 313.121094 314.085938 313.824219 313.753906 314.511719 313.386719 C 315.199219 313.019531 315.863281 312.621094 316.511719 312.1875 C 317.160156 311.753906 317.785156 311.292969 318.386719 310.796875 C 318.988281 310.304688 319.5625 309.78125 320.113281 309.230469 C 320.664062 308.679688 321.1875 308.105469 321.679688 307.503906 C 322.175781 306.902344 322.636719 306.277344 323.070312 305.628906 C 323.503906 304.980469 323.902344 304.316406 324.269531 303.628906 C 324.636719 302.941406 324.96875 302.238281 325.265625 301.519531 C 325.5625 300.800781 325.828125 300.070312 326.050781 299.324219 C 326.277344 298.578125 326.46875 297.824219 326.617188 297.0625 C 326.769531 296.296875 326.886719 295.527344 326.960938 294.753906 C 327.039062 293.980469 327.074219 293.203125 327.074219 292.425781 C 327.074219 291.644531 327.039062 290.871094 326.960938 290.09375 C 326.886719 289.320312 326.769531 288.550781 326.617188 287.789062 C 326.46875 287.023438 326.277344 286.269531 326.050781 285.523438 C 325.828125 284.78125 325.5625 284.046875 325.265625 283.328125 C 324.96875 282.609375 324.636719 281.90625 324.269531 281.21875 C 323.902344 280.53125 323.503906 279.867188 323.070312 279.21875 C 322.636719 278.570312 322.175781 277.945312 321.679688 277.34375 C 321.1875 276.742188 320.664062 276.167969 320.113281 275.617188 C 319.5625 275.066406 318.988281 274.542969 318.386719 274.050781 C 317.785156 273.558594 317.160156 273.09375 316.511719 272.660156 C 315.863281 272.230469 315.199219 271.828125 314.511719 271.460938 C 313.824219 271.09375 313.121094 270.761719 312.402344 270.464844 C 311.683594 270.167969 310.953125 269.90625 310.207031 269.679688 C 309.460938 269.453125 308.707031 269.265625 307.945312 269.113281 C 307.179688 268.960938 306.410156 268.847656 305.636719 268.769531 C 304.863281 268.695312 304.085938 268.65625 303.308594 268.65625 Z M 303.308594 268.65625 "/>
<path style=" stroke:none;fill-rule:nonzero;fill:rgb(0%,0%,0%);fill-opacity:1;" d="M 72.261719 288.480469 C 71.695312 288.480469 71.128906 288.507812 70.566406 288.5625 C 70 288.621094 69.441406 288.703125 68.886719 288.8125 C 68.328125 288.925781 67.78125 289.0625 67.238281 289.226562 C 66.695312 289.390625 66.164062 289.582031 65.640625 289.796875 C 65.117188 290.015625 64.605469 290.257812 64.105469 290.523438 C 63.605469 290.792969 63.117188 291.082031 62.648438 291.398438 C 62.175781 291.710938 61.722656 292.050781 61.285156 292.410156 C 60.84375 292.769531 60.425781 293.148438 60.023438 293.550781 C 59.625 293.949219 59.242188 294.371094 58.882812 294.808594 C 58.523438 295.246094 58.1875 295.699219 57.871094 296.171875 C 57.558594 296.644531 57.265625 297.128906 57 297.628906 C 56.734375 298.128906 56.492188 298.640625 56.273438 299.164062 C 56.058594 299.6875 55.867188 300.21875 55.703125 300.761719 C 55.535156 301.304688 55.398438 301.855469 55.289062 302.410156 C 55.179688 302.964844 55.09375 303.527344 55.039062 304.089844 C 54.984375 304.652344 54.957031 305.21875 54.957031 305.785156 C 54.957031 306.351562 54.984375 306.917969 55.039062 307.480469 C 55.09375 308.046875 55.179688 308.605469 55.289062 309.160156 C 55.398438 309.71875 55.535156 310.265625 55.703125 310.808594 C 55.867188 311.351562 56.058594 311.882812 56.273438 312.410156 C 56.492188 312.933594 56.734375 313.445312 57 313.945312 C 57.265625 314.441406 57.558594 314.929688 57.871094 315.398438 C 58.1875 315.871094 58.523438 316.324219 58.882812 316.765625 C 59.242188 317.203125 59.625 317.621094 60.023438 318.023438 C 60.425781 318.421875 60.84375 318.804688 61.285156 319.164062 C 61.722656 319.523438 62.175781 319.859375 62.648438 320.175781 C 63.117188 320.488281 63.605469 320.78125 64.105469 321.046875 C 64.605469 321.316406 65.117188 321.558594 65.640625 321.773438 C 66.164062 321.992188 66.695312 322.179688 67.238281 322.347656 C 67.78125 322.511719 68.328125 322.648438 68.886719 322.757812 C 69.441406 322.867188 70 322.953125 70.566406 323.007812 C 71.128906 323.0625 71.695312 323.089844 72.261719 323.089844 C 72.828125 323.089844 73.394531 323.0625 73.957031 323.007812 C 74.523438 322.953125 75.082031 322.867188 75.636719 322.757812 C 76.191406 322.648438 76.742188 322.511719 77.285156 322.347656 C 77.828125 322.179688 78.359375 321.992188 78.882812 321.773438 C 79.40625 321.558594 79.917969 321.316406 80.417969 321.046875 C 80.917969 320.78125 81.402344 320.488281 81.875 320.175781 C 82.347656 319.859375 82.800781 319.523438 83.238281 319.164062 C 83.675781 318.804688 84.097656 318.421875 84.496094 318.023438 C 84.898438 317.621094 85.277344 317.203125 85.636719 316.765625 C 85.996094 316.324219 86.335938 315.871094 86.648438 315.398438 C 86.964844 314.929688 87.253906 314.441406 87.523438 313.945312 C 87.789062 313.445312 88.03125 312.933594 88.25 312.410156 C 88.464844 311.882812 88.65625 311.351562 88.820312 310.808594 C 88.984375 310.265625 89.125 309.71875 89.234375 309.160156 C 89.34375 308.605469 89.425781 308.046875 89.484375 307.480469 C 89.539062 306.917969 89.566406 306.351562 89.566406 305.785156 C 89.566406 305.21875 89.539062 304.652344 89.484375 304.089844 C 89.425781 303.527344 89.34375 302.964844 89.234375 302.410156 C 89.125 301.855469 88.984375 301.304688 88.820312 300.761719 C 88.65625 300.21875 88.464844 299.6875 88.25 299.164062 C 88.03125 298.640625 87.789062 298.128906 87.523438 297.628906 C 87.253906 297.128906 86.964844 296.644531 86.648438 296.171875 C 86.335938 295.699219 85.996094 295.246094 85.636719 294.808594 C 85.277344 294.371094 84.898438 293.949219 84.496094 293.550781 C 84.097656 293.148438 83.675781 292.769531 83.238281 292.410156 C 82.800781 292.050781 82.347656 291.710938 81.875 291.398438 C 81.402344 291.082031 80.917969 290.792969 80.417969 290.523438 C 79.917969 290.257812 79.40625 290.015625 78.882812 289.796875 C 78.359375 289.582031 77.828125 289.390625 77.285156 289.226562 C 76.742188 289.0625 76.191406 288.925781 75.636719 288.8125 C 75.082031 288.703125 74.523438 288.621094 73.957031 288.5625 C 73.394531 288.507812 72.828125 288.480469 72.261719 288.480469 Z M 72.261719 288.480469 "/>
<path style=" stroke:none;fill-rule:nonzero;fill:rgb(0%,0%,0%);fill-opacity:1;" d="M 71.511719 270.90625 C 70.734375 270.90625 69.957031 270.945312 69.179688 271.019531 C 68.40625 271.097656 67.636719 271.210938 66.875 271.363281 C 66.109375 271.515625 65.355469 271.703125 64.613281 271.929688 C 63.867188 272.15625 63.132812 272.417969 62.414062 272.714844 C 61.695312 273.011719 60.992188 273.34375 60.308594 273.710938 C 59.621094 274.078125 58.953125 274.480469 58.304688 274.910156 C 57.660156 275.34375 57.035156 275.808594 56.433594 276.300781 C 55.832031 276.792969 55.253906 277.316406 54.703125 277.867188 C 54.152344 278.417969 53.632812 278.992188 53.136719 279.59375 C 52.644531 280.195312 52.179688 280.820312 51.75 281.46875 C 51.316406 282.117188 50.914062 282.78125 50.550781 283.46875 C 50.183594 284.15625 49.851562 284.859375 49.550781 285.578125 C 49.253906 286.296875 48.992188 287.03125 48.765625 287.773438 C 48.539062 288.519531 48.351562 289.273438 48.199219 290.039062 C 48.046875 290.800781 47.933594 291.570312 47.855469 292.34375 C 47.78125 293.121094 47.742188 293.894531 47.742188 294.675781 C 47.742188 295.453125 47.78125 296.230469 47.855469 297.003906 C 47.933594 297.777344 48.046875 298.546875 48.199219 299.3125 C 48.351562 300.074219 48.539062 300.828125 48.765625 301.574219 C 48.992188 302.320312 49.253906 303.050781 49.550781 303.769531 C 49.851562 304.488281 50.183594 305.191406 50.550781 305.878906 C 50.914062 306.566406 51.316406 307.230469 51.75 307.878906 C 52.179688 308.527344 52.644531 309.152344 53.136719 309.753906 C 53.632812 310.355469 54.152344 310.929688 54.703125 311.480469 C 55.253906 312.03125 55.832031 312.554688 56.433594 313.046875 C 57.035156 313.542969 57.660156 314.003906 58.304688 314.4375 C 58.953125 314.871094 59.621094 315.269531 60.308594 315.636719 C 60.992188 316.003906 61.695312 316.335938 62.414062 316.632812 C 63.132812 316.933594 63.867188 317.195312 64.613281 317.417969 C 65.355469 317.644531 66.109375 317.835938 66.875 317.988281 C 67.636719 318.136719 68.40625 318.253906 69.179688 318.328125 C 69.957031 318.40625 70.734375 318.441406 71.511719 318.441406 C 72.289062 318.441406 73.066406 318.40625 73.839844 318.328125 C 74.617188 318.253906 75.386719 318.136719 76.148438 317.988281 C 76.910156 317.835938 77.667969 317.644531 78.410156 317.417969 C 79.15625 317.195312 79.886719 316.933594 80.605469 316.632812 C 81.328125 316.335938 82.03125 316.003906 82.714844 315.636719 C 83.402344 315.269531 84.070312 314.871094 84.714844 314.4375 C 85.363281 314.003906 85.988281 313.542969 86.589844 313.046875 C 87.191406 312.554688 87.769531 312.03125 88.320312 311.480469 C 88.867188 310.929688 89.390625 310.355469 89.886719 309.753906 C 90.378906 309.152344 90.84375 308.527344 91.273438 307.878906 C 91.707031 307.230469 92.105469 306.566406 92.472656 305.878906 C 92.839844 305.191406 93.171875 304.488281 93.472656 303.769531 C 93.769531 303.050781 94.03125 302.320312 94.257812 301.574219 C 94.484375 300.828125 94.671875 300.074219 94.824219 299.3125 C 94.976562 298.546875 95.089844 297.777344 95.164062 297.003906 C 95.242188 296.230469 95.28125 295.453125 95.28125 294.675781 C 95.28125 293.894531 95.242188 293.121094 95.164062 292.34375 C 95.089844 291.570312 94.976562 290.800781 94.824219 290.039062 C 94.671875 289.273438 94.484375 288.519531 94.257812 287.773438 C 94.03125 287.03125 93.769531 286.296875 93.472656 285.578125 C 93.171875 284.859375 92.839844 284.15625 92.472656 283.46875 C 92.105469 282.78125 91.707031 282.117188 91.273438 281.46875 C 90.84375 280.820312 90.378906 280.195312 89.886719 279.59375 C 89.390625 278.992188 88.867188 278.417969 88.320312 277.867188 C 87.769531 277.316406 87.191406 276.792969 86.589844 276.300781 C 85.988281 275.808594 85.363281 275.34375 84.714844 274.910156 C 84.070312 274.480469 83.402344 274.078125 82.714844 273.710938 C 82.03125 273.34375 81.328125 273.011719 80.605469 272.714844 C 79.886719 272.417969 79.15625 272.15625 78.410156 271.929688 C 77.667969 271.703125 76.910156 271.515625 76.148438 271.363281 C 75.386719 271.210938 74.617188 271.097656 73.839844 271.019531 C 73.066406 270.945312 72.289062 270.90625 71.511719 270.90625 Z M 71.511719 270.90625 "/>
<path style=" stroke:none;fill-rule:nonzero;fill:rgb(0%,0%,0%);fill-opacity:1;" d="M 117.550781 330.371094 C 115.988281 330.371094 114.441406 330.4375 112.914062 330.566406 C 111.382812 330.695312 109.894531 330.886719 108.453125 331.140625 C 107.011719 331.398438 105.640625 331.707031 104.34375 332.078125 C 103.046875 332.449219 101.84375 332.867188 100.742188 333.335938 C 99.636719 333.808594 98.652344 334.320312 97.785156 334.871094 C 96.917969 335.425781 96.1875 336.007812 95.589844 336.625 C 94.992188 337.238281 94.542969 337.871094 94.238281 338.523438 C 93.933594 339.175781 93.78125 339.835938 93.78125 340.5 C 93.78125 341.164062 93.933594 341.824219 94.238281 342.476562 C 94.542969 343.128906 94.992188 343.761719 95.589844 344.375 C 96.1875 344.992188 96.917969 345.574219 97.785156 346.128906 C 98.652344 346.679688 99.636719 347.191406 100.742188 347.664062 C 101.84375 348.132812 103.046875 348.550781 104.34375 348.921875 C 105.640625 349.292969 107.011719 349.601562 108.453125 349.859375 C 109.894531 350.113281 111.382812 350.304688 112.914062 350.433594 C 114.441406 350.5625 115.988281 350.628906 117.550781 350.628906 C 119.109375 350.628906 120.65625 350.5625 122.1875 350.433594 C 123.71875 350.304688 125.203125 350.113281 126.644531 349.859375 C 128.085938 349.601562 129.457031 349.292969 130.753906 348.921875 C 132.050781 348.550781 133.253906 348.132812 134.355469 347.664062 C 135.460938 347.191406 136.445312 346.679688 137.3125 346.128906 C 138.179688 345.574219 138.910156 344.992188 139.507812 344.375 C 140.105469 343.761719 140.558594 343.128906 140.863281 342.476562 C 141.164062 341.824219 141.316406 341.164062 141.316406 340.5 C 141.316406 339.835938 141.164062 339.175781 140.863281 338.523438 C 140.558594 337.871094 140.105469 337.238281 139.507812 336.625 C 138.910156 336.007812 138.179688 335.425781 137.3125 334.871094 C 136.445312 334.320312 135.460938 333.808594 134.355469 333.335938 C 133.253906 332.867188 132.050781 332.449219 130.753906 332.078125 C 129.457031 331.707031 128.085938 331.398438 126.644531 331.140625 C 125.203125 330.886719 123.71875 330.695312 122.1875 330.566406 C 120.65625 330.4375 119.109375 330.371094 117.550781 330.371094 Z M 117.550781 330.371094 "/>
</g>
</svg>
