<svg xmlns="http://www.w3.org/2000/svg" viewBox="0 0 82.96 82.96" id="wax">
    <path
        d="M41.48 0a41.48 41.48 0 1041.48 41.48A41.48 41.48 0 0041.48 0zm17.13 60h-8.44c-.88 0-1.17-.47-1.42-1.17q-3.14-8.72-6.31-17.42c-.09-.26-.21-.51-.45-1.12-.92 2.51-1.73 4.67-2.52 6.85-1.41 3.88-2.82 7.77-4.19 11.66a1.5 1.5 0 01-1.65 1.2q-5.79-.06-11.58 0a1.37 1.37 0 01-1.51-1q-5.22-14.71-10.49-29.31c-.31-.88-.16-1.27.84-1.26h8.32c1.05 0 1.25.64 1.51 1.37l6.87 19.27c0 .11.09.21.17.4.47-.25.5-.71.64-1.09 2.2-6.07 4.42-12.14 6.58-18.22a1.85 1.85 0 012.07-1.49c3.38.09 6.75 0 10.13 0a1.45 1.45 0 011.6 1.09q5.27 14.53 10.6 29.05c.31.82.18 1.16-.77 1.15zm5.93-4.19a5 5 0 01-.35.57l-2.3-6.36-2.55-7a2.87 2.87 0 010-2.1c1.36-3.64 2.7-7.29 4-11a1.61 1.61 0 011.81-1.3c2.69.07 5.39 0 8.08 0 .87 0 1.19.21.85 1.12q-4.8 13.03-9.54 26.03z">
    </path>
</svg>